<svg width="80" height="80" viewBox="0 0 80 80" fill="none" xmlns="http://www.w3.org/2000/svg">
<path d="M45.2938 46.5135L49.7381 67.2197C50.1421 69.0203 48.9301 70.7208 47.2129 71.1209L19.4359 76.9227C17.6178 77.3228 15.9007 76.1224 15.4967 74.4219L4.08283 21.1058C3.6788 19.3052 4.78988 17.5047 6.60801 17.1046L22.6682 13.7036" stroke="#DF4C55" stroke-width="2" stroke-miterlimit="10"/>
<path d="M14.0825 67.92L48.324 60.7178" stroke="#DF4C55" stroke-width="2" stroke-miterlimit="10"/>
<path d="M4.68884 24.3068L22.6681 20.5056" stroke="#DF4C55" stroke-width="2" stroke-miterlimit="10"/>
<path d="M29.8397 69.7205L34.6881 68.6202" stroke="#DF4C55" stroke-width="2" stroke-miterlimit="10"/>
<path d="M51.0513 2C37.2133 2 26.0015 10.9027 26.0015 21.806C26.0015 27.0076 28.5266 31.709 32.5669 35.2101C32.3649 38.9112 31.4559 44.6129 30.5468 47.7138C30.0418 49.3143 31.2538 50.4147 32.6679 49.6144C35.7992 47.8139 41.0515 43.9127 44.5868 40.9118C46.6069 41.3119 48.7281 41.612 50.9503 41.612C64.7883 41.612 76.0001 32.7093 76.0001 21.806C76.0001 10.9027 64.8893 2 51.0513 2Z" stroke="#DF4C55" stroke-width="2" stroke-miterlimit="10"/>
<path d="M47.718 13.6035H54.3845C56.2026 13.6035 57.7177 15.104 57.7177 16.9045V18.505C57.7177 20.3055 56.2026 21.806 54.3845 21.806" stroke="#DF4C55" stroke-width="2" stroke-miterlimit="10"/>
<path d="M54.3845 30.1085H47.718V21.806H54.3845C56.2026 21.806 57.7177 23.3064 57.7177 25.107V26.8075C57.7177 28.608 56.3036 30.1085 54.3845 30.1085Z" stroke="#DF4C55" stroke-width="2" stroke-miterlimit="10"/>
<path d="M42.7686 30.1085H47.7179" stroke="#DF4C55" stroke-width="2" stroke-miterlimit="10"/>
<path d="M42.7686 13.6035H47.7179" stroke="#DF4C55" stroke-width="2" stroke-miterlimit="10"/>
<path d="M47.718 8.60199V21.806" stroke="#DF4C55" stroke-width="2" stroke-miterlimit="10"/>
<path d="M47.718 30.1085V35.01" stroke="#DF4C55" stroke-width="2" stroke-miterlimit="10"/>
<path d="M52.7683 30.1085V35.01" stroke="#DF4C55" stroke-width="2" stroke-miterlimit="10"/>
<path d="M52.7683 8.60199V13.6035" stroke="#DF4C55" stroke-width="2" stroke-miterlimit="10"/>
</svg>
