<svg width="80" height="80" viewBox="0 0 80 80" fill="none" xmlns="http://www.w3.org/2000/svg">
<path d="M45.88 54.54H8.05C5.26 54.54 3 52.28 3 49.49V19.05C3 16.26 5.26 14 8.05 14H61.13C63.92 14 66.18 16.26 66.18 19.05V34.4" stroke="#DF4C55" stroke-width="2" stroke-miterlimit="10" stroke-linecap="round" stroke-linejoin="round"/>
<path d="M66.1799 21.33H3.41992V27.44H66.1799V21.33Z" stroke="#DF4C55" stroke-width="2" stroke-miterlimit="10" stroke-linecap="round" stroke-linejoin="round"/>
<path d="M62 66.36C70.8366 66.36 78 59.1965 78 50.36C78 41.5234 70.8366 34.36 62 34.36C53.1634 34.36 46 41.5234 46 50.36C46 59.1965 53.1634 66.36 62 66.36Z" stroke="#DF4C55" stroke-width="2" stroke-miterlimit="10" stroke-linecap="round" stroke-linejoin="round"/>
<path d="M9.91016 40.42H24.3702" stroke="#DF4C55" stroke-width="2" stroke-miterlimit="10" stroke-linecap="round" stroke-linejoin="round"/>
<path d="M9.91016 46.44H24.3702" stroke="#DF4C55" stroke-width="2" stroke-miterlimit="10" stroke-linecap="round" stroke-linejoin="round"/>
<path d="M52.1299 51.33L60.8799 56.7L71.7499 43.95" stroke="#DF4C55" stroke-width="2" stroke-miterlimit="10" stroke-linecap="round" stroke-linejoin="round"/>
</svg>
