<svg width="80" height="80" viewBox="0 0 80 80" fill="none" xmlns="http://www.w3.org/2000/svg">
<g clip-path="url(#clip0_3387_24252)">
<path d="M3.09005 43.21C3.78005 43.57 5.36005 44.23 6.94005 44.23C8.95005 44.23 9.97005 43.26 9.97005 42.02C9.97005 40.39 8.34005 39.65 6.63005 39.65H5.05005V36.87H6.55005C7.85005 36.84 9.50005 36.36 9.50005 34.96C9.50005 33.97 8.69005 33.23 7.06005 33.23C5.71005 33.23 4.28005 33.82 3.60005 34.22L2.81005 31.42C3.80005 30.78 5.79005 30.17 7.93005 30.17C11.47 30.17 13.43 32.03 13.43 34.3C13.43 36.06 12.44 37.43 10.4 38.15V38.2C12.39 38.56 13.99 40.06 13.99 42.22C13.99 45.15 11.42 47.29 7.22005 47.29C5.08005 47.29 3.27005 46.73 2.30005 46.12L3.09005 43.21Z" fill="#DF4C55"/>
<path d="M17.1501 30.06C18.5801 29.83 20.4401 29.7 22.4001 29.7C25.6601 29.7 27.7701 30.29 29.4301 31.53C31.2101 32.85 32.3301 34.97 32.3301 38C32.3301 41.29 31.1301 43.55 29.4801 44.95C27.6701 46.45 24.9201 47.17 21.5601 47.17C19.5501 47.17 18.1201 47.04 17.1501 46.92V30.06ZM21.0501 44.07C21.3801 44.15 21.9201 44.15 22.4001 44.15C25.9101 44.18 28.2101 42.24 28.2101 38.14C28.2401 34.57 26.1501 32.69 22.8101 32.69C21.9401 32.69 21.3801 32.77 21.0501 32.84V44.07Z" fill="#DF4C55"/>
<path d="M1.29 53.8C1.67 53.99 2.25 54.19 2.85 54.19C3.49 54.19 3.83 53.92 3.83 53.52C3.83 53.13 3.54 52.91 2.79 52.65C1.76 52.29 1.09 51.72 1.09 50.82C1.09 49.76 1.97 48.95 3.44 48.95C4.14 48.95 4.65 49.1 5.02 49.26L4.7 50.39C4.45 50.27 4.01 50.1 3.4 50.1C2.79 50.1 2.5 50.38 2.5 50.7C2.5 51.1 2.85 51.27 3.65 51.57C4.75 51.97 5.26 52.55 5.26 53.42C5.26 54.46 4.46 55.34 2.76 55.34C2.05 55.34 1.35 55.16 1 54.96L1.29 53.8Z" fill="#DF4C55"/>
<path d="M9.89996 52.62H7.61996V54.09H10.17V55.24H6.20996V49.04H10.04V50.19H7.61996V51.48H9.89996V52.62Z" fill="#DF4C55"/>
<path d="M15.6801 55.07C15.4201 55.2 14.8401 55.34 14.0901 55.34C11.9501 55.34 10.8401 54.01 10.8401 52.24C10.8401 50.12 12.3501 48.95 14.2301 48.95C14.9601 48.95 15.5101 49.1 15.7601 49.23L15.4701 50.34C15.1901 50.22 14.7901 50.11 14.2901 50.11C13.1801 50.11 12.3101 50.78 12.3101 52.16C12.3101 53.4 13.0501 54.18 14.3001 54.18C14.7201 54.18 15.1901 54.09 15.4701 53.98L15.6801 55.07Z" fill="#DF4C55"/>
<path d="M18.0001 49.04V52.61C18.0001 53.68 18.4001 54.22 19.1201 54.22C19.8601 54.22 20.2601 53.7 20.2601 52.61V49.04H21.6601V52.52C21.6601 54.43 20.6901 55.34 19.0701 55.34C17.5001 55.34 16.5801 54.48 16.5801 52.5V49.04H18.0001Z" fill="#DF4C55"/>
<path d="M22.8701 49.13C23.3301 49.05 24.0001 49 24.7401 49C25.6601 49 26.3001 49.14 26.7501 49.49C27.1201 49.78 27.3201 50.22 27.3201 50.79C27.3201 51.58 26.7601 52.12 26.2301 52.32V52.35C26.6601 52.53 26.9001 52.94 27.0601 53.51C27.2501 54.21 27.4501 55.02 27.5701 55.26H26.1301C26.0301 55.09 25.8801 54.58 25.7001 53.82C25.5301 53.05 25.2701 52.83 24.7001 52.83H24.2801V55.27H22.8901V49.13H22.8701ZM24.2601 51.79H24.8101C25.5101 51.79 25.9201 51.44 25.9201 50.9C25.9201 50.33 25.5301 50.04 24.8901 50.04C24.5501 50.04 24.3601 50.07 24.2601 50.09V51.79Z" fill="#DF4C55"/>
<path d="M32.0201 52.62H29.7401V54.09H32.2901V55.24H28.3301V49.04H32.1601V50.19H29.7401V51.48H32.0201V52.62Z" fill="#DF4C55"/>
<path d="M46.16 34.31C40.29 34.31 35.54 39.07 35.54 44.93C35.54 50.8 40.3 55.55 46.16 55.55C52.02 55.55 56.78 50.79 56.78 44.93C56.78 39.07 52.02 34.31 46.16 34.31ZM46.16 48.94C43.95 48.94 42.16 47.15 42.16 44.94C42.16 42.73 43.95 40.94 46.16 40.94C48.37 40.94 50.16 42.73 50.16 44.94C50.16 47.15 48.37 48.94 46.16 48.94Z" stroke="#DF4C55" stroke-width="2" stroke-miterlimit="10" stroke-linecap="round" stroke-linejoin="round"/>
<path d="M39 36.62V31.16C39 27.2 42.2 24 46.16 24C50.11 24 53.32 27.2 53.32 31.16V36.62" stroke="#DF4C55" stroke-width="2" stroke-miterlimit="10" stroke-linecap="round" stroke-linejoin="round"/>
<path d="M53.19 29.6H71.43C74.09 29.6 76.25 31.76 76.25 34.42V49.16C76.25 51.82 74.09 53.98 71.43 53.98H52" stroke="#DF4C55" stroke-width="2" stroke-miterlimit="10" stroke-linecap="round" stroke-linejoin="round"/>
<path d="M53.5701 37.06H76.2501" stroke="#DF4C55" stroke-width="2" stroke-miterlimit="10" stroke-linecap="round" stroke-linejoin="round"/>
<path d="M71.66 42.37H64.75V49.28H71.66V42.37Z" stroke="#DF4C55" stroke-width="2" stroke-miterlimit="10" stroke-linecap="round" stroke-linejoin="round"/>
</g>
<defs>
<clipPath id="clip0_3387_24252">
<rect width="76.25" height="33.56" fill="white" transform="translate(1 23)"/>
</clipPath>
</defs>
</svg>
