<svg width="80" height="80" viewBox="0 0 80 80" fill="none" xmlns="http://www.w3.org/2000/svg">
<path d="M20.6 17.6C20.8 17.6 21 17.5 21.2 17.4L21.5 17.2C22 16.9 22.1 16.2 21.8 15.7C21.5 15.2 20.8 15.1 20.3 15.4L20 15.6C19.5 15.9 19.4 16.6 19.7 17.1C19.9 17.4 20.2 17.6 20.6 17.6Z" fill="#DF4C55"/>
<path d="M14.3999 35.3999C14.3999 46.0999 23.0999 54.8999 33.8999 54.8999C44.5999 54.8999 53.3999 46.1999 53.3999 35.3999C53.3999 24.6999 44.6999 15.8999 33.8999 15.8999C23.1999 15.8999 14.3999 24.6999 14.3999 35.3999ZM33.8999 18.0999C43.3999 18.0999 51.1999 25.8999 51.1999 35.3999C51.1999 44.8999 43.3999 52.6999 33.8999 52.6999C24.3999 52.6999 16.5999 44.8999 16.5999 35.3999C16.5999 25.8999 24.3999 18.0999 33.8999 18.0999Z" fill="#DF4C55"/>
<path d="M27.7999 42.1999C27.1999 42.1999 26.7 42.6999 26.7 43.2999C26.7 43.8999 27.1999 44.3999 27.7999 44.3999H28.9V45.8999C28.9 46.4999 29.4 46.9999 30 46.9999C30.6 46.9999 31.1 46.4999 31.1 45.8999V44.3999H32.5999V45.8999C32.5999 46.4999 33.1 46.9999 33.7 46.9999C34.3 46.9999 34.7999 46.4999 34.7999 45.8999V44.3999H36.0999C38.8999 44.3999 41.0999 42.1999 41.0999 39.3999V38.9999C41.0999 37.2999 40.2 35.7999 38.9 34.8999C39.9 33.9999 40.5999 32.6999 40.5999 31.1999C40.5999 28.3999 38.3999 26.1999 35.5999 26.1999H34.7999V24.9999C34.7999 24.3999 34.3 23.8999 33.7 23.8999C33.1 23.8999 32.5999 24.3999 32.5999 24.9999V26.1999H31.1V24.9999C31.1 24.3999 30.6 23.8999 30 23.8999C29.4 23.8999 28.9 24.3999 28.9 24.9999V26.1999H27.7999C27.1999 26.1999 26.7 26.6999 26.7 27.2999C26.7 27.8999 27.1999 28.3999 27.7999 28.3999H28.9V42.1999H27.7999ZM35.5999 28.2999C37.1999 28.2999 38.4 29.5999 38.4 31.0999C38.4 32.6999 37.0999 33.8999 35.5999 33.8999H31.1V28.2999H35.5999ZM31.1 36.1999H36.0999C37.6999 36.1999 38.9 37.4999 38.9 38.9999V39.3999C38.9 40.9999 37.5999 42.1999 36.0999 42.1999H33.7H31.1V36.1999Z" fill="#DF4C55"/>
<path d="M55.7 24.9C51.7 16.8 43.4 11.2 33.9 11.2C31 11.2 28.2 11.7 25.6 12.7C25 12.9 24.7 13.5 24.9 14.1C25.1 14.7 25.6999 15 26.2999 14.8C28.6999 13.9 31.3 13.5 33.9 13.5C46.1 13.5 55.9 23.4 55.9 35.5C55.9 47.7 46 57.5 33.9 57.5C21.7 57.5 11.9 47.6 11.9 35.5C11.9 29.9 14 24.5 17.9 20.4C18.3 20 18.3 19.3 17.8 18.9C17.4 18.5 16.7 18.5 16.3 19C12 23.3 9.69995 29.2 9.69995 35.4C9.69995 47.7 18.9 57.8 30.7 59.4C34.4 63.8 39.7999 66.3 45.5999 66.3C56.2999 66.3 65.0999 57.5999 65.0999 46.7999C65.0999 43.2999 64.2 39.9 62.4 37C62.1 36.5 61.4 36.2999 60.9 36.5999C60.4 36.8999 60.2 37.5999 60.5 38.0999C62 40.6999 62.9 43.7999 62.9 46.7999C62.9 56.2999 55.0999 64.0999 45.5999 64.0999C41.2999 64.0999 37.1 62.5 34 59.5999C47.2999 59.5999 58.2 48.7 58.2 35.4C58.2 32.8 57.7999 30.2999 57 28C63.5 32 67.5999 39.0999 67.5999 46.7999C67.5999 59 57.7 68.8 45.5999 68.8C39.6999 68.8 34.2 66.5 30 62.4C29.6 62 28.9 62 28.5 62.4C28.1 62.8 28.1 63.5 28.5 63.9C33.1 68.5 39.0999 71 45.5999 71C58.9999 71 69.8 60.0999 69.8 46.7999C69.8 37.4 64.2999 28.8 55.7 24.9Z" fill="#DF4C55"/>
</svg>
