<svg width="80" height="80" viewBox="0 0 80 80" fill="none" xmlns="http://www.w3.org/2000/svg">
<path d="M45.5395 45.47H44.1395V49.62H43.1495V45.47H41.7695V44.71H45.5395V45.47Z" fill="#DF4C55"/>
<path d="M50.0294 47.61C50.0294 48.22 49.8394 48.71 49.4594 49.11C49.0794 49.5 48.5794 49.7 47.9794 49.7C47.3694 49.7 46.8794 49.5 46.4994 49.11C46.1194 48.72 45.9294 48.22 45.9294 47.62V46.74C45.9294 46.14 46.1194 45.64 46.4894 45.25C46.8694 44.85 47.3594 44.66 47.9594 44.66C48.5694 44.66 49.0694 44.86 49.4494 45.25C49.8294 45.64 50.0194 46.14 50.0194 46.74V47.61H50.0294ZM49.0494 46.72C49.0494 46.34 48.9494 46.02 48.7594 45.78C48.5694 45.53 48.2994 45.41 47.9694 45.41C47.6394 45.41 47.3794 45.53 47.1894 45.78C46.9994 46.03 46.9094 46.34 46.9094 46.72V47.61C46.9094 48 46.9994 48.32 47.1894 48.56C47.3794 48.81 47.6394 48.93 47.9694 48.93C48.3094 48.93 48.5694 48.81 48.7594 48.56C48.9494 48.31 49.0394 48 49.0394 47.61V46.72H49.0494Z" fill="#DF4C55"/>
<path d="M52.2196 47.57H51.8596V49.62H50.8696V44.71H51.8596V46.72H52.1396L53.4896 44.71H54.7096L52.9996 46.99L54.8296 49.62H53.5696L52.2196 47.57Z" fill="#DF4C55"/>
<path d="M58.1596 47.46H56.3396V48.86H58.5096V49.62H55.3596V44.71H58.4996V45.47H56.3396V46.7H58.1596V47.46Z" fill="#DF4C55"/>
<path d="M63.2295 49.62H62.2395L60.2595 46.31H60.2395V49.62H59.2495V44.71H60.2395L62.2195 48.02H62.2395V44.71H63.2295V49.62Z" fill="#DF4C55"/>
<path d="M33.33 54.69H5.79C3.69 54.69 2 52.99 2 50.9V28.1C2 26.01 3.69 24.31 5.79 24.31H33.34" stroke="#DF4C55" stroke-width="2" stroke-miterlimit="10" stroke-linecap="round" stroke-linejoin="round"/>
<path d="M52.5 64C66.031 64 77 53.031 77 39.5C77 25.969 66.031 15 52.5 15C38.969 15 28 25.969 28 39.5C28 53.031 38.969 64 52.5 64Z" stroke="#DF4C55" stroke-width="2" stroke-miterlimit="10" stroke-linecap="round" stroke-linejoin="round"/>
<path d="M8.91992 46.2H20.4899" stroke="#DF4C55" stroke-width="2" stroke-miterlimit="10" stroke-linecap="round" stroke-linejoin="round"/>
<path d="M50.52 30.13V28.99C50.52 27.9 51.41 27.01 52.5 27.01C53.59 27.01 54.48 27.9 54.48 28.99V30.13" stroke="#DF4C55" stroke-width="0.9679" stroke-miterlimit="10" stroke-linecap="round" stroke-linejoin="round"/>
<path d="M54.5001 29.85H50.5001C49.5801 29.85 48.8301 30.6 48.8301 31.52V33.96C48.8301 34.88 49.5801 35.63 50.5001 35.63H54.5001C55.4201 35.63 56.1701 34.88 56.1701 33.96V31.52C56.1701 30.6 55.4201 29.85 54.5001 29.85ZM53.1701 34.16H51.8201L52.0401 32.6C51.8801 32.47 51.7701 32.27 51.7701 32.04C51.7701 31.64 52.0901 31.32 52.4901 31.32C52.8901 31.32 53.2101 31.64 53.2101 32.04C53.2101 32.27 53.1001 32.47 52.9401 32.6L53.1701 34.16Z" fill="#DF4C55"/>
<path d="M57.9002 41.41C63.0002 36.15 62.4302 28.21 62.4302 25.52C56.1902 25.52 52.5102 21.8 52.5102 21.8C52.5102 21.8 48.8202 25.52 42.5902 25.52C42.5902 28.14 42.0402 35.74 46.7302 40.99" stroke="#DF4C55" stroke-width="2" stroke-miterlimit="10" stroke-linecap="round" stroke-linejoin="round"/>
<path d="M63.8201 41.39H55.8801L52.5001 37.64L49.1201 41.39H41.1801C38.1101 41.39 35.6201 43.88 35.6201 46.95C35.6201 50.02 38.1101 52.51 41.1801 52.51H49.1201H52.5001H55.8801H63.8201C66.8901 52.51 69.3801 50.02 69.3801 46.95C69.3801 43.88 66.8901 41.39 63.8201 41.39Z" stroke="#DF4C55" stroke-width="2.1429" stroke-miterlimit="10" stroke-linecap="round" stroke-linejoin="round"/>
<path d="M2 31.39H29.17" stroke="#DF4C55" stroke-width="2" stroke-miterlimit="10" stroke-linecap="round" stroke-linejoin="round"/>
<path d="M2 37.22H27.75" stroke="#DF4C55" stroke-width="2" stroke-miterlimit="10" stroke-linecap="round" stroke-linejoin="round"/>
</svg>
