<svg width="80" height="80" viewBox="0 0 80 80" fill="none" xmlns="http://www.w3.org/2000/svg">
<path d="M2.00689 20.8C2.00689 20.8 1.20135 45.8 17.0102 59.5C32.819 73.2 59.402 78 59.402 78L62.8256 67C63.2371 65.5397 63.0955 63.9803 62.4275 62.6167C61.7596 61.253 60.6115 60.1798 59.2006 59.6L49.4334 55.9C48.3497 55.4625 47.16 55.3525 46.0136 55.5838C44.8671 55.815 43.815 56.3773 42.989 57.2L38.5585 61.6L18.9233 42.9L23.958 38.1C24.8358 37.2476 25.4313 36.1498 25.6652 34.9529C25.899 33.7559 25.7601 32.5166 25.267 31.4L20.6351 20.5C20.0331 19.1247 18.9342 18.0231 17.5551 17.4123C16.1759 16.8015 14.6164 16.7258 13.1838 17.2L2.00689 20.8Z" stroke="#DF4C55" stroke-width="3" stroke-linecap="round" stroke-linejoin="round"/>
<path d="M46.0098 39.6V43.2H32.4163C32.5814 41.8105 33.0636 40.4766 33.826 39.3C35.0353 37.5061 36.4928 35.8903 38.1558 34.5C39.2894 33.5269 40.3339 32.4561 41.2773 31.3C41.8139 30.6148 42.0982 29.7679 42.0828 28.9C42.1072 28.5367 42.0573 28.1722 41.9362 27.8285C41.8151 27.4848 41.6252 27.1689 41.378 26.9C41.1175 26.6751 40.8133 26.5058 40.4842 26.4025C40.155 26.2993 39.8081 26.2644 39.4648 26.3C39.1144 26.2777 38.7631 26.3285 38.4336 26.449C38.1042 26.5696 37.8037 26.7573 37.5516 27C37.0575 27.707 36.778 28.54 36.7461 29.4L32.9197 29C32.9283 28.1435 33.1215 27.2987 33.4862 26.5225C33.851 25.7464 34.3788 25.0567 35.0343 24.5C36.3241 23.5038 37.9342 23.0063 39.5655 23.1C40.4219 23.0402 41.2817 23.1509 42.0944 23.4257C42.9071 23.7004 43.6563 24.1337 44.2981 24.7C44.8441 25.1935 45.2789 25.796 45.5739 26.4682C45.869 27.1403 46.0175 27.8668 46.0098 28.6C45.9986 29.4895 45.8281 30.3698 45.5064 31.2C45.1361 32.1365 44.627 33.0129 43.996 33.8C43.2098 34.6843 42.369 35.5192 41.4786 36.3C40.6641 36.9878 39.8908 37.7224 39.1627 38.5C38.8298 38.8156 38.5569 39.1882 38.3572 39.6H46.0098Z" fill="#DF4C55"/>
<path d="M56.1798 43.2V39.1H47.923V35.8L56.6833 23.1H59.9055V35.8H62.4228V39.1H59.9055V43.2H56.1798ZM56.1798 35.8V28.9L51.5479 35.8H56.1798Z" fill="#DF4C55"/>
<path d="M34.4301 9.79999L31.4093 11.6H31.3087C32.2709 10.9584 33.2808 10.3901 34.3295 9.89999L34.4301 9.79999Z" fill="#DF4C55"/>
<path d="M47.923 2H44.4994V7.17H47.923V2Z" fill="#DF4C55"/>
<path d="M34.4301 9.80002L31.4093 11.6L31.3087 11.5L28.7913 7.10002L31.8121 5.40002L34.3294 9.80002H34.4301Z" fill="#DF4C55"/>
<path d="M70.0796 45.3302L68.3679 48.2747L72.8762 50.8597L74.588 47.9152L70.0796 45.3302Z" fill="#DF4C55"/>
<path d="M72.7942 31.9V35.3H78V31.9H72.7942Z" fill="#DF4C55"/>
<path d="M68.353 18.8302L70.0648 21.7747L74.5732 19.1897L72.8614 16.2452L68.353 18.8302Z" fill="#DF4C55"/>
<path d="M58.0024 9.79048L60.9673 11.4905L63.5702 7.01313L60.6053 5.31313L58.0024 9.79048Z" fill="#DF4C55"/>
</svg>
