<svg width="80" height="80" viewBox="0 0 80 80" fill="none" xmlns="http://www.w3.org/2000/svg">
<g clip-path="url(#clip0_3387_24271)">
<path d="M38.76 66.48H72.71C75.08 66.48 77.01 64.56 77.01 62.18V36.31C77.01 33.94 75.09 32.01 72.71 32.01H48.74H24.77C23.12 32.01 21.68 32.95 20.96 34.32" stroke="#DF4C55" stroke-width="2" stroke-miterlimit="10" stroke-linecap="round" stroke-linejoin="round"/>
<path d="M76.65 39.52H48.74H35.97" stroke="#DF4C55" stroke-width="2" stroke-miterlimit="10" stroke-linecap="round" stroke-linejoin="round"/>
<path d="M76.6498 45.47H40.3398" stroke="#DF4C55" stroke-width="2" stroke-miterlimit="10" stroke-linecap="round" stroke-linejoin="round"/>
<path d="M64.8702 31.43L58.9802 9.17002C58.3602 6.88002 56.0002 5.53002 53.7102 6.15002L30.5802 12.43L7.44016 18.7C5.15016 19.32 3.80016 21.68 4.42016 23.97L8.55016 39.23" stroke="#DF4C55" stroke-width="2" stroke-miterlimit="10" stroke-linecap="round" stroke-linejoin="round"/>
<path d="M59.4801 12.37L32.5401 19.67L5.61011 26.98" stroke="#DF4C55" stroke-width="2" stroke-miterlimit="10" stroke-linecap="round" stroke-linejoin="round"/>
<path d="M61.0402 18.11L7.17017 32.73" stroke="#DF4C55" stroke-width="2" stroke-miterlimit="10" stroke-linecap="round" stroke-linejoin="round"/>
<path d="M36.4468 68.7483C44.3275 60.8676 44.3275 48.0905 36.4467 40.2098C28.566 32.3291 15.7889 32.3291 7.90819 40.2098C0.0274893 48.0905 0.0274893 60.8676 7.90819 68.7483C15.7889 76.629 28.566 76.629 36.4468 68.7483Z" stroke="#DF4C55" stroke-width="2" stroke-miterlimit="10" stroke-linecap="round" stroke-linejoin="round"/>
<path d="M42.4502 54.47H47.0102" stroke="#DF4C55" stroke-width="2" stroke-miterlimit="10" stroke-linecap="round" stroke-linejoin="round"/>
<path d="M42.4502 59.59H47.0102" stroke="#DF4C55" stroke-width="2" stroke-miterlimit="10" stroke-linecap="round" stroke-linejoin="round"/>
<path d="M26.6501 59.43C26.5401 59.37 26.4701 59.34 26.1301 59.59C25.7901 59.85 25.2501 60.48 25.4801 60.81C25.7101 61.14 26.9601 62.73 27.6101 63.5C28.2601 64.27 28.7401 64.23 29.1401 64.23C29.5401 64.23 30.0801 64.24 30.3801 63.69C30.6901 63.14 32.0301 60.75 33.4101 58.45C34.7901 56.15 36.5101 53.89 37.7301 52.89C38.0401 52.62 38.2601 52.27 37.6001 52.29C36.9401 52.31 35.7501 52.56 35.4101 52.92C35.0701 53.29 32.3701 56.31 31.0401 58.47C29.7101 60.63 29.4301 61.16 29.3201 61.32C29.2101 61.48 29.1001 61.57 28.9301 61.41C28.7801 61.27 26.8301 59.54 26.6501 59.43Z" fill="#DF4C55"/>
<path d="M24.23 60.68C22.2 60.67 19.31 59.89 19.31 56.73C19.31 53.27 23.27 52.91 24.3 52.91C25.33 52.91 26.17 53.15 26.55 53.29C26.55 53.29 26.55 53.95 26.55 55.31C23.75 54.03 22.29 55.25 22.29 56.76C22.29 58.27 23.42 58.85 24.63 58.85C24.85 58.85 25.03 58.83 25.21 58.81C25.27 58.76 25.33 58.7 25.39 58.65C25.69 58.42 26.05 58.19 26.51 58.19C26.9 58.19 27.17 58.35 27.26 58.41C27.36 58.47 27.6 58.66 27.89 58.91V53.04H30.78C30.78 53.04 30.78 54.37 30.78 56.7C31.48 55.72 32.29 54.71 32.98 53.89L30.03 47.29L6.98999 48.58L13.39 66.01L25.12 62.33C24.83 61.95 24.59 61.64 24.49 61.5C24.32 61.24 24.24 60.96 24.23 60.68ZM29.35 49.05C30.32 49.05 31.11 49.79 31.11 50.69C31.11 51.6 30.32 52.33 29.35 52.33C28.38 52.33 27.59 51.6 27.59 50.69C27.59 49.78 28.38 49.05 29.35 49.05ZM14.22 58.27V60.52H11.38V53.06C11.38 53.06 12.31 53.05 14.55 53.05C16.79 53.05 18.72 53.71 18.72 55.56C18.73 58.5 14.91 58.27 14.22 58.27Z" fill="#DF4C55"/>
<path d="M34.21 59.47C34.76 59.3 35.37 59.11 35.37 59.11L34.98 58.22C34.8 58.5 34.62 58.79 34.45 59.07C34.37 59.21 34.29 59.34 34.21 59.47Z" fill="#DF4C55"/>
</g>
<defs>
<clipPath id="clip0_3387_24271">
<rect width="80" height="80" fill="white"/>
</clipPath>
</defs>
</svg>
