<svg width="80" height="80" viewBox="0 0 80 80" fill="none" xmlns="http://www.w3.org/2000/svg">
<path d="M61 68.36C69.8366 68.36 77 61.1965 77 52.36C77 43.5234 69.8366 36.36 61 36.36C52.1634 36.36 45 43.5234 45 52.36C45 61.1965 52.1634 68.36 61 68.36Z" stroke="#DF4C55" stroke-width="2" stroke-miterlimit="10" stroke-linecap="round" stroke-linejoin="round"/>
<path d="M65.1799 23.1V36.41" stroke="#DF4C55" stroke-width="2" stroke-miterlimit="10" stroke-linecap="round" stroke-linejoin="round"/>
<path d="M2 23.1V16.05C2 13.26 4.26 11 7.05 11H60.13C62.92 11 65.18 13.26 65.18 16.05V23.09H2V23.1Z" stroke="#DF4C55" stroke-width="2" stroke-miterlimit="10" stroke-linecap="round" stroke-linejoin="round"/>
<path d="M44.88 56.54H7.05C4.26 56.54 2 54.28 2 51.49V23.1" stroke="#DF4C55" stroke-width="2" stroke-miterlimit="10" stroke-linecap="round" stroke-linejoin="round"/>
<path d="M9.16992 19.62C10.5506 19.62 11.6699 18.5007 11.6699 17.12C11.6699 15.7393 10.5506 14.62 9.16992 14.62C7.78921 14.62 6.66992 15.7393 6.66992 17.12C6.66992 18.5007 7.78921 19.62 9.16992 19.62Z" stroke="#DF4C55" stroke-width="2" stroke-miterlimit="10" stroke-linecap="round" stroke-linejoin="round"/>
<path d="M17.75 19.62C19.1307 19.62 20.25 18.5007 20.25 17.12C20.25 15.7393 19.1307 14.62 17.75 14.62C16.3693 14.62 15.25 15.7393 15.25 17.12C15.25 18.5007 16.3693 19.62 17.75 19.62Z" stroke="#DF4C55" stroke-width="2" stroke-miterlimit="10" stroke-linecap="round" stroke-linejoin="round"/>
<path d="M26.3298 19.62C27.7105 19.62 28.8298 18.5007 28.8298 17.12C28.8298 15.7393 27.7105 14.62 26.3298 14.62C24.9491 14.62 23.8298 15.7393 23.8298 17.12C23.8298 18.5007 24.9491 19.62 26.3298 19.62Z" stroke="#DF4C55" stroke-width="2" stroke-miterlimit="10" stroke-linecap="round" stroke-linejoin="round"/>
<path d="M61 56.15C63.0931 56.15 64.79 54.4532 64.79 52.36C64.79 50.2668 63.0931 48.57 61 48.57C58.9068 48.57 57.21 50.2668 57.21 52.36C57.21 54.4532 58.9068 56.15 61 56.15Z" stroke="#DF4C55" stroke-width="2" stroke-miterlimit="10" stroke-linecap="round" stroke-linejoin="round"/>
<path d="M70.53 53.78V50.95L68.08 50.69C67.9 49.93 67.6 49.21 67.2 48.56L68.75 46.64L66.75 44.64L64.83 46.19C64.18 45.79 63.46 45.49 62.7 45.31L62.44 42.86H59.61L59.35 45.31C58.59 45.49 57.87 45.79 57.22 46.19L55.3 44.64L53.3 46.64L54.85 48.56C54.45 49.21 54.15 49.93 53.97 50.69L51.52 50.95V53.78L53.97 54.04C54.15 54.8 54.45 55.52 54.85 56.17L53.3 58.09L55.3 60.09L57.22 58.54C57.87 58.94 58.59 59.24 59.35 59.42L59.61 61.87H62.44L62.7 59.42C63.46 59.24 64.18 58.94 64.83 58.54L66.75 60.09L68.75 58.09L67.2 56.17C67.6 55.52 67.9 54.8 68.08 54.04L70.53 53.78Z" stroke="#DF4C55" stroke-width="2" stroke-miterlimit="10" stroke-linecap="round" stroke-linejoin="round"/>
<path d="M28.1699 28.6H7.66992V35.77H28.1699V28.6Z" stroke="#DF4C55" stroke-width="2" stroke-miterlimit="10" stroke-linecap="round" stroke-linejoin="round"/>
<path d="M39.9199 28.6H33.1699V50.77H39.9199V28.6Z" stroke="#DF4C55" stroke-width="2" stroke-miterlimit="10" stroke-linecap="round" stroke-linejoin="round"/>
<path d="M28.1699 40.1H7.66992V50.77H28.1699V40.1Z" stroke="#DF4C55" stroke-width="2" stroke-miterlimit="10" stroke-linecap="round" stroke-linejoin="round"/>
</svg>
