<svg width="80" height="80" viewBox="0 0 80 80" fill="none" xmlns="http://www.w3.org/2000/svg">
<path d="M64.6 19.4236C64.6326 18.7116 64.5652 17.9985 64.4 17.3055L66.9 16.3977C66.6411 14.8635 66.0983 13.3922 65.3 12.0605L62.8 13.0692C61.9098 11.6487 60.7552 10.4156 59.4 9.43804L60.5 7.01729C59.2228 6.19939 57.8443 5.55503 56.4 5.10086L55.3 7.62248C54.3806 7.41723 53.4415 7.31574 52.5 7.31988C51.7941 7.287 51.0871 7.35492 50.4 7.52161L49.4 5C47.9154 5.27971 46.4928 5.82635 45.2 6.61383L46.2 9.13545C44.7962 9.99753 43.5733 11.1283 42.6 12.464L40.2 11.4553C39.3488 12.7209 38.7071 14.1176 38.3 15.5908L40.8 16.7003C40.5693 17.5908 40.4351 18.5039 40.4 19.4236C40.4125 20.1673 40.4793 20.9089 40.6 21.6426L38.1 22.5504C38.4568 24.0711 39.0294 25.5319 39.8 26.8876L42.3 25.879C43.1547 27.2948 44.2757 28.5284 45.6 29.5101L44.6 31.9308C45.8771 32.7487 47.2557 33.3931 48.7 33.8473L49.8 31.3256C50.6863 31.5259 51.5917 31.6274 52.5 31.6282C53.2391 31.6666 53.9798 31.5987 54.7 31.4265L55.6 33.9481C57.0846 33.6684 58.5072 33.1218 59.8 32.3343L58.9 29.8127C60.3307 28.9442 61.5587 27.7744 62.5 26.3833L64.9 27.4928C65.7192 26.2223 66.3272 24.8255 66.7 23.3573L64.3 22.2478C64.5035 21.3206 64.6041 20.3733 64.6 19.4236V19.4236ZM52.5 25.9798C51.2144 25.9798 49.9577 25.5953 48.8888 24.8749C47.8199 24.1545 46.9867 23.1306 46.4948 21.9326C46.0028 20.7346 45.8741 19.4164 46.1249 18.1446C46.3757 16.8728 46.9947 15.7046 47.9038 14.7877C48.8128 13.8708 49.971 13.2464 51.2319 12.9934C52.4928 12.7404 53.7997 12.8703 54.9874 13.3665C56.1751 13.8627 57.1903 14.703 57.9045 15.7812C58.6188 16.8594 59 18.1269 59 19.4236C59 20.2846 58.8319 21.1371 58.5052 21.9326C58.1785 22.728 57.6998 23.4508 57.0962 24.0596C56.4926 24.6684 55.776 25.1513 54.9874 25.4808C54.1988 25.8102 53.3536 25.9798 52.5 25.9798V25.9798Z" stroke="#DF4C55" stroke-width="3" stroke-linecap="round" stroke-linejoin="round"/>
<path d="M6.80002 64.1066V27.1902C6.78599 26.8155 6.84881 26.4419 6.98456 26.0929C7.12031 25.7438 7.32605 25.4268 7.58891 25.1617C7.85176 24.8965 8.16606 24.689 8.51213 24.5521C8.85819 24.4152 9.22855 24.3518 9.60002 24.366H34.9" stroke="#DF4C55" stroke-width="3" stroke-linecap="round" stroke-linejoin="round"/>
<path d="M70.4 24.366C70.7715 24.3518 71.1419 24.4152 71.4879 24.5521C71.834 24.689 72.1483 24.8965 72.4111 25.1617C72.674 25.4268 72.8797 25.7438 73.0155 26.0929C73.1512 26.4419 73.2141 26.8155 73.2 27.1902V64.1066" stroke="#DF4C55" stroke-width="3" stroke-linecap="round" stroke-linejoin="round"/>
<path d="M2 68.7464H78V69.3516C78 70.8496 77.41 72.2863 76.3598 73.3456C75.3096 74.4049 73.8852 75 72.4 75H7.6C6.11479 75 4.69041 74.4049 3.6402 73.3456C2.59 72.2863 2 70.8496 2 69.3516V68.7464Z" stroke="#DF4C55" stroke-width="3" stroke-linecap="round" stroke-linejoin="round"/>
<path d="M6.80005 32.9395H37.4001" stroke="#DF4C55" stroke-width="3" stroke-linecap="round" stroke-linejoin="round"/>
<path d="M69 32.9395H73.2" stroke="#DF4C55" stroke-width="3" stroke-linecap="round" stroke-linejoin="round"/>
<path d="M12.2 30.1153C12.918 30.1153 13.5 29.5282 13.5 28.804C13.5 28.0799 12.918 27.4928 12.2 27.4928C11.4821 27.4928 10.9 28.0799 10.9 28.804C10.9 29.5282 11.4821 30.1153 12.2 30.1153Z" fill="#DF4C55"/>
<path d="M18.3 30.1153C19.018 30.1153 19.6 29.5282 19.6 28.804C19.6 28.0799 19.018 27.4928 18.3 27.4928C17.582 27.4928 17 28.0799 17 28.804C17 29.5282 17.582 30.1153 18.3 30.1153Z" fill="#DF4C55"/>
<path d="M24.3 30.1153C25.018 30.1153 25.6 29.5282 25.6 28.804C25.6 28.0799 25.018 27.4928 24.3 27.4928C23.582 27.4928 23 28.0799 23 28.804C23 29.5282 23.582 30.1153 24.3 30.1153Z" fill="#DF4C55"/>
<path d="M22.1 39.7983H32.6V37.2767L38.4001 43.026L32.6 48.8761V46.2536H13.8" stroke="#DF4C55" stroke-width="3" stroke-linecap="round" stroke-linejoin="round"/>
<path d="M18.6 41.3113C19.318 41.3113 19.9 40.7242 19.9 40C19.9 39.2758 19.318 38.6888 18.6 38.6888C17.8821 38.6888 17.3 39.2758 17.3 40C17.3 40.7242 17.8821 41.3113 18.6 41.3113Z" fill="#DF4C55"/>
<path d="M14.7 41.3113C15.418 41.3113 16 40.7242 16 40C16 39.2758 15.418 38.6888 14.7 38.6888C13.9821 38.6888 13.4 39.2758 13.4 40C13.4 40.7242 13.9821 41.3113 14.7 41.3113Z" fill="#DF4C55"/>
<path d="M29.3 53.1124H41.8V50.4899L47.5 56.3401L41.8 62.0894V59.5677H23" stroke="#DF4C55" stroke-width="3" stroke-linecap="round" stroke-linejoin="round"/>
<path d="M25.2 54.5245C25.918 54.5245 26.5 53.9375 26.5 53.2133C26.5 52.4891 25.918 51.902 25.2 51.902C24.4821 51.902 23.9 52.4891 23.9 53.2133C23.9 53.9375 24.4821 54.5245 25.2 54.5245Z" fill="#DF4C55"/>
<path d="M21.5 54.5245C22.2179 54.5245 22.7999 53.9375 22.7999 53.2133C22.7999 52.4891 22.2179 51.902 21.5 51.902C20.782 51.902 20.2 52.4891 20.2 53.2133C20.2 53.9375 20.782 54.5245 21.5 54.5245Z" fill="#DF4C55"/>
<path d="M17.8 54.5245C18.518 54.5245 19.1 53.9375 19.1 53.2133C19.1 52.4891 18.518 51.902 17.8 51.902C17.082 51.902 16.5 52.4891 16.5 53.2133C16.5 53.9375 17.082 54.5245 17.8 54.5245Z" fill="#DF4C55"/>
</svg>
