<svg width="80" height="80" viewBox="0 0 80 80" fill="none" xmlns="http://www.w3.org/2000/svg">
<path d="M57.4001 29.6C52.9001 25.1 47.1 22.6 40.8 22.3V18.5H52.8C53.2001 18.5 53.6 18.3 53.8 17.9C54 17.5 54 17.1 53.7001 16.8L50.9001 12.8L53.7001 8.79998C53.9001 8.49998 54 7.99998 53.8 7.69998C53.6 7.29998 53.2001 7.09998 52.8 7.09998H39.8C39.2 7.09998 38.7001 7.59998 38.7001 8.19998V22.4C32.4001 22.7 26.6 25.2 22.1 29.7C17.4 34.4 14.8 40.7 14.8 47.4C14.8 54.1 17.4 60.4 22.1 65.1C26.8 69.8 33.1 72.4 39.8 72.4C46.5 72.4 52.8 69.8 57.5 65.1C62.2001 60.4 64.8001 54.1 64.8001 47.4C64.8001 40.7 62.1001 34.3 57.4001 29.6ZM40.8 9.29998H50.7001L48.6 12.2C48.3 12.6 48.3 13.1 48.6 13.5L50.7001 16.4H40.8V9.29998ZM29.7 26.8C28.9 28.7 28.1 30.8 27.6 33C25.9 32.4 24.5 31.8 23.6 31.1C25.4 29.4 27.4 27.9 29.7 26.8ZM22.1 32.8C23.3 33.7 25 34.5 27 35.2C26.3 38.6 25.9 42.4 25.8 46.2H17C17.2 41.1 19.1 36.5 22.1 32.8ZM17 48.4H25.9C26 52.3 26.4 56 27.1 59.4C25 60 23.3 60.8 22.2 61.8C19.1 58.1 17.2 53.5 17 48.4ZM23.6 63.4C24.5 62.7 25.8 62.1 27.6 61.5C28.2 63.8 28.9 65.9 29.7 67.7C27.4 66.7 25.4 65.2 23.6 63.4ZM38.7001 70.1C36.6 70 34.7 69.6 32.8 69C31.5 66.8 30.5 64 29.7 61C32.2001 60.4 35.2001 60 38.7001 60V70.1ZM38.7001 57.8C35.2001 57.9 32 58.3 29.2 58.9C28.5 55.6 28.1 52.1 28.1 48.4H38.7001V57.8ZM38.7001 46.2H28.1C28.2 42.6 28.6 39 29.2 35.7C32 36.3 35.2001 36.7 38.7001 36.8V46.2ZM38.7001 34.7C35.2001 34.6 32.2001 34.2 29.7 33.7C30.5 30.6 31.5 27.9 32.8 25.7C34.7 25.1 36.7001 24.7 38.7001 24.6V34.7ZM62.5 46.2H53.6C53.5 42.3 53.1001 38.6 52.4001 35.2C54.5 34.6 56.2001 33.8 57.3 32.8C60.4 36.5 62.3 41.1 62.5 46.2ZM55.9001 31.2C55 31.9 53.7001 32.5 51.9001 33.1C51.3001 30.8 50.6 28.7 49.8 26.9C52.1 27.9 54.1001 29.4 55.9001 31.2ZM40.8 24.5C42.9 24.6 44.8001 25 46.7001 25.6C48 27.8 49 30.6 49.8 33.6C47.3 34.2 44.3 34.6 40.8 34.6V24.5ZM40.8 36.8C44.3 36.7 47.5 36.3 50.3 35.7C51 39 51.4001 42.5 51.4001 46.2H40.8V36.8ZM40.8 48.4H51.4001C51.3001 52 50.9 55.6 50.3 58.9C47.5 58.3 44.3 57.9 40.8 57.8V48.4ZM40.8 70.1V59.9C44.3 60 47.3 60.4 49.8 60.9C49 64 48 66.8 46.8 69C44.9 69.6 42.9 70 40.8 70.1ZM49.8 67.8C50.6 65.9 51.4001 63.8 51.9001 61.6C53.6001 62.2 55 62.8 55.9001 63.5C54.1001 65.2 52.1 66.7 49.8 67.8ZM57.4001 61.8C56.2001 60.9 54.5 60.1 52.5 59.4C53.2001 56 53.6001 52.2 53.7001 48.4H62.6C62.3 53.5 60.4001 58.1 57.4001 61.8Z" fill="#DF4C55"/>
</svg>
