<svg width="80" height="80" viewBox="0 0 80 80" fill="none" xmlns="http://www.w3.org/2000/svg">
<path fill-rule="evenodd" clip-rule="evenodd" d="M23.2683 3.25C20.524 3.25 18.25 5.53519 18.25 8.41558V71.5844C18.25 74.4648 20.524 76.75 23.2683 76.75H56.7317C59.476 76.75 61.75 74.4648 61.75 71.5844V8.41558C61.75 5.53519 59.476 3.25 56.7317 3.25H23.2683ZM15.75 8.41558C15.75 4.20952 19.0889 0.75 23.2683 0.75H56.7317C60.9111 0.75 64.25 4.20952 64.25 8.41558V71.5844C64.25 75.7905 60.9111 79.25 56.7317 79.25H23.2683C19.0889 79.25 15.75 75.7905 15.75 71.5844V8.41558Z" fill="#159570"/>
<path fill-rule="evenodd" clip-rule="evenodd" d="M36.1945 9.79736C36.1945 9.10701 36.7542 8.54736 37.4445 8.54736H50.5598C51.2502 8.54736 51.8098 9.10701 51.8098 9.79736C51.8098 10.4877 51.2502 11.0474 50.5598 11.0474H37.4445C36.7542 11.0474 36.1945 10.4877 36.1945 9.79736Z" fill="#159570"/>
<path d="M31.3689 11.6726C32.3808 11.6726 33.2012 10.833 33.2012 9.79732C33.2012 8.76161 32.3808 7.922 31.3689 7.922C30.357 7.922 29.5366 8.76161 29.5366 9.79732C29.5366 10.833 30.357 11.6726 31.3689 11.6726Z" fill="#159570"/>
<path d="M29.5368 72.7689C30.5487 72.7689 31.369 71.9293 31.369 70.8936C31.369 69.8579 30.5487 69.0182 29.5368 69.0182C28.5248 69.0182 27.7045 69.8579 27.7045 70.8936C27.7045 71.9293 28.5248 72.7689 29.5368 72.7689Z" fill="#159570"/>
<path d="M40.0482 72.7689C41.0602 72.7689 41.8805 71.9293 41.8805 70.8936C41.8805 69.8579 41.0602 69.0182 40.0482 69.0182C39.0363 69.0182 38.2159 69.8579 38.2159 70.8936C38.2159 71.9293 39.0363 72.7689 40.0482 72.7689Z" fill="#159570"/>
<path d="M50.5598 72.7689C51.5717 72.7689 52.392 71.9293 52.392 70.8936C52.392 69.8579 51.5717 69.0182 50.5598 69.0182C49.5478 69.0182 48.7275 69.8579 48.7275 70.8936C48.7275 71.9293 49.5478 72.7689 50.5598 72.7689Z" fill="#159570"/>
<path fill-rule="evenodd" clip-rule="evenodd" d="M31.8548 60.1351C31.8548 59.4448 32.4144 58.8851 33.1048 58.8851H47.3773C48.0677 58.8851 48.6273 59.4448 48.6273 60.1351C48.6273 60.8255 48.0677 61.3851 47.3773 61.3851H33.1048C32.4144 61.3851 31.8548 60.8255 31.8548 60.1351Z" fill="#159570"/>
<path fill-rule="evenodd" clip-rule="evenodd" d="M41.387 23.1552C42.2551 23.1403 43.1167 23.304 43.9204 23.6357C44.7279 23.969 45.4594 24.4648 46.072 25.0918C46.6846 25.7188 47.1657 26.464 47.4882 27.2824C47.8092 28.0971 47.9668 28.9685 47.9523 29.8452C47.9493 31.6032 47.266 33.2941 46.0429 34.5459C46.041 34.5479 46.0391 34.5498 46.0373 34.5517C47.0254 34.9454 47.9319 35.5462 48.6934 36.3257C50.1363 37.8024 50.9418 39.7992 50.9418 41.8754C50.9418 43.9515 50.1363 45.9483 48.6934 47.425C47.2497 48.9027 45.2852 49.7383 43.2306 49.7383H31.9476C31.2572 49.7383 30.6976 49.1787 30.6976 48.4883C30.6976 47.798 31.2572 47.2383 31.9476 47.2383H43.2306C44.6032 47.2383 45.9256 46.6805 46.9053 45.6779C47.8859 44.6742 48.4418 43.307 48.4418 41.8754C48.4418 40.4438 47.8859 39.0765 46.9053 38.0728C45.9256 37.0702 44.6032 36.5124 43.2306 36.5124H41.3983C40.708 36.5124 40.1483 35.9527 40.1483 35.2624C40.1483 34.572 40.708 34.0124 41.3983 34.0124C42.464 34.0124 43.4921 33.5794 44.2547 32.7988C45.0183 32.0173 45.4523 30.9513 45.4523 29.8338L45.4525 29.811C45.4626 29.2584 45.3636 28.71 45.1622 28.1989C44.9609 27.6879 44.6616 27.2256 44.2839 26.8389C43.9062 26.4524 43.4578 26.1494 42.9665 25.9466C42.4752 25.7438 41.9501 25.6449 41.4222 25.655L41.3983 25.6552H31.9476C31.2572 25.6552 30.6976 25.0956 30.6976 24.4052C30.6976 23.7149 31.2572 23.1552 31.9476 23.1552H41.387Z" fill="#159570"/>
<path fill-rule="evenodd" clip-rule="evenodd" d="M34.455 19.5032C35.1453 19.5032 35.705 20.0628 35.705 20.7532V51.0545C35.705 51.7448 35.1453 52.3045 34.455 52.3045C33.7646 52.3045 33.205 51.7448 33.205 51.0545V20.7532C33.205 20.0628 33.7646 19.5032 34.455 19.5032Z" fill="#159570"/>
<path fill-rule="evenodd" clip-rule="evenodd" d="M43.6164 19.5032C44.3068 19.5032 44.8664 20.0628 44.8664 20.7532V24.4051C44.8664 25.0955 44.3068 25.6551 43.6164 25.6551C42.926 25.6551 42.3664 25.0955 42.3664 24.4051V20.7532C42.3664 20.0628 42.926 19.5032 43.6164 19.5032Z" fill="#159570"/>
<path fill-rule="evenodd" clip-rule="evenodd" d="M43.6164 47.2383C44.3068 47.2383 44.8664 47.7979 44.8664 48.4883V51.0545C44.8664 51.7449 44.3068 52.3045 43.6164 52.3045C42.926 52.3045 42.3664 51.7449 42.3664 51.0545V48.4883C42.3664 47.7979 42.926 47.2383 43.6164 47.2383Z" fill="#159570"/>
</svg>
