<svg width="80" height="80" viewBox="0 0 80 80" fill="none" xmlns="http://www.w3.org/2000/svg">
<path d="M50.6 60.9H17.1V18.7H50.6V21C50.6 21.5 51 21.9 51.5 21.9C52 21.9 52.4 21.5 52.4 21V13.3C52.4 10.1 49.8 7.59998 46.7 7.59998H21.1C17.9 7.59998 15.4 10.2 15.4 13.3V66.7C15.4 69.9 18 72.4 21.1 72.4H46.5C49.7 72.4 52.2 69.8 52.2 66.7V60C52.2 59.5 51.8 59.1 51.3 59.1C50.8 59.1 50.4 59.5 50.4 60V60.9H50.6ZM21.1 9.19998H46.5C48.7 9.19998 50.5 11 50.5 13.2V17H17.1V13.3C17.1 11 18.9 9.19998 21.1 9.19998ZM46.5 70.6H21.1C18.9 70.6 17.1 68.8 17.1 66.6V62.6H50.6V66.6C50.6 68.8 48.8 70.6 46.5 70.6Z" fill="#DF4C55"/>
<path d="M33 14.5999H41.5C42 14.5999 42.4 14.1999 42.4 13.6999C42.4 13.1999 42 12.7999 41.5 12.7999H33C32.5 12.7999 32.1 13.1999 32.1 13.6999C32.1 14.1999 32.5 14.5999 33 14.5999Z" fill="#DF4C55"/>
<path d="M28.8 14.6C29.2418 14.6 29.6 14.2418 29.6 13.8C29.6 13.3582 29.2418 13 28.8 13C28.3582 13 28 13.3582 28 13.8C28 14.2418 28.3582 14.6 28.8 14.6Z" fill="#DF4C55"/>
<path d="M58.7999 21.0999C58.3999 20.6999 57.7999 20.6999 57.2999 21.0999C56.8999 21.4999 56.8999 22.0999 57.2999 22.5999C66.8999 32.7999 66.5999 48.5999 56.6999 58.4999C56.2999 58.8999 56.2999 59.5999 56.6999 59.9999C56.8999 60.1999 57.1999 60.2999 57.3999 60.2999C57.6999 60.2999 57.8999 60.1999 58.0999 59.9999C63.1999 54.8999 66.0999 47.9999 66.1999 40.6999C66.3999 33.2999 63.6999 26.3999 58.7999 21.0999Z" fill="#DF4C55"/>
<path d="M53.7001 26.2C53.3001 25.8 52.7001 25.8 52.2001 26.1C51.8001 26.5 51.8001 27.1 52.1001 27.6C58.9001 35 58.6001 46.3 51.5001 53.4C51.1001 53.8 51.1001 54.4 51.5001 54.9C51.7001 55.1 52.0001 55.2 52.2001 55.2C52.5001 55.2 52.7001 55.1 52.9001 54.9C56.7001 51.1 58.9001 46 59.0001 40.7C59.3001 35.2 57.4001 30.1 53.7001 26.2Z" fill="#DF4C55"/>
<path d="M47.6 49.3999C47.2 49.7999 47.2 50.4999 47.6 50.8999C47.8 51.0999 48.1 51.1999 48.3 51.1999C48.6 51.1999 48.8001 51.0999 49.0001 50.8999C54.6 45.2999 54.9 36.2999 49.6 30.3999C49.2 29.9999 48.6001 29.8999 48.2001 30.2999C47.8001 30.6999 47.7 31.2999 48.1 31.6999C52.7 36.6999 52.5 44.4999 47.6 49.3999Z" fill="#DF4C55"/>
<path d="M33.8 68.3C34.7941 68.3 35.6 67.4941 35.6 66.5C35.6 65.5058 34.7941 64.7 33.8 64.7C32.8059 64.7 32 65.5058 32 66.5C32 67.4941 32.8059 68.3 33.8 68.3Z" fill="#DF4C55"/>
<path d="M27.8 35.5999C27.1 34.9999 26.1 34.7 24.7 34.7C23.6 34.7 22.7 34.8 22 34.9V45.7H23.4V41.2999C23.7 41.3999 24.1 41.4 24.5 41.4C25.9 41.4 27.1 41 27.9 40.2C28.5 39.6 28.7 38.8 28.7 37.9C28.7 36.9 28.4 36.0999 27.8 35.5999ZM24.6 40.2999C24.1 40.2999 23.7 40.3 23.4 40.2V36C23.6 35.9 24.1 35.9 24.7 35.9C26.3 35.9 27.3 36.6 27.3 38C27.3 39.5 26.3 40.2999 24.6 40.2999Z" fill="#DF4C55"/>
<path d="M31.1 42.2999H35L36.2 45.7H37.7L34 34.7H32.3L28.6 45.7H30.1L31.1 42.2999ZM32.4 38C32.6 37.3 32.8 36.7 33 36C33.2 36.6 33.3 37.3 33.6 38L34.7 41.2H31.4L32.4 38Z" fill="#DF4C55"/>
<path d="M41.8 45.7999V41.0999L45.5 34.7999H43.9L42.3 37.7999C41.9 38.5999 41.5 39.2999 41.2 40.0999C40.9 39.2999 40.5 38.6999 40.1 37.7999L38.6 34.7999H37L40.5 41.0999V45.7999H41.8Z" fill="#DF4C55"/>
</svg>
