<svg width="80" height="80" viewBox="0 0 80 80" fill="none" xmlns="http://www.w3.org/2000/svg">
<path fill-rule="evenodd" clip-rule="evenodd" d="M39.9001 70.3L40.3 70.4L40.7001 70.3C43.2001 69.3 45.6 68.1 47.7001 66.8C49.9001 65.5 51.8 64.2 53.6 62.7C55 61.5 56.3001 60.2 57.4001 58.9C58.5 57.6 59.5 56.2 60.4001 54.8C61.4001 53.1 62.1 51.6 62.5 50.3C63.4001 47.8 63.5 46.1 63.5 46V20.7V19.8H62.6C62.6 19.8 61.2001 19.8 59.2001 19.5C58.1001 19.3 56.9001 19.1 55.5 18.8C53.3 18.3 50.6001 17.4 47.7001 15.9C45.5 14.8 43.2001 13.3 41 11.5L40.4001 11L39.8 11.5C37.6 13.4 35.3 14.8 33.1 15.9C30.2 17.4 27.5 18.3 25.3 18.8C23.9 19.2 22.7 19.4 21.6 19.5C19.5001 19.8 18.2001 19.8 18.2001 19.8H17.3V46C17.3 46.1 17.4 47.8 18.3 50.3C18.8 51.6 19.4 53.2 20.4 54.8C21.2 56.2 22.2 57.6 23.4 58.9C24.5 60.2 25.8001 61.5 27.2001 62.7C29.0001 64.2 30.9 65.6 33.1 66.8C35 68.1 37.4001 69.3 39.9001 70.3ZM19.9 50C19.1 47.7 19 46.2 19 46V21.8V21.5H19.3C20 21.4 21.1 21.3 22.4 21.1C23.3 20.9 24.4001 20.7 25.6 20.4C27.8 19.9 30.5 19 33.3 17.6C35.5 16.5 37.8 15.1 40.1 13.4L40.3 13.2L40.5 13.4C42.7001 15.2 45 16.6 47.3 17.6C50.2001 19 52.9001 19.9 55 20.4C56.4001 20.7 57.6001 21 58.7001 21.1C59.8 21.3 60.7001 21.4 61.3 21.4H61.6V21.7V46C61.6 46.2 61.5 47.7 60.7001 49.9C60.3 51.1 59.7001 52.4 58.8 53.9C57.4 56.3 55.1001 59.2 51.4001 62.1C48.6001 64.3 45.0001 66.5 40.4001 68.4H40.3H40.2001C35.6 66.5 32.1 64.3 29.3 62.1C25.7 59.2 23.4 56.4 22 54C21 52.5 20.4 51.2 19.9 50Z" fill="#DF4C55"/>
<path fill-rule="evenodd" clip-rule="evenodd" d="M53.9999 24.2001C53.9999 23.6001 54.5999 23.1001 55.1999 23.2001C57.0999 23.5001 58.2999 23.5001 58.2999 23.5001H59.2999V24.5001V45.0001C59.2999 45.1001 59.1999 48.3001 56.7999 52.3001C55.3999 54.6001 53.4999 56.8001 51.1999 58.7001C48.2999 61.1001 44.7999 63.2001 40.6999 64.9001L40.3999 65.0001C40.3999 63.7001 41.1999 62.5001 42.2999 61.9001C49.4999 58.4001 53.1999 54.2001 54.9999 51.2001C57.0999 47.7001 57.1999 45.1001 57.1999 44.9001V25.5001C56.5999 25.5001 55.7999 25.4001 54.6999 25.2001C54.2999 25.1001 53.9999 24.7001 53.9999 24.2001Z" fill="#DF4C55"/>
<path fill-rule="evenodd" clip-rule="evenodd" d="M21.9999 46.2C21.4999 46.2 21.0999 45.8 20.9999 45.4C20.8999 44.9 20.8999 44.5 20.8999 44.5V23.5H21.8999C21.8999 23.5 24.1999 23.5 27.4999 22.7C30.4999 21.9 34.7999 20.3 38.7999 17L39.3999 16.5V16.6C39.3999 18.2 38.5999 19.8 37.1999 20.7C33.7999 22.9 30.3999 24.1 27.8999 24.7C25.6999 25.3 23.8999 25.5 22.8999 25.5V44.6C22.8999 44.6 22.8999 44.9 22.9999 45.2C23.0999 45.7 22.5999 46.2 21.9999 46.2Z" fill="#DF4C55"/>
<path fill-rule="evenodd" clip-rule="evenodd" d="M34.3 32.2V40H37.1V32.2C37.1 30.4 38.6001 28.9 40.4001 28.9C42.2001 28.9 43.7001 30.4 43.7001 32.2V40H46.5V32.2C46.5 28.9 43.8001 26.1 40.4001 26.1C37.1001 26.2 34.3 28.9 34.3 32.2Z" fill="#DF4C55"/>
<path fill-rule="evenodd" clip-rule="evenodd" d="M31.3 38.9H49.2001V52H49.1C48.7 53.5 44.9001 54.7 40.2001 54.7C35.6001 54.7 31.7 53.5 31.3 52V51.7V38.9Z" fill="#DF4C55"/>
<path fill-rule="evenodd" clip-rule="evenodd" d="M40.3001 42.2C41.3001 42.2 42.2001 42.9999 42.2001 44.0999C42.2001 44.8999 41.7001 45.4999 41.1001 45.7999L41.2001 46.2999L42.1001 50H40.4001H38.7001L39.6001 46.2999L39.7001 45.7999C39.0001 45.4999 38.6001 44.8999 38.6001 44.0999C38.4001 42.9999 39.3001 42.2 40.3001 42.2Z" fill="white"/>
</svg>
