<svg width="56" height="56" viewBox="0 0 56 56" fill="none" xmlns="http://www.w3.org/2000/svg">
<path d="M46.7274 23.4741H33.111C31.8559 23.4741 30.8384 24.4872 30.8384 25.737V38.1689C30.8384 39.4187 31.8559 40.4318 33.111 40.4318H46.7274C47.9825 40.4318 49 39.4187 49 38.1689V25.737C49 24.4872 47.9825 23.4741 46.7274 23.4741Z" stroke="#DF4C55" stroke-width="2.35" stroke-miterlimit="10"/>
<path d="M45.6054 23.4741V18.9578C45.6054 17.4586 45.0073 16.0208 43.9427 14.9608C42.8781 13.9007 41.4342 13.3052 39.9287 13.3052C38.4231 13.3052 36.9792 13.9007 35.9146 14.9608C34.85 16.0208 34.252 17.4586 34.252 18.9578V23.4741" stroke="#DF4C55" stroke-width="2.35" stroke-miterlimit="10"/>
<path d="M39.9287 35.9156V31.3896" stroke="#DF4C55" stroke-width="2.35" stroke-miterlimit="10"/>
<path d="M19.4946 49.4741H27.4343" stroke="#DF4C55" stroke-width="2.35" stroke-miterlimit="10"/>
<path d="M7 44.9578H39.9289V50.6104C39.9263 51.5102 39.5655 52.3724 38.9256 53.0078C38.2856 53.6432 37.4188 54 36.5151 54H10.4041C9.50206 53.9975 8.6377 53.6395 7.99986 53.0044C7.36202 52.3693 7.00255 51.5086 7 50.6104V5.35111C7.01268 4.45961 7.37661 3.60875 8.01336 2.98191C8.65011 2.35507 9.5087 2.00244 10.4041 2H36.5151C37.4188 2 38.2856 2.35681 38.9256 2.99221C39.5655 3.62762 39.9263 4.48976 39.9289 5.38963V8.74074H7.04835" stroke="#DF4C55" stroke-width="2.35" stroke-miterlimit="10"/>
</svg>
