<svg width="80" height="80" viewBox="0 0 80 80" fill="none" xmlns="http://www.w3.org/2000/svg">
<path d="M39.4001 68.2001C31.7001 68.2001 26.7 67.0001 23.4 64.3001C20.2 61.7001 18.7001 57.6001 18.7001 51.4001C18.7001 39.9001 24.6 31.9001 29.8 26.2001C29.9 26.1001 29.9 25.9001 29.9 25.8001C29.9 25.7001 29.8 25.5001 29.6 25.5001C28.7001 25.0001 27.8 24.8001 26.8 24.8001H26.7001C24.1001 24.8001 21.4001 26.3001 18.6 29.2001C18.3001 29.5001 18 29.6001 17.6 29.6001C17.3001 29.6001 16.9001 29.5001 16.7001 29.2001C16.4001 29.0001 16.3 28.6001 16.3 28.3001C16.3 27.9001 16.4001 27.6001 16.7001 27.4001C20.1001 23.9001 23.4001 22.2001 26.7001 22.2001C26.8001 22.2001 26.9 22.2001 26.9 22.2001C30.7 22.3001 33 24.8001 33.1 24.9001C33.6 25.4001 33.5 26.2001 33.1 26.7001C27.3 32.8001 21.4 40.5001 21.4 51.6001C21.4 55.3001 21.8 59.5001 24.8 62.2001C27.5 64.6001 32.1001 65.8001 39.4001 65.8001C46.7001 65.8001 51.3 64.7001 54 62.2001C57 59.5001 57.4001 55.3001 57.4001 51.6001C57.4001 40.6001 51.5 32.8001 45.7001 26.7001C45.2001 26.2001 45.2001 25.4001 45.7001 24.9001C45.8001 24.8001 48.1001 22.3001 51.9001 22.2001C52 22.2001 52.1001 22.2001 52.2001 22.2001C55.5 22.2001 58.8 24.0001 62.2001 27.4001C62.4001 27.7001 62.6 28.0001 62.6 28.3001C62.6 28.7001 62.5 29.0001 62.2001 29.2001C62 29.4001 61.6 29.6001 61.3 29.6001C60.9 29.6001 60.6 29.5001 60.3 29.2001C57.5 26.3001 54.7001 24.8001 52 24.8001C51 24.8001 50.1001 25.1001 49.2001 25.5001C49.1001 25.6001 49 25.7001 48.9001 25.8001C48.9001 25.9001 48.9001 26.1001 49 26.2001C54.2001 31.9001 60.1 39.9001 60.1 51.4001C60.1 57.6001 58.6001 61.7001 55.4001 64.3001C52.2001 66.9001 47.1001 68.2001 39.4001 68.2001Z" fill="#DF4C55"/>
<path d="M39.4 21.1C38.7 21.1 38.1 20.5 38.1 19.8C38.1 19.1 38.7 18.5 39.4 18.5H44.8C44.9 18.5 44.9 18.5 45 18.4C47.2 17.3 48.1 15.7 48.6 14.5C48.7 14.4 48.6 14.2 48.5 14.1C48.4 14 48.3 13.9 48.1 13.9H30.7C30.5 13.9 30.4 14 30.3 14.1C30.2 14.2 30.2 14.4 30.2 14.5C30.7 15.8 31.7 17.5 34.1 18.6C34.8 18.9 35.1 19.7 34.8 20.4C34.6 20.9 34.1 21.2 33.6 21.2C33.4 21.2 33.2 21.2 33.1 21.1C28.9 19.2 27.7 15.8 27.4 13.9C27.3 13.3 27.5 12.6 27.9 12.1C28.3 11.6 28.9 11.3 29.6 11.3H49.4C50.1 11.3 50.7 11.6 51.1 12.1C51.5 12.6 51.7 13.3 51.6 13.9C51.3 15.8 50.1 19.2 45.9 21.1C45.9 21.1 45.9 21.1 45.8 21.1C45.6 21.2 45.5 21.2 45.3 21.2C45.3 21.2 45.3 21.2 45.2 21.2H39.4V21.1Z" fill="#DF4C55"/>
<path d="M39.4001 55.5C38.7001 55.5 38.1001 54.9 38.1001 54.2V53.6C38.1001 53.4 37.9001 53.2 37.7001 53.1C35.8001 52.6 34.3001 51.3 33.6001 49.7C33.3001 49 33.7001 48.2 34.3001 48C34.5001 47.9 34.6001 47.9 34.8001 47.9C35.4001 47.9 35.8001 48.2 36.0001 48.7C36.5001 49.9 37.7001 50.6 39.2001 50.6C40.1001 50.6 41.0001 50.3 41.6001 49.7C42.0001 49.3 42.6001 48.7 42.6001 47.7C42.6001 46.1 40.3001 44.9 38.9001 44.4C35.4001 43.1 33.5001 41.1 33.5001 38.6C33.5001 37.1 34.2001 35.7 35.4001 34.6C36.0001 34.1 36.8001 33.6 37.7001 33.4C37.9001 33.3 38.0001 33.2 38.0001 32.9V32.2C38.0001 31.5 38.6001 30.9 39.3001 30.9C40.0001 30.9 40.6001 31.5 40.6001 32.2V33C40.6001 33.2 40.8001 33.4 41.0001 33.5C42.9001 34 44.4001 35.3 45.1001 36.9C45.4001 37.6 45.0001 38.4 44.4001 38.6C44.2001 38.7 44.1001 38.7 43.9001 38.7C43.3001 38.7 42.9001 38.4 42.7001 37.9C42.2001 36.7 41.0001 36 39.5001 36C38.6001 36 37.7001 36.3 37.1001 36.9C36.7001 37.3 36.1001 37.9 36.1001 38.9C36.1001 40.5 38.4001 41.7 39.8001 42.2C43.3001 43.5 45.2001 45.5 45.2001 48C45.2001 49.5 44.5001 50.9 43.3001 52C42.7001 52.5 41.9001 53 41.0001 53.2C40.8001 53.3 40.7001 53.4 40.7001 53.7V54.4C40.7001 54.9 40.2001 55.5 39.4001 55.5Z" fill="#DF4C55"/>
<path d="M47.1 60.9001C46.4 60.9001 45.8 60.3 45.8 59.6C45.8 58.9 46.4 58.3 47.1 58.3C48.8 58.3 51.1 57.5 51.1 50.6C51.1 49.9 51.7001 49.3 52.4001 49.3C53.1001 49.3 53.7001 49.9 53.7001 50.6C53.8001 57.3 51.5 60.9001 47.1 60.9001Z" fill="#DF4C55"/>
</svg>
