<svg width="80" height="80" viewBox="0 0 80 80" fill="none" xmlns="http://www.w3.org/2000/svg">
<path d="M44.88 56.54H7.05C4.26 56.54 2 54.28 2 51.49V16.05C2 13.26 4.26 11 7.05 11H60.13C62.92 11 65.18 13.26 65.18 16.05V36.4" stroke="#DF4C55" stroke-width="2" stroke-miterlimit="10" stroke-linecap="round" stroke-linejoin="round"/>
<path d="M2.41992 23.33H65.1799" stroke="#DF4C55" stroke-width="2" stroke-miterlimit="10" stroke-linecap="round" stroke-linejoin="round"/>
<path d="M61 68.36C69.8366 68.36 77 61.1965 77 52.36C77 43.5234 69.8366 36.36 61 36.36C52.1634 36.36 45 43.5234 45 52.36C45 61.1965 52.1634 68.36 61 68.36Z" stroke="#DF4C55" stroke-width="2" stroke-miterlimit="10" stroke-linecap="round" stroke-linejoin="round"/>
<path d="M9.16992 19.62C10.5506 19.62 11.6699 18.5007 11.6699 17.12C11.6699 15.7393 10.5506 14.62 9.16992 14.62C7.78921 14.62 6.66992 15.7393 6.66992 17.12C6.66992 18.5007 7.78921 19.62 9.16992 19.62Z" stroke="#DF4C55" stroke-width="2" stroke-miterlimit="10" stroke-linecap="round" stroke-linejoin="round"/>
<path d="M17.75 19.62C19.1307 19.62 20.25 18.5007 20.25 17.12C20.25 15.7393 19.1307 14.62 17.75 14.62C16.3693 14.62 15.25 15.7393 15.25 17.12C15.25 18.5007 16.3693 19.62 17.75 19.62Z" stroke="#DF4C55" stroke-width="2" stroke-miterlimit="10" stroke-linecap="round" stroke-linejoin="round"/>
<path d="M26.3298 19.62C27.7105 19.62 28.8298 18.5007 28.8298 17.12C28.8298 15.7393 27.7105 14.62 26.3298 14.62C24.9491 14.62 23.8298 15.7393 23.8298 17.12C23.8298 18.5007 24.9491 19.62 26.3298 19.62Z" stroke="#DF4C55" stroke-width="2" stroke-miterlimit="10" stroke-linecap="round" stroke-linejoin="round"/>
<path d="M66.6503 57.05V51.64C66.6503 48.55 64.2703 45.85 61.1803 45.76C57.9803 45.66 55.3603 48.23 55.3603 51.4V57.05C53.9503 57.05 52.8203 58.19 52.8203 59.59V60.52H69.2003V59.6C69.1903 58.19 68.0503 57.05 66.6503 57.05Z" stroke="#DF4C55" stroke-width="2" stroke-miterlimit="10" stroke-linecap="round" stroke-linejoin="round"/>
<path d="M59.0503 45.9V43.67C59.0503 42.59 59.9303 41.72 61.0003 41.72C62.0803 41.72 62.9503 42.6 62.9503 43.67V45.9" stroke="#DF4C55" stroke-width="2" stroke-miterlimit="10" stroke-linecap="round" stroke-linejoin="round"/>
<path d="M19.0602 27.98L9.49023 44.56H28.6302L19.0602 27.98Z" stroke="#DF4C55" stroke-width="2" stroke-miterlimit="10" stroke-linecap="round" stroke-linejoin="round"/>
<path d="M19.0603 34.62V37.79" stroke="#DF4C55" stroke-width="2" stroke-miterlimit="10" stroke-linecap="round" stroke-linejoin="round"/>
<path d="M19.0603 40.83V41.65" stroke="#DF4C55" stroke-width="2" stroke-miterlimit="10" stroke-linecap="round" stroke-linejoin="round"/>
<path d="M7.37988 50.43H30.7499" stroke="#DF4C55" stroke-width="2" stroke-miterlimit="10" stroke-linecap="round" stroke-linejoin="round"/>
</svg>
