<svg width="80" height="80" viewBox="0 0 80 80" fill="none" xmlns="http://www.w3.org/2000/svg">
<path d="M48.3 36.4H39.5C39 36.4 38.5 36.8 38.5 37.4C38.5 37.9 38.9 38.4 39.5 38.4H48.3C48.8 38.4 49.3 38 49.3 37.4C49.2 36.9 48.8 36.4 48.3 36.4Z" fill="#DF4C55"/>
<path d="M32.3999 33.7H48.2999C48.7999 33.7 49.2999 33.3 49.2999 32.7C49.2999 32.2 48.8999 31.7 48.2999 31.7H32.3999C31.8999 31.7 31.3999 32.1 31.3999 32.7C31.3999 33.3 31.7999 33.7 32.3999 33.7Z" fill="#DF4C55"/>
<path d="M78.2999 33.3L59.2999 21.4C58.6999 21 57.8999 21 57.2999 21.4C56.6999 21.8 56.2999 22.4 56.2999 23.2V26.8H38.3999C37.8999 26.8 37.3999 27.2 37.3999 27.8C37.3999 28.3 37.7999 28.8 38.3999 28.8H57.1999C57.6999 28.8 58.1999 28.4 58.1999 27.8V23.2C58.1999 23.2 58.1999 23.1 58.2999 23.1C58.2999 23.1 58.2999 23.1 58.3999 23.1L77.3999 34.9C77.4999 35 77.4999 35 77.4999 35.1C77.4999 35.2 77.4999 35.2 77.3999 35.3L58.3999 47.1H58.2999C58.1999 47.1 58.1999 47 58.1999 47V42.4C58.1999 41.9 57.7999 41.4 57.1999 41.4H52.3999H29.1999H25.3999V37.8C25.3999 37.1 24.9999 36.4 24.3999 36C23.7999 35.6 22.9999 35.6 22.3999 36L3.3999 47.8C2.7999 48.2 2.3999 48.9 2.3999 49.6C2.3999 50.3 2.7999 51 3.3999 51.4L22.4999 63.3C22.7999 63.5 23.1999 63.6 23.4999 63.6C23.7999 63.6 24.1999 63.5 24.4999 63.3C25.0999 62.9 25.4999 62.3 25.4999 61.5V58H43.2999C43.7999 58 44.2999 57.6 44.2999 57C44.2999 56.5 43.8999 56 43.2999 56H24.3999C23.8999 56 23.3999 56.4 23.3999 57V61.6C23.3999 61.6 23.3999 61.7 23.2999 61.7C23.2999 61.7 23.2999 61.7 23.1999 61.7L4.1999 49.9C4.0999 49.8 4.0999 49.8 4.0999 49.7C4.0999 49.6 4.0999 49.6 4.1999 49.5L23.1999 37.7H23.2999C23.3999 37.7 23.3999 37.8 23.3999 37.8V42.4C23.3999 42.9 23.7999 43.4 24.3999 43.4H29.1999H52.3999H56.1999V47C56.1999 47.7 56.5999 48.4 57.1999 48.8C57.4999 49 57.8999 49.1 58.1999 49.1C58.5999 49.1 58.8999 49 59.1999 48.8L78.1999 37C78.7999 36.6 79.1999 35.9 79.1999 35.2C79.2999 34.3 78.9999 33.7 78.2999 33.3Z" fill="#DF4C55"/>
<path d="M33.2998 48.4H42.0998C42.5998 48.4 43.0998 48 43.0998 47.4C43.0998 46.8 42.6998 46.4 42.0998 46.4H33.2998C32.7998 46.4 32.2998 46.8 32.2998 47.4C32.2998 48 32.7998 48.4 33.2998 48.4Z" fill="#DF4C55"/>
<path d="M49.1998 51.1H33.2998C32.7998 51.1 32.2998 51.5 32.2998 52.1C32.2998 52.6 32.6998 53.1 33.2998 53.1H49.1998C49.6998 53.1 50.1998 52.7 50.1998 52.1C50.1998 51.5 49.7998 51.1 49.1998 51.1Z" fill="#DF4C55"/>
</svg>
