<svg width="80" height="80" viewBox="0 0 80 80" fill="none" xmlns="http://www.w3.org/2000/svg">
<path fill-rule="evenodd" clip-rule="evenodd" d="M17.1 23.7H63.2C66.5 23.7 69.3 26.3999 69.3 29.7999V59.9C69.3 63.2 66.6 66 63.2 66H17.1C13.8 66 11 63.3 11 59.9V29.7999C11.1 26.3999 13.8 23.7 17.1 23.7ZM17.1 25.7999H63.2C65.4 25.7999 67.1 27.6 67.1 29.7V59.7999C67.1 62 65.3 63.7 63.2 63.7H17.1C14.9 63.7 13.2 61.8999 13.2 59.7999V29.7999C13.2 27.5999 15 25.7999 17.1 25.7999Z" fill="#DF4C55"/>
<path d="M68.7001 30.2H11.7001C11.4001 30.2 11.1001 29.9 11.1001 29.6V24.2999C11.1001 23.9999 11.4001 23.7 11.7001 23.7H63.4001C66.6001 23.7 69.3001 26.3 69.3001 29.6C69.3001 29.9 69.0001 30.2 68.7001 30.2Z" fill="#DF4C55"/>
<path d="M31.7001 30.1H12.2001C11.6001 30.1 11.1001 29.7 11.1001 29.1V21.1C11.1001 20.5 11.6001 20.1 12.2001 20.1H27.4001C27.8001 20.1 28.3001 20.3 28.4001 20.7L32.7001 28.7C33.1001 29.3 32.5001 30.1 31.7001 30.1Z" fill="#DF4C55"/>
<path d="M23.5 45.4L33.2 40.9C33.9 40.6 34.8 41.1 34.8 41.9C34.8 42.3 34.5 42.8 34.1 42.9L26.2 46.4L34.1 49.9C34.5 50.1 34.8 50.5 34.8 50.9C34.8 51.7 33.9 52.3 33.2 51.9L23.5 47.4V45.4Z" fill="#DF4C55"/>
<path d="M37.1001 52.2L41.5001 37.4C41.6001 36.9 42.1001 36.6 42.6001 36.6C43.4001 36.6 43.9001 37.3 43.7001 38.1L39.3001 52.9C39.2001 53.4 38.7001 53.7 38.2001 53.7C37.4001 53.6 36.8001 52.9 37.1001 52.2Z" fill="#DF4C55"/>
<path d="M56.7999 47.5L46.9999 52C46.2999 52.3 45.3999 51.8 45.3999 51C45.3999 50.5 45.6999 50.1 46.0999 50L54.1999 46.5L46.0999 43C45.6999 42.8 45.3999 42.4 45.3999 42C45.3999 41.2 46.2999 40.6 46.9999 41L56.6999 45.5V47.5H56.7999Z" fill="#DF4C55"/>
</svg>
