<svg width="80" height="80" viewBox="0 0 80 80" fill="none" xmlns="http://www.w3.org/2000/svg">
<path d="M61.4001 33.5999H13.3001C12.7001 33.5999 12.1001 33.8999 11.7001 34.2999C11.3001 34.6999 11.0001 35.3 11.0001 35.9V65C11.0001 65.5999 11.3001 66.1999 11.7001 66.5999C12.1001 67 12.7001 67.3 13.3001 67.3H61.4001C62.0001 67.3 62.6001 67 63.0001 66.5999C63.4001 66.1999 63.7001 65.5999 63.7001 65V35.7999C63.7001 35.1999 63.4001 34.6 63.0001 34.2C62.6001 33.8 62.0001 33.5999 61.4001 33.5999ZM13.3001 31.7H61.4001C62.5001 31.7 63.6001 32.2 64.3001 32.9C65.0001 33.6 65.5001 34.6999 65.5001 35.7999V64.9C65.5001 66 65.0001 67.1 64.3001 67.8C63.6001 68.5 62.5001 69 61.4001 69H13.3001C12.2001 69 11.1001 68.5 10.4001 67.8C9.6001 67 9.1001 66 9.1001 64.9V35.7999C9.1001 34.6999 9.6001 33.6 10.3001 32.9C11.1001 32.1 12.1001 31.7 13.3001 31.7Z" fill="#DF4C55"/>
<path d="M12 27.6L57.4 11.6C58.5 11.2 59.5999 11.3 60.5999 11.8C61.5999 12.3 62.2999 13.1 62.7 14.1L72.4 41.5C72.8 42.6 72.6999 43.7 72.1999 44.7C71.6999 45.7 70.9 46.4 69.9 46.8L68.3 47.4C67.7 47.6 67 47.2 67 46.5C67 46.1 67.2999 45.7 67.5999 45.6L69.1999 45C69.7999 44.8 70.2 44.4 70.5 43.8C70.7 43.3 70.7999 42.7 70.5999 42.1L60.9 14.7C60.7 14.1 60.2999 13.7 59.7 13.4C59.2 13.2 58.5999 13.1 58 13.3L12.6 29.3C12 29.5 11.6 29.9 11.3 30.5C11.2 30.6 11.2 30.7 11.2 30.8C10.2 31.1 9.49995 31.8 9.19995 32.2C9.19995 32.2 9.19995 31.7 9.19995 31.6C9.19995 30.9 9.29995 30.2 9.59995 29.6C10.1 28.7 10.9 27.9 12 27.6Z" fill="#DF4C55"/>
<path fill-rule="evenodd" clip-rule="evenodd" d="M63.2 18.9L29.5 30.7H52.7L65.8 26.1L63.2 18.9Z" fill="#DF4C55"/>
<path fill-rule="evenodd" clip-rule="evenodd" d="M17.8 39.2H27.4C28.2 39.2 28.9 39.9 28.9 40.7V46.7999C28.9 47.5999 28.2 48.2999 27.4 48.2999H17.8C17 48.2999 16.3 47.5999 16.3 46.7999V40.7C16.3 39.9 17 39.2 17.8 39.2Z" fill="#DF4C55"/>
<path d="M15.7999 63.5H23.7999C24.2999 63.5 24.6999 63.0999 24.6999 62.5999C24.6999 62.0999 24.2999 61.7 23.7999 61.7H15.7999C15.2999 61.7 14.8999 62.0999 14.8999 62.5999C14.8999 63.0999 15.2999 63.5 15.7999 63.5Z" fill="#DF4C55"/>
<path d="M27.4999 63.5H35.4999C35.9999 63.5 36.3999 63.0999 36.3999 62.5999C36.3999 62.0999 35.9999 61.7 35.4999 61.7H27.4999C26.9999 61.7 26.5999 62.0999 26.5999 62.5999C26.5999 63.0999 26.9999 63.5 27.4999 63.5Z" fill="#DF4C55"/>
<path d="M39.1998 63.5H47.1998C47.6998 63.5 48.0998 63.0999 48.0998 62.5999C48.0998 62.0999 47.6998 61.7 47.1998 61.7H39.1998C38.6998 61.7 38.2998 62.0999 38.2998 62.5999C38.2998 63.0999 38.6998 63.5 39.1998 63.5Z" fill="#DF4C55"/>
<path d="M50.9 63.5H58.9C59.4 63.5 59.8 63.0999 59.8 62.5999C59.8 62.0999 59.4 61.7 58.9 61.7H50.9C50.4 61.7 50 62.0999 50 62.5999C50 63.0999 50.4 63.5 50.9 63.5Z" fill="#DF4C55"/>
</svg>
