<svg width="80" height="80" viewBox="0 0 80 80" fill="none" xmlns="http://www.w3.org/2000/svg">
<path d="M2.8999 41.5C2.5999 41.5 2.3999 41.3 2.3999 41C2.3999 38.4 3.3999 36 5.1999 34.2C6.9999 32.4 9.3999 31.4 11.9999 31.4C12.2999 31.4 12.4999 31.6 12.4999 31.9C12.4999 32.2 12.2999 32.4 11.9999 32.4C7.2999 32.4 3.3999 36.2 3.3999 41C3.4999 41.2 3.1999 41.5 2.8999 41.5Z" fill="#DF4C55"/>
<path d="M6.09985 41.5C5.79985 41.5 5.59985 41.3 5.59985 41C5.59985 37.5 8.49985 34.6 11.9999 34.6C12.2999 34.6 12.4999 34.8 12.4999 35.1C12.4999 35.4 12.2999 35.6 11.9999 35.6C9.09985 35.6 6.69985 38 6.69985 40.9C6.69985 41.2 6.39985 41.5 6.09985 41.5Z" fill="#DF4C55"/>
<path d="M9.3999 41.5C9.0999 41.5 8.8999 41.3 8.8999 41C8.8999 39.2 10.2999 37.8 12.0999 37.8C12.3999 37.8 12.5999 38 12.5999 38.3C12.5999 38.6 12.3999 38.8 12.0999 38.8C10.8999 38.8 9.9999 39.7001 9.9999 40.9001C9.8999 41.2001 9.6999 41.5 9.3999 41.5Z" fill="#DF4C55"/>
<path d="M49.8999 47.5C49.9999 47.4 49.9999 47.4 50.0999 47.2999C50.0999 47.4 49.9999 47.4 49.8999 47.5ZM67.0999 27.2V29V45V46.7H68.7999V27.2H67.0999ZM49.8999 47.5C49.9999 47.4 49.9999 47.4 50.0999 47.2999C50.0999 47.4 49.9999 47.4 49.8999 47.5Z" fill="#DF4C55"/>
<path d="M40.7 31.5L34.5999 40.0999H43.2C44 39.2999 44.9999 39.0999 46.0999 39.0999H46.2C46.8 39.0999 47.4 39.3 47.7999 39.7C47.7999 39.7 47.8 39.7 47.9 39.7C47.9 39.7 47.9 39.7 48 39.7C48 39.7 47.9999 39.7 48.0999 39.7C48.0999 39.7 48.0999 39.6999 48.0999 39.7999L48.2 39.9L48.2999 40C48.2999 40 48.3 40.0999 48.4 40.0999L48.5 40.2L48.5999 40.2999V40.4V40.5H48.7V40.7V40.7999V40.9C48.7 41 48.7 41.0999 48.7 41.0999C48.7 41.1999 48.7 41.2 48.7 41.2V41.2999V41.4C48.7 41.8 48.5 42.2 48.2 42.5L39.2999 51.4C38.4999 52.2 38.4999 53.4 39.2999 54.2L39.7 54.5999C40.1 54.8999 40.5 55.0999 41 55.0999C41.6 55.0999 42.1 54.9 42.5 54.5L49.9 47.0999C50 46.9999 49.9999 47 50.0999 46.9C50.3999 46.7 50.6999 46.5 51.0999 46.4C51.1999 46.4 51.3 46.2999 51.4 46.2999H51.5C51.6 46.2999 51.8 46.2999 51.9 46.2999H53.2C57.1 46.2999 60.4 43.2 60.7 39.4C60.7 39 61.0999 38.7 61.5999 38.7C62.0999 38.7 62.5 39.2 62.5 39.7C62 44.4 58.0999 47.9999 53.2999 48.0999V50.2999H57.7C59.8 50.2999 61.7999 49.0999 62.5 47.0999C63 45.5999 64.3 44.7 65.9 44.7H67.1999V46.4H65.9C65.1 46.4 64.3999 46.8999 64.1999 47.5999C63.2999 50.2999 60.7999 52 58 52H51.5999V48.2C51.5999 48.2 51.6 48.2 51.5 48.2C51.4 48.2 51.3 48.3 51.2 48.4L43.7999 55.7999C43.0999 56.5 42.0999 56.9 41.0999 56.9C40.0999 56.9 39.2999 56.5 38.5999 55.9L38.2 55.5C37.5 54.7999 37.0999 53.9 37.0999 52.9C37.0999 51.9 37.5 51 38.2 50.2999L46.9 41.5999L47 41.5V41.4C47 41.4 47 41.4 47 41.2999L46.9 41.2L46.7 41C46.6 40.9 46.4 40.7999 46.2 40.7999H46C45.3 40.7999 44.6999 41.1 44.2999 41.5L43.9 41.7999H31.2L32.2 40.4L39.2 30.5C39.9 29.5 40.6999 28.6 41.7999 28.1C42.9 27.5 43.9999 27.2 45.2999 27.2H67.0999V29H45.2999C43.4 29 41.7 29.9 40.7 31.5Z" fill="#DF4C55"/>
<path d="M73.3 49.7H70.2C69.1 49.7 68.2 48.8 68.2 47.7V26.1C68.2 25 69.1 24.1 70.2 24.1H73.3C74.4 24.1 75.3 25 75.3 26.1V47.6C75.3 48.7 74.4 49.7 73.3 49.7Z" stroke="#DF4C55" stroke-width="1.5731" stroke-miterlimit="10"/>
<path d="M52.0001 46.7C51.9001 46.7 51.7001 46.7 51.6001 46.7V64.9C51.6001 65.4 51.4001 65.7999 51.1001 66.0999C50.8001 66.3999 50.4001 66.5999 49.9001 66.5999H14.4001C13.9001 66.5999 13.5001 66.3999 13.2001 66.0999C12.9001 65.7999 12.7001 65.4 12.7001 64.9V43.5C12.7001 43 12.9001 42.5999 13.2001 42.2999C13.5001 41.9999 13.9001 41.7999 14.4001 41.7999H48.7001V41.7V41.5999V41.5C48.7001 41.4 48.7001 41.2999 48.7001 41.2999V41.2V41.0999V40.9H48.6001V40.7999C48.6001 40.7999 48.6001 40.8 48.6001 40.7H14.6001C13.8001 40.7 13.0001 40.9999 12.5001 41.5999C12.0001 42.1999 11.6001 42.9 11.6001 43.7V65.0999C11.6001 65.8999 11.9001 66.7 12.5001 67.3C13.1001 67.8 13.8001 68.1999 14.6001 68.1999H50.0001C50.8001 68.1999 51.6001 67.9 52.1001 67.3C52.6001 66.7 53.0001 65.9999 53.0001 65.0999V46.7H52.0001Z" fill="#DF4C55"/>
<path fill-rule="evenodd" clip-rule="evenodd" d="M17.8002 46H24.9002C25.5002 46 26.0002 46.5 26.0002 47.1V51.6C26.0002 52.2 25.5002 52.7 24.9002 52.7H17.8002C17.2002 52.7 16.7002 52.2 16.7002 51.6V47.1C16.7002 46.5 17.2002 46 17.8002 46Z" fill="#DF4C55"/>
<path d="M16.3 63.9H22.2C22.5 63.9 22.8 63.5999 22.8 63.2999C22.8 62.9999 22.5 62.7 22.2 62.7H16.3C16 62.7 15.7 62.9999 15.7 63.2999C15.6 63.5999 15.9 63.9 16.3 63.9Z" fill="#DF4C55"/>
<path d="M24.9 63.9H30.8C31.1 63.9 31.4 63.5999 31.4 63.2999C31.4 62.9999 31.1 62.7 30.8 62.7H24.9C24.6 62.7 24.3 62.9999 24.3 63.2999C24.3 63.5999 24.6 63.9 24.9 63.9Z" fill="#DF4C55"/>
<path d="M33.5001 63.9H39.4001C39.7001 63.9 40.0001 63.5999 40.0001 63.2999C40.0001 62.9999 39.7001 62.7 39.4001 62.7H33.5001C33.2001 62.7 32.9001 62.9999 32.9001 63.2999C32.9001 63.5999 33.2001 63.9 33.5001 63.9Z" fill="#DF4C55"/>
<path d="M42.2 63.9H48C48.3 63.9 48.6 63.5999 48.6 63.2999C48.6 62.9999 48.3 62.7 48 62.7H42.1C41.8 62.7 41.5 62.9999 41.5 63.2999C41.5 63.5999 41.8 63.9 42.2 63.9Z" fill="#DF4C55"/>
</svg>
