<svg width="80" height="80" viewBox="0 0 80 80" fill="none" xmlns="http://www.w3.org/2000/svg">
<g clip-path="url(#clip0_8087_64490)">
<path d="M28.9451 58.1736C44.3788 58.1736 56.8902 45.5987 56.8902 30.0868C56.8902 14.5749 44.3788 2 28.9451 2C13.5114 2 1 14.5749 1 30.0868C1 45.5987 13.5114 58.1736 28.9451 58.1736Z" stroke="#DF4C55" stroke-width="2.5" stroke-linecap="round" stroke-linejoin="round"/>
<path d="M54.9665 54.9171L49.1952 49.4219" stroke="#DF4C55" stroke-width="2.5" stroke-linecap="round" stroke-linejoin="round"/>
<path d="M57.5321 52.0621L52.3746 57.5245L73.8424 78L79 72.5376L57.5321 52.0621Z" stroke="#DF4C55" stroke-width="2.5" stroke-linecap="round" stroke-linejoin="round"/>
<path d="M20.3387 42.0951H31.2738C32.9387 42.0951 34.5354 41.4303 35.7127 40.2471C36.8899 39.0639 37.5513 37.459 37.5513 35.7857V35.7857C37.5513 34.1124 36.8899 32.5075 35.7127 31.3243C34.5354 30.1411 32.9387 29.4763 31.2738 29.4763H29.5525C30.226 29.4765 30.8926 29.3416 31.5135 29.0795C32.1345 28.8175 32.6971 28.4336 33.1686 27.9503C33.64 27.4669 34.0108 26.8939 34.2591 26.2648C34.5075 25.6357 34.6285 24.9631 34.615 24.2864V24.2864C34.6285 23.6097 34.5075 22.9371 34.2591 22.308C34.0108 21.6788 33.64 21.1058 33.1686 20.6225C32.6971 20.1392 32.1345 19.7553 31.5135 19.4933C30.8926 19.2312 30.226 19.0963 29.5525 19.0964H20.3387" stroke="#DF4C55" stroke-width="2.5" stroke-linecap="round" stroke-linejoin="round"/>
<path d="M22.7688 44.5374V15.6365" stroke="#DF4C55" stroke-width="2.5" stroke-linecap="round" stroke-linejoin="round"/>
<path d="M31.679 19.0964V15.6365" stroke="#DF4C55" stroke-width="2.5" stroke-linecap="round" stroke-linejoin="round"/>
<path d="M31.679 44.5373V42.095" stroke="#DF4C55" stroke-width="2.5" stroke-linecap="round" stroke-linejoin="round"/>
</g>
<defs>
<clipPath id="clip0_8087_64490">
<rect width="80" height="80" fill="white"/>
</clipPath>
</defs>
</svg>
