<svg width="78" height="61" viewBox="0 0 78 61" fill="none" xmlns="http://www.w3.org/2000/svg">
<path d="M45.3 46.4067H5.8C3.1 46.4067 1 44.2971 1 41.5848V5.82195C1 3.1096 3.1 1 5.8 1H72.2C74.9 1 77 3.1096 77 5.82195V44.1966" stroke="#DF4C55" stroke-width="2" stroke-miterlimit="10"/>
<path d="M1.3999 15.265H76.4999" stroke="#DF4C55" stroke-width="2" stroke-miterlimit="10"/>
<path d="M10.2002 35.8587H35.1002" stroke="#DF4C55" stroke-width="2" stroke-miterlimit="10" stroke-linecap="round" stroke-linejoin="round"/>
<path d="M10.2002 29.0276H18.2002" stroke="#DF4C55" stroke-width="2" stroke-miterlimit="10" stroke-linecap="round" stroke-linejoin="round"/>
<path d="M26 29.0276H35.1" stroke="#DF4C55" stroke-width="2" stroke-miterlimit="10" stroke-linecap="round" stroke-linejoin="round"/>
<path d="M61.0982 60C69.8242 60 76.898 52.8938 76.898 44.1279C76.898 35.362 69.8242 28.2558 61.0982 28.2558C52.3722 28.2558 45.2983 35.362 45.2983 44.1279C45.2983 52.8938 52.3722 60 61.0982 60Z" stroke="#DF4C55" stroke-width="2" stroke-miterlimit="10"/>
<path d="M52.8003 45.5026L58.6003 51.53L69.5003 40.3793" stroke="#DF4C55" stroke-width="2" stroke-miterlimit="10" stroke-linecap="round" stroke-linejoin="round"/>
</svg>
