<svg width="80" height="80" viewBox="0 0 80 80" fill="none" xmlns="http://www.w3.org/2000/svg">
<g clip-path="url(#clip0_8091_63999)">
<path fill-rule="evenodd" clip-rule="evenodd" d="M40.9117 20.9825C30.761 20.9825 22.51 29.3013 22.51 39.5907C22.51 49.88 30.761 58.1988 40.9117 58.1988C51.0624 58.1988 59.3134 49.88 59.3134 39.5907C59.3134 29.3013 51.0624 20.9825 40.9117 20.9825ZM20.01 39.5907C20.01 27.9453 29.3557 18.4825 40.9117 18.4825C52.4677 18.4825 61.8134 27.9453 61.8134 39.5907C61.8134 51.236 52.4677 60.6988 40.9117 60.6988C29.3557 60.6988 20.01 51.236 20.01 39.5907Z" fill="#159570"/>
<path d="M40.9116 26.8979C41.9186 26.8979 42.735 26.073 42.735 25.0554C42.735 24.0378 41.9186 23.2129 40.9116 23.2129C39.9046 23.2129 39.0883 24.0378 39.0883 25.0554C39.0883 26.073 39.9046 26.8979 40.9116 26.8979Z" fill="#159570"/>
<path d="M40.9116 56.0709C41.9186 56.0709 42.735 55.246 42.735 54.2284C42.735 53.2108 41.9186 52.3859 40.9116 52.3859C39.9046 52.3859 39.0883 53.2108 39.0883 54.2284C39.0883 55.246 39.9046 56.0709 40.9116 56.0709Z" fill="#159570"/>
<path d="M33.7196 28.8427C34.7266 28.8427 35.5429 28.0178 35.5429 27.0002C35.5429 25.9826 34.7266 25.1577 33.7196 25.1577C32.7126 25.1577 31.8962 25.9826 31.8962 27.0002C31.8962 28.0178 32.7126 28.8427 33.7196 28.8427Z" fill="#159570"/>
<path d="M48.2052 54.1261C49.2122 54.1261 50.0285 53.3012 50.0285 52.2836C50.0285 51.266 49.2122 50.4411 48.2052 50.4411C47.1982 50.4411 46.3818 51.266 46.3818 52.2836C46.3818 53.3012 47.1982 54.1261 48.2052 54.1261Z" fill="#159570"/>
<path d="M28.4521 34.1656C29.4591 34.1656 30.2754 33.3407 30.2754 32.3231C30.2754 31.3055 29.4591 30.4806 28.4521 30.4806C27.4451 30.4806 26.6287 31.3055 26.6287 32.3231C26.6287 33.3407 27.4451 34.1656 28.4521 34.1656Z" fill="#159570"/>
<path d="M53.4725 48.8033C54.4795 48.8033 55.2959 47.9784 55.2959 46.9608C55.2959 45.9432 54.4795 45.1183 53.4725 45.1183C52.4655 45.1183 51.6492 45.9432 51.6492 46.9608C51.6492 47.9784 52.4655 48.8033 53.4725 48.8033Z" fill="#159570"/>
<path d="M26.5275 41.4334C27.5345 41.4334 28.3508 40.6085 28.3508 39.5909C28.3508 38.5733 27.5345 37.7484 26.5275 37.7484C25.5204 37.7484 24.7041 38.5733 24.7041 39.5909C24.7041 40.6085 25.5204 41.4334 26.5275 41.4334Z" fill="#159570"/>
<path d="M55.3972 41.4334C56.4042 41.4334 57.2206 40.6085 57.2206 39.5909C57.2206 38.5733 56.4042 37.7484 55.3972 37.7484C54.3902 37.7484 53.5739 38.5733 53.5739 39.5909C53.5739 40.6085 54.3902 41.4334 55.3972 41.4334Z" fill="#159570"/>
<path d="M28.4521 48.8033C29.4591 48.8033 30.2754 47.9784 30.2754 46.9608C30.2754 45.9432 29.4591 45.1183 28.4521 45.1183C27.4451 45.1183 26.6287 45.9432 26.6287 46.9608C26.6287 47.9784 27.4451 48.8033 28.4521 48.8033Z" fill="#159570"/>
<path d="M53.4725 34.1656C54.4795 34.1656 55.2959 33.3407 55.2959 32.3231C55.2959 31.3055 54.4795 30.4806 53.4725 30.4806C52.4655 30.4806 51.6492 31.3055 51.6492 32.3231C51.6492 33.3407 52.4655 34.1656 53.4725 34.1656Z" fill="#159570"/>
<path d="M33.7196 54.1261C34.7266 54.1261 35.5429 53.3012 35.5429 52.2836C35.5429 51.266 34.7266 50.4411 33.7196 50.4411C32.7126 50.4411 31.8962 51.266 31.8962 52.2836C31.8962 53.3012 32.7126 54.1261 33.7196 54.1261Z" fill="#159570"/>
<path d="M48.2052 28.8427C49.2122 28.8427 50.0285 28.0178 50.0285 27.0002C50.0285 25.9826 49.2122 25.1577 48.2052 25.1577C47.1982 25.1577 46.3818 25.9826 46.3818 27.0002C46.3818 28.0178 47.1982 28.8427 48.2052 28.8427Z" fill="#159570"/>
<path fill-rule="evenodd" clip-rule="evenodd" d="M47.2693 72.6946C47.7555 73.1848 47.7522 73.9762 47.262 74.4623L41.792 79.8875C41.3018 80.3736 40.5104 80.3704 40.0242 79.8802C39.5381 79.3901 39.5413 78.5986 40.0315 78.1125L45.5016 72.6873C45.9917 72.2012 46.7832 72.2044 47.2693 72.6946Z" fill="#159570"/>
<path fill-rule="evenodd" clip-rule="evenodd" d="M40.9116 63.8288C41.602 63.8288 42.1616 64.3884 42.1616 65.0788V79C42.1616 79.5067 41.8556 79.9634 41.387 80.1561C40.9183 80.3488 40.3796 80.2394 40.0231 79.8792L34.6544 74.4541C34.1688 73.9634 34.1729 73.1719 34.6636 72.6863C35.1543 72.2007 35.9457 72.2049 36.4313 72.6956L39.6616 75.9598V65.0788C39.6616 64.3884 40.2213 63.8288 40.9116 63.8288Z" fill="#159570"/>
<path fill-rule="evenodd" clip-rule="evenodd" d="M11.7439 -0.249508H68.2561C69.8358 -0.263952 71.4023 0.0396209 72.8641 0.643193C74.3277 1.24754 75.6565 2.14035 76.7732 3.26875C77.8898 4.39712 78.7719 5.73842 79.3686 7.21386C79.9645 8.68748 80.2638 10.2658 80.2495 11.8569V25.0555C80.2495 28.2605 78.9897 31.3368 76.7431 33.6071C74.496 35.8777 71.4455 37.1558 68.262 37.1558H60.5634C59.873 37.1558 59.3134 36.5961 59.3134 35.9058C59.3134 35.2154 59.873 34.6558 60.5634 34.6558H68.262C70.774 34.6558 73.1858 33.6475 74.9661 31.8485C76.7468 30.0491 77.7495 27.6058 77.7495 25.0555V11.839C77.7615 10.5746 77.5239 9.32084 77.0509 8.15106C76.5779 6.9813 75.8792 5.91945 74.9962 5.02726C74.1133 4.13509 73.064 3.43048 71.9099 2.95395C70.7559 2.47744 69.5199 2.23839 68.2741 2.25043L68.262 2.25049H11.7259C10.4801 2.23844 9.24409 2.47744 8.09006 2.95395C6.93599 3.43048 5.88666 4.13509 5.00377 5.02726C4.12085 5.91945 3.42213 6.98131 2.94911 8.15106C2.47609 9.32084 2.23846 10.5746 2.25043 11.839L2.25054 11.8508L2.25049 25.0555C2.25049 27.6058 3.2532 30.0491 5.03393 31.8485C6.81421 33.6475 9.22601 34.6558 11.738 34.6558H21.26C21.9503 34.6558 22.51 35.2154 22.51 35.9058C22.51 36.5961 21.9503 37.1558 21.26 37.1558H11.738C8.55449 37.1558 5.50402 35.8777 3.25695 33.6071C1.01032 31.3368 -0.249513 28.2605 -0.249513 25.0555V11.8566C-0.263782 10.2656 0.0355737 8.6874 0.631431 7.21386C1.22806 5.73841 2.11015 4.39712 3.22679 3.26875C4.34346 2.14036 5.67228 1.24754 7.13592 0.643193C8.59766 0.0396207 10.1642 -0.263952 11.7439 -0.249508Z" fill="#159570"/>
<path fill-rule="evenodd" clip-rule="evenodd" d="M13.0204 11.5437C13.0204 10.8533 13.5801 10.2937 14.2704 10.2937H65.7295C66.4199 10.2937 66.9795 10.8533 66.9795 11.5437V25.2602C66.9795 25.9505 66.4199 26.5102 65.7295 26.5102H55.3972C54.7068 26.5102 54.1472 25.9505 54.1472 25.2602C54.1472 24.5698 54.7068 24.0102 55.3972 24.0102H64.4795V12.7937H15.5204V24.0102H26.5274C27.2178 24.0102 27.7774 24.5698 27.7774 25.2602C27.7774 25.9505 27.2178 26.5102 26.5274 26.5102H14.2704C13.5801 26.5102 13.0204 25.9505 13.0204 25.2602V11.5437Z" fill="#159570"/>
<path fill-rule="evenodd" clip-rule="evenodd" d="M41.2988 31.278C41.895 31.262 42.4882 31.3658 43.0439 31.5832C43.6062 31.8032 44.1181 32.1348 44.5496 32.5576C44.9811 32.9804 45.3233 33.4857 45.5567 34.0433C45.79 34.6006 45.9099 35.1992 45.9097 35.8035M41.2988 31.278H35.3403C34.65 31.278 34.0903 31.8376 34.0903 32.528C34.0903 33.2183 34.65 33.778 35.3403 33.778H41.3169C41.33 33.778 41.3432 33.7778 41.3564 33.7773C41.6212 33.769 41.8853 33.8145 42.1331 33.9114C42.3809 34.0083 42.6078 34.1549 42.7999 34.3432C42.9921 34.5315 43.1455 34.7577 43.2506 35.0086C43.3556 35.2595 43.4098 35.5297 43.4097 35.8029V35.8035C43.4097 36.3721 43.1861 36.9148 42.7921 37.3128C42.3986 37.7105 41.8677 37.9315 41.3169 37.9315C40.6265 37.9315 40.0669 38.4911 40.0669 39.1815C40.0669 39.8718 40.6265 40.4315 41.3169 40.4315H42.4312C42.4421 40.4315 42.453 40.4313 42.464 40.431C42.8284 40.4215 43.1913 40.4869 43.5306 40.6238C43.8699 40.7606 44.179 40.9662 44.4388 41.2286C44.6986 41.4911 44.9035 41.8051 45.0404 42.1517C45.1773 42.4983 45.2431 42.87 45.2335 43.2438C45.2329 43.2652 45.2329 43.2866 45.2335 43.3081C45.2431 43.6819 45.1773 44.0535 45.0404 44.4002C44.9035 44.7468 44.6986 45.0607 44.4388 45.3232C44.179 45.5857 43.8699 45.7913 43.5306 45.9281C43.1913 46.0649 42.8284 46.1304 42.464 46.1208C42.453 46.1205 42.4421 46.1204 42.4312 46.1204H35.3403C34.65 46.1204 34.0903 46.68 34.0903 47.3704C34.0903 48.0608 34.65 48.6204 35.3403 48.6204H42.4158C43.1173 48.6364 43.8145 48.5092 44.4656 48.2467C45.122 47.982 45.7174 47.5854 46.2158 47.0817C46.7141 46.5782 47.1051 45.9781 47.3656 45.3185C47.6222 44.6688 47.7471 43.9743 47.7334 43.2759C47.7471 42.5775 47.6222 41.883 47.3656 41.2334C47.1051 40.5738 46.7141 39.9737 46.2158 39.4701C45.858 39.1087 45.4504 38.8023 45.006 38.5603C45.59 37.7668 45.9096 36.8013 45.9097 35.8041" fill="#159570"/>
<path fill-rule="evenodd" clip-rule="evenodd" d="M36.9611 28.9236C37.6514 28.9236 38.2111 29.4832 38.2111 30.1736V49.0081C38.2111 49.6985 37.6514 50.2581 36.9611 50.2581C36.2707 50.2581 35.7111 49.6985 35.7111 49.0081V30.1736C35.7111 29.4832 36.2707 28.9236 36.9611 28.9236Z" fill="#159570"/>
<path fill-rule="evenodd" clip-rule="evenodd" d="M42.735 28.9236C43.4253 28.9236 43.985 29.4832 43.985 30.1736V32.5279C43.985 33.2183 43.4253 33.7779 42.735 33.7779C42.0446 33.7779 41.485 33.2183 41.485 32.5279V30.1736C41.485 29.4832 42.0446 28.9236 42.735 28.9236Z" fill="#159570"/>
<path fill-rule="evenodd" clip-rule="evenodd" d="M42.735 46.1202C43.4253 46.1202 43.985 46.6799 43.985 47.3702V49.008C43.985 49.6984 43.4253 50.258 42.735 50.258C42.0446 50.258 41.485 49.6984 41.485 49.008V47.3702C41.485 46.6799 42.0446 46.1202 42.735 46.1202Z" fill="#159570"/>
</g>
<defs>
<clipPath id="clip0_8091_63999">
<rect width="80" height="80" fill="white"/>
</clipPath>
</defs>
</svg>
