<svg width="80" height="80" viewBox="0 0 80 80" fill="none" xmlns="http://www.w3.org/2000/svg">
<g clip-path="url(#clip0_8087_64491)">
<path d="M23.2634 51.5481C30.0363 51.5481 35.5268 46.015 35.5268 39.1896C35.5268 32.3642 30.0363 26.8312 23.2634 26.8312C16.4905 26.8312 11 32.3642 11 39.1896C11 46.015 16.4905 51.5481 23.2634 51.5481Z" stroke="#DF4C55" stroke-width="2.5" stroke-linecap="round" stroke-linejoin="round"/>
<path fill-rule="evenodd" clip-rule="evenodd" d="M29.0631 35.1399C29.5616 35.6264 29.5742 36.4281 29.0913 36.9304L22.8591 43.4135C22.6271 43.6548 22.3094 43.7933 21.976 43.7985C21.6426 43.8037 21.3208 43.6751 21.0815 43.4411L17.6638 40.0982C17.1659 39.6111 17.154 38.8095 17.6373 38.3077C18.1206 37.8059 18.9161 37.7939 19.4141 38.281L21.9293 40.7411L27.2864 35.1683C27.7692 34.666 28.5647 34.6533 29.0631 35.1399Z" fill="#DF4C55"/>
<path d="M24.2687 21.2597V4.44416C24.2687 3.53071 24.6288 2.65467 25.2697 2.00877C25.9106 1.36287 26.7799 1 27.6863 1H65.5823C66.4887 1 67.358 1.36287 67.999 2.00877C68.6399 2.65467 69 3.53071 69 4.44416V75.5558C69 76.4693 68.6399 77.3453 67.999 77.9912C67.358 78.6371 66.4887 79 65.5823 79H27.6863C26.7799 79 25.9106 78.6371 25.2697 77.9912C24.6288 77.3453 24.2687 76.4693 24.2687 75.5558V57.626" stroke="#DF4C55" stroke-width="2.5" stroke-linecap="round" stroke-linejoin="round"/>
<path d="M24.2687 10.2181H69" stroke="#DF4C55" stroke-width="2.5" stroke-linecap="round" stroke-linejoin="round"/>
<path d="M24.2687 68.5662H69" stroke="#DF4C55" stroke-width="2.5" stroke-linecap="round" stroke-linejoin="round"/>
<path d="M46.5841 75.5558C47.5834 75.5558 48.3935 74.7395 48.3935 73.7324C48.3935 72.7254 47.5834 71.9091 46.5841 71.9091C45.5849 71.9091 44.7748 72.7254 44.7748 73.7324C44.7748 74.7395 45.5849 75.5558 46.5841 75.5558Z" fill="#DF4C55"/>
</g>
<defs>
<clipPath id="clip0_8087_64491">
<rect width="80" height="80" fill="white"/>
</clipPath>
</defs>
</svg>
