<svg width="80" height="80" viewBox="0 0 80 80" fill="none" xmlns="http://www.w3.org/2000/svg">
<path d="M71.5 67H9.5C5.9 67 3 64.0946 3 60.4879V19.5121C3 15.9054 5.9 13 9.5 13H71.5C75.1 13 78 15.9054 78 19.5121V60.4879C78 64.0946 75.1 67 71.5 67Z" stroke="#DF4C55" stroke-width="2" stroke-miterlimit="10"/>
<path d="M13.9 42.7551L16.9 42.4545C17.1 43.4564 17.4 44.1577 18 44.6586C18.5 45.1596 19.3 45.3599 20.2 45.3599C21.2 45.3599 21.9 45.1596 22.4 44.7588C22.9 44.3581 23.2 43.8571 23.2 43.256C23.2 42.8553 23.1 42.5547 22.9 42.3544C22.7 42.0538 22.3 41.8534 21.8 41.6531C21.4 41.5529 20.6 41.3525 19.4 40.9518C17.8 40.551 16.6 40.0501 15.9 39.449C15 38.6475 14.5 37.5455 14.5 36.3432C14.5 35.5417 14.7 34.8404 15.2 34.1391C15.6 33.4378 16.3 32.9369 17.1 32.6364C17.9 32.2356 18.9 32.1354 20.1 32.1354C22 32.1354 23.4 32.5362 24.4 33.4379C25.4 34.2393 25.9 35.4416 25.9 36.8442L22.8 36.9443C22.7 36.1429 22.4 35.6419 22 35.2412C21.6 34.9406 20.9 34.7403 20.1 34.7403C19.2 34.7403 18.5 34.9406 18 35.3414C17.7 35.5417 17.5 35.9425 17.5 36.243C17.5 36.6438 17.7 36.9443 18 37.1447C18.4 37.4453 19.3 37.846 20.8 38.1466C22.3 38.5473 23.4 38.8479 24.1 39.2486C24.8 39.6494 25.4 40.1503 25.8 40.7514C26.2 41.4527 26.4 42.2542 26.4 43.1558C26.4 44.0575 26.2 44.859 25.7 45.6605C25.2 46.462 24.5 46.9629 23.6 47.3636C22.7 47.7644 21.6 47.9648 20.3 47.9648C18.4 47.9648 16.9 47.564 15.9 46.6623C14.8 45.7607 14.1 44.4583 13.9 42.7551ZM38.5 32.8367L37.9 35.7421C37.3 35.141 36.5 34.8404 35.3 34.8404C34.2 34.8404 33.3 35.2412 32.6 36.0427C32.2 36.5436 31.9 37.0445 31.8 37.7458H37.5L37.2 39.3488H31.6C31.6 39.5492 31.6 39.7495 31.6 39.9499C31.6 40.1503 31.6 40.4508 31.6 40.7514H36.9L36.5 42.3544H31.8C32 43.0557 32.2 43.6568 32.6 44.0575C33.3 44.859 34.2 45.2597 35.3 45.2597C36.6 45.2597 37.7 44.859 38.5 44.0575V47.2635C37.6 47.6642 36.6 47.9648 35.4 47.9648C33.4 47.9648 31.7 47.2635 30.4 45.8609C29.5 44.9592 28.9 43.757 28.7 42.3544H27.2L27.5 40.7514H28.5C28.5 40.551 28.5 40.4508 28.5 40.2505C28.5 39.9499 28.5 39.6494 28.5 39.449H27.1L27.4 37.846H28.6C28.9 36.4434 29.5 35.3414 30.3 34.3395C31.6 32.9369 33.3 32.2356 35.5 32.2356C36.6 32.1354 37.7 32.3358 38.5 32.8367ZM40.7 47.6642V32.436H45.6C47.5 32.436 48.7 32.5362 49.2 32.6364C50.1 32.8367 50.8 33.3377 51.4 34.1391C52 34.9406 52.3 35.9425 52.3 37.1447C52.3 38.0464 52.1 38.8479 51.8 39.5492C51.5 40.1503 51 40.6512 50.5 41.052C50 41.4527 49.4 41.6531 48.9 41.7533C48.2 41.8534 47.1 41.9536 45.7 41.9536H43.7V47.6642H40.7ZM43.8 35.0408V39.3488H45.5C46.7 39.3488 47.5 39.2486 47.9 39.1484C48.3 38.9481 48.6 38.7477 48.9 38.3469C49.1 38.0464 49.2 37.6456 49.2 37.1447C49.2 36.5436 49 36.1429 48.7 35.7421C48.4 35.3414 48 35.141 47.5 35.0408C47.1 35.0408 46.4 35.0408 45.3 35.0408H43.8ZM67.1 47.6642H63.8L62.5 44.1577H56.4L55.1 47.6642H51.8L57.7 32.436H61L67.1 47.6642ZM61.4 41.6531L59.3 36.0427L57.2 41.6531H61.4Z" fill="#DF4C55"/>
</svg>
