<svg width="80" height="80" viewBox="0 0 80 80" fill="none" xmlns="http://www.w3.org/2000/svg">
<path d="M18.3 18.6374H2V34.7583H18.3V18.6374Z" stroke="#DF4C55" stroke-width="3" stroke-linecap="round" stroke-linejoin="round"/>
<path d="M39.7 18.6374H23.4V34.7583H39.7V18.6374Z" stroke="#DF4C55" stroke-width="3" stroke-linecap="round" stroke-linejoin="round"/>
<path d="M61.1 18.6374H44.8V34.7583H61.1V18.6374Z" stroke="#DF4C55" stroke-width="3" stroke-linecap="round" stroke-linejoin="round"/>
<path d="M18.3 39.2088H2V55.3297H18.3V39.2088Z" stroke="#DF4C55" stroke-width="3" stroke-linecap="round" stroke-linejoin="round"/>
<path d="M39.7 39.2088H23.4V55.3297H39.7V39.2088Z" stroke="#DF4C55" stroke-width="3" stroke-linecap="round" stroke-linejoin="round"/>
<path d="M61.1 39.2088H44.8V55.3297H61.1V39.2088Z" stroke="#DF4C55" stroke-width="3" stroke-linecap="round" stroke-linejoin="round"/>
<path d="M18.3 59.8792H2V76H18.3V59.8792Z" stroke="#DF4C55" stroke-width="3" stroke-linecap="round" stroke-linejoin="round"/>
<path d="M39.7 59.8792H23.4V76H39.7V59.8792Z" stroke="#DF4C55" stroke-width="3" stroke-linecap="round" stroke-linejoin="round"/>
<path d="M61.1 59.8792H44.8V76H61.1V59.8792Z" stroke="#DF4C55" stroke-width="3" stroke-linecap="round" stroke-linejoin="round"/>
<path d="M2 18.6374L15.6 4H78V61.7582L61.1 76" stroke="#DF4C55" stroke-width="3" stroke-linecap="round" stroke-linejoin="round"/>
<path d="M61.1 18.6374L78 4" stroke="#DF4C55" stroke-width="3" stroke-linecap="round" stroke-linejoin="round"/>
</svg>
