<svg width="56" height="56" viewBox="0 0 56 56" fill="none" xmlns="http://www.w3.org/2000/svg">
<path d="M30.8365 50.1395L30.6379 48.5127C34.7087 48.1217 38.576 46.5657 41.7665 44.0351C44.9569 41.5045 47.3322 38.1091 48.6016 34.2643L50.171 34.7973C48.8003 38.9334 46.2427 42.586 42.8097 45.3101C39.3768 48.0342 35.2168 49.7121 30.8365 50.1395Z" fill="#DF4C55"/>
<path d="M49.5471 24.1297C48.7857 19.0027 46.1848 14.3176 42.2193 10.93C38.2539 7.54248 33.1884 5.67849 27.9482 5.67849C22.7079 5.67849 17.6425 7.54248 13.677 10.93C9.71153 14.3176 7.11061 19.0027 6.34926 24.1297L4.71362 23.8959C5.52052 18.3714 8.3134 13.3193 12.5806 9.66526C16.8477 6.01125 22.3035 4 27.9482 4C33.5929 4 39.0486 6.01125 43.3158 9.66526C47.5829 13.3193 50.3758 18.3714 51.1827 23.8959L49.5471 24.1297Z" fill="#DF4C55"/>
<path d="M6.76509 35.3488H4.03273C3.49438 35.3464 2.97879 35.1338 2.59812 34.7574C2.21745 34.3809 2.00249 33.8711 2 33.3387V25.2048C2.00249 24.6725 2.21745 24.1626 2.59812 23.7862C2.97879 23.4097 3.49438 23.1972 4.03273 23.1947H6.76509C7.30508 23.1947 7.82309 23.4062 8.2058 23.7829C8.58851 24.1596 8.80477 24.6708 8.80727 25.2048V33.3387C8.80477 33.8727 8.58851 34.3839 8.2058 34.7607C7.82309 35.1374 7.30508 35.3488 6.76509 35.3488ZM4.03273 24.8308C3.93243 24.8308 3.83624 24.8702 3.76531 24.9404C3.69439 25.0105 3.65455 25.1056 3.65455 25.2048V33.3387C3.65455 33.4379 3.69439 33.533 3.76531 33.6032C3.83624 33.6733 3.93243 33.7127 4.03273 33.7127H6.76509C6.81929 33.7208 6.87463 33.7172 6.92728 33.7021C6.97993 33.687 7.02863 33.6607 7.07 33.6252C7.11137 33.5896 7.14442 33.5455 7.16687 33.4961C7.18932 33.4466 7.20062 33.3929 7.2 33.3387V25.2048C7.20002 25.1549 7.18993 25.1055 7.17034 25.0595C7.15074 25.0135 7.12204 24.9719 7.08591 24.937C7.04979 24.9022 7.00697 24.8748 6.95999 24.8566C6.91301 24.8383 6.86282 24.8296 6.81236 24.8308H4.03273Z" fill="#DF4C55"/>
<path d="M51.9674 35.3488H49.2351C48.6951 35.3488 48.1771 35.1373 47.7943 34.7606C47.4116 34.3839 47.1954 33.8726 47.1929 33.3387V25.2048C47.1929 24.6692 47.408 24.1555 47.791 23.7768C48.174 23.3981 48.6934 23.1853 49.2351 23.1853H51.9674C52.5074 23.1878 53.0244 23.4016 53.4054 23.7801C53.7863 24.1585 54.0002 24.6708 54.0001 25.2048V33.3387C53.9977 33.871 53.7827 34.3809 53.402 34.7573C53.0214 35.1337 52.5058 35.3463 51.9674 35.3488ZM49.2351 24.8308C49.1322 24.8308 49.0336 24.8712 48.961 24.9431C48.8883 25.0149 48.8474 25.1124 48.8474 25.2141V33.3387C48.8474 33.3886 48.8575 33.438 48.8771 33.484C48.8967 33.53 48.9254 33.5716 48.9615 33.6065C48.9976 33.6413 49.0404 33.6687 49.0874 33.6869C49.1344 33.7051 49.1846 33.7139 49.2351 33.7126H51.9674C52.0677 33.7126 52.1639 33.6732 52.2348 33.6031C52.3058 33.533 52.3456 33.4379 52.3456 33.3387V25.2048C52.3469 25.1549 52.338 25.1052 52.3196 25.0588C52.3011 25.0123 52.2735 24.97 52.2382 24.9343C52.203 24.8985 52.1609 24.8701 52.1144 24.8508C52.0679 24.8314 52.0179 24.8214 51.9674 24.8214L49.2351 24.8308Z" fill="#DF4C55"/>
<path d="M28.8413 52H27.0543C26.3372 52 25.6494 51.7183 25.1423 51.2168C24.6352 50.7154 24.3503 50.0352 24.3503 49.3261C24.3503 48.6169 24.6352 47.9368 25.1423 47.4353C25.6494 46.9339 26.3372 46.6522 27.0543 46.6522H28.8413C29.5584 46.6522 30.2462 46.9339 30.7533 47.4353C31.2604 47.9368 31.5453 48.6169 31.5453 49.3261C31.5453 50.0352 31.2604 50.7154 30.7533 51.2168C30.2462 51.7183 29.5584 52 28.8413 52ZM27.0543 48.2602C26.776 48.2602 26.5091 48.3696 26.3123 48.5642C26.1155 48.7588 26.0049 49.0228 26.0049 49.298C26.0049 49.5733 26.1155 49.8372 26.3123 50.0318C26.5091 50.2265 26.776 50.3358 27.0543 50.3358H28.8413C29.1196 50.3358 29.3865 50.2265 29.5833 50.0318C29.7801 49.8372 29.8907 49.5733 29.8907 49.298C29.8907 49.0228 29.7801 48.7588 29.5833 48.5642C29.3865 48.3696 29.1196 48.2602 28.8413 48.2602H27.0543Z" fill="#DF4C55"/>
<path d="M29.0871 25.9154L27.6028 31.0202C27.5399 31.205 27.4987 31.3963 27.4799 31.5905C27.4804 31.6454 27.5005 31.6983 27.5366 31.7401C27.5545 31.7599 27.5763 31.7759 27.6007 31.7872C27.6251 31.7984 27.6515 31.8047 27.6784 31.8055C27.7699 31.8003 27.8567 31.764 27.9242 31.7027C28.2272 31.4274 28.4912 31.1129 28.709 30.7677L28.9548 30.908C28.2268 32.1701 27.4515 32.7778 26.6289 32.7778C26.3519 32.7919 26.0803 32.6979 25.8726 32.5161C25.785 32.4287 25.7156 32.3251 25.6686 32.2112C25.6215 32.0973 25.5977 31.9753 25.5984 31.8523C25.6058 31.6231 25.6472 31.3963 25.7213 31.1791L26.733 27.7479C26.812 27.5055 26.8597 27.2542 26.8748 27C26.8731 26.9458 26.8595 26.8927 26.835 26.8443C26.8105 26.7959 26.7757 26.7533 26.733 26.7195C26.6258 26.6352 26.4915 26.592 26.3548 26.5979H26.109L26.2035 26.3081L28.6617 25.9154H29.0871ZM28.6333 22.6151C28.7755 22.612 28.9168 22.6378 29.0486 22.6909C29.1803 22.7439 29.2996 22.8232 29.3991 22.9236C29.5959 23.1237 29.7047 23.3925 29.7017 23.6716C29.7041 23.8107 29.6776 23.9489 29.624 24.0775C29.5703 24.2061 29.4906 24.3225 29.3897 24.4195C29.2912 24.5176 29.1742 24.5955 29.0451 24.6486C28.9161 24.7017 28.7778 24.7291 28.638 24.7291C28.4983 24.7291 28.3599 24.7017 28.2309 24.6486C28.1019 24.5955 27.9848 24.5176 27.8864 24.4195C27.7869 24.3214 27.708 24.2048 27.6541 24.0765C27.6003 23.9481 27.5726 23.8105 27.5726 23.6716C27.5726 23.5326 27.6003 23.395 27.6541 23.2667C27.708 23.1384 27.7869 23.0218 27.8864 22.9236C27.9827 22.8241 28.0988 22.7454 28.2273 22.6923C28.3558 22.6392 28.494 22.6129 28.6333 22.6151Z" fill="#DF4C55"/>
<path d="M28 38.4809C25.932 38.4919 23.9076 37.8929 22.1855 36.7606L17.7513 38.004L18.9804 33.6192C17.7257 31.6613 17.1641 29.3467 17.3837 27.0389C17.6034 24.7312 18.5918 22.5609 20.1939 20.8688C21.796 19.1768 23.921 18.0588 26.2353 17.6904C28.5495 17.322 30.922 17.724 32.9802 18.8334C35.0383 19.9427 36.6656 21.6966 37.6066 23.8196C38.5476 25.9426 38.7489 28.3145 38.179 30.5629C37.6091 32.8113 36.3002 34.8089 34.4578 36.242C32.6155 37.6751 30.344 38.4626 28 38.4809ZM22.488 34.9749L22.8095 35.1992C24.6228 36.4747 26.8532 37.0328 29.0617 36.7635C31.2702 36.4942 33.2968 35.4172 34.7425 33.7443C36.1882 32.0715 36.9482 29.9241 36.873 27.7249C36.7977 25.5257 35.8927 23.434 34.336 21.8616C32.7793 20.2892 30.6838 19.35 28.4619 19.2289C26.24 19.1078 24.0528 19.8137 22.3308 21.2074C20.6089 22.6012 19.4769 24.5819 19.1578 26.7596C18.8386 28.9374 19.3555 31.1543 20.6066 32.9741L20.824 33.292L20.1527 35.6293L22.488 34.9749Z" fill="#DF4C55"/>
</svg>
