<svg width="80" height="80" viewBox="0 0 80 80" fill="none" xmlns="http://www.w3.org/2000/svg">
<path fill-rule="evenodd" clip-rule="evenodd" d="M66.6 40.8C66.6 47.6 64.1 53.8 59.9 58.5C58.8 59.8 57.6 61 56.2 62C51.6 65.6 45.9 67.7 39.6 67.7C33.3 67.7 27.6 65.6 23 62C21.7 61 20.4 59.8 19.3 58.5C15.1 53.8 12.6 47.6 12.6 40.8C12.6 25.9 24.7 13.8 39.6 13.8C54.6 13.9 66.6 25.9 66.6 40.8Z" stroke="#DF4C55" stroke-width="2.5127" stroke-miterlimit="10"/>
<path d="M29.3 44.1C31.1225 44.1 32.6 42.6225 32.6 40.8C32.6 38.9775 31.1225 37.5 29.3 37.5C27.4775 37.5 26 38.9775 26 40.8C26 42.6225 27.4775 44.1 29.3 44.1Z" fill="#DF4C55"/>
<path d="M39.7 44.1C41.5226 44.1 43 42.6225 43 40.8C43 38.9775 41.5226 37.5 39.7 37.5C37.8775 37.5 36.4 38.9775 36.4 40.8C36.4 42.6225 37.8775 44.1 39.7 44.1Z" fill="#DF4C55"/>
<path d="M50 44.1C51.8225 44.1 53.2999 42.6225 53.2999 40.8C53.2999 38.9775 51.8225 37.5 50 37.5C48.1774 37.5 46.7 38.9775 46.7 40.8C46.7 42.6225 48.1774 44.1 50 44.1Z" fill="#DF4C55"/>
</svg>
