<svg width="80" height="80" viewBox="0 0 80 80" fill="none" xmlns="http://www.w3.org/2000/svg">
<path d="M55.6 1.5H24.4C21.4177 1.5 19 3.91766 19 6.9V73.1C19 76.0823 21.4177 78.5 24.4 78.5H55.6C58.5823 78.5 61 76.0823 61 73.1V6.9C61 3.91766 58.5823 1.5 55.6 1.5Z" stroke="#DF4C55" stroke-width="2.5" stroke-linecap="round" stroke-linejoin="round"/>
<path d="M24.8 13.8H55.2001" stroke="#DF4C55" stroke-width="2.5" stroke-linecap="round" stroke-linejoin="round"/>
<path d="M24.8 66.4H55.2001" stroke="#DF4C55" stroke-width="2.5" stroke-linecap="round" stroke-linejoin="round"/>
<path d="M38 7.69995H47.6" stroke="#DF4C55" stroke-width="2.5" stroke-linecap="round" stroke-linejoin="round"/>
<path d="M33.4001 8.79998C34.0076 8.79998 34.5 8.30749 34.5 7.69998C34.5 7.09246 34.0076 6.59998 33.4001 6.59998C32.7925 6.59998 32.3 7.09246 32.3 7.69998C32.3 8.30749 32.7925 8.79998 33.4001 8.79998Z" stroke="#DF4C55" stroke-width="2.5" stroke-linecap="round" stroke-linejoin="round"/>
<path d="M40 75C41.436 75 42.6 73.836 42.6 72.4C42.6 70.9641 41.436 69.8 40 69.8C38.5641 69.8 37.4 70.9641 37.4 72.4C37.4 73.836 38.5641 75 40 75Z" stroke="#DF4C55" stroke-width="2.5" stroke-linecap="round" stroke-linejoin="round"/>
<path d="M25.5 32.5V25.8H32.4" stroke="#DF4C55" stroke-width="2.5" stroke-linecap="round" stroke-linejoin="round"/>
<path d="M47.7 25.7H54.4V32.5999" stroke="#DF4C55" stroke-width="2.5" stroke-linecap="round" stroke-linejoin="round"/>
<path d="M54.4 47.6V54.3H47.5" stroke="#DF4C55" stroke-width="2.5" stroke-linecap="round" stroke-linejoin="round"/>
<path d="M32.2 54.4H25.5V47.5" stroke="#DF4C55" stroke-width="2.5" stroke-linecap="round" stroke-linejoin="round"/>
<path d="M34.5 29.8H29.5V34.7701H34.5V29.8Z" stroke="#DF4C55" stroke-width="2" stroke-linecap="round" stroke-linejoin="round"/>
<path d="M34.5 46H29.5V50.97H34.5V46Z" stroke="#DF4C55" stroke-width="2" stroke-linecap="round" stroke-linejoin="round"/>
<path d="M50.6 29.8H45.6V34.7701H50.6V29.8Z" stroke="#DF4C55" stroke-width="2" stroke-linecap="round" stroke-linejoin="round"/>
<path d="M37.9 29.8V32.3H40" stroke="#DF4C55" stroke-width="2" stroke-linecap="round" stroke-linejoin="round"/>
<path d="M41.3 29.8H42.4001V32" stroke="#DF4C55" stroke-width="2" stroke-linecap="round" stroke-linejoin="round"/>
<path d="M29.5 37.7H31.7" stroke="#DF4C55" stroke-width="2" stroke-linecap="round" stroke-linejoin="round"/>
<path d="M29.5 40V42.8" stroke="#DF4C55" stroke-width="2" stroke-linecap="round" stroke-linejoin="round"/>
<path d="M32.7 40.9V42.8H34.5" stroke="#DF4C55" stroke-width="2" stroke-linecap="round" stroke-linejoin="round"/>
<path d="M49.1 37.7H50.6V38.9" stroke="#DF4C55" stroke-width="2" stroke-linecap="round" stroke-linejoin="round"/>
<path d="M50.6 41.4V45.2" stroke="#DF4C55" stroke-width="2" stroke-linecap="round" stroke-linejoin="round"/>
<path d="M48.4 42.8H50.6" stroke="#DF4C55" stroke-width="2" stroke-linecap="round" stroke-linejoin="round"/>
<path d="M48.1 46V48.5H50.6V50.4" stroke="#DF4C55" stroke-width="2" stroke-linecap="round" stroke-linejoin="round"/>
<path d="M37.9 50.4H40.1V48H38.1" stroke="#DF4C55" stroke-width="2" stroke-linecap="round" stroke-linejoin="round"/>
<path d="M45.6 48H43.8V50.4H42.4H45.6" stroke="#DF4C55" stroke-width="2" stroke-linecap="round" stroke-linejoin="round"/>
<path d="M37.9 34.8V37.7001H35V40" stroke="#DF4C55" stroke-width="2" stroke-linecap="round" stroke-linejoin="round"/>
<path d="M40.5 34.8H42.4V37.4001H40.5V40.5H38V42.3" stroke="#DF4C55" stroke-width="2" stroke-linecap="round" stroke-linejoin="round"/>
<path d="M40.1 43.3V45.2001H38" stroke="#DF4C55" stroke-width="2" stroke-linecap="round" stroke-linejoin="round"/>
<path d="M42.4 40.9V45.2H45.4V42.5" stroke="#DF4C55" stroke-width="2" stroke-linecap="round" stroke-linejoin="round"/>
<path d="M45.2 38.9H46.7999" stroke="#DF4C55" stroke-width="2" stroke-linecap="round" stroke-linejoin="round"/>
</svg>
