<svg width="80" height="80" viewBox="0 0 80 80" fill="none" xmlns="http://www.w3.org/2000/svg">
<g clip-path="url(#clip0_8091_63998)">
<path fill-rule="evenodd" clip-rule="evenodd" d="M2.31499 23.7925C3.95591 22.1638 6.1795 21.2505 8.4961 21.2505H19.9429C20.6332 21.2505 21.1929 21.8101 21.1929 22.5005C21.1929 23.1908 20.6332 23.7505 19.9429 23.7505H8.4961C6.83652 23.7505 5.24679 24.4049 4.07612 25.5668C2.90578 26.7285 2.25 28.3019 2.25 29.9406C2.25 31.5793 2.90578 33.1528 4.07612 34.3144C5.24679 35.4763 6.83652 36.1308 8.4961 36.1308H67.2149V23.7505H60.361C59.6707 23.7505 59.111 23.1908 59.111 22.5005C59.111 21.8101 59.6707 21.2505 60.361 21.2505H68.4649C69.1553 21.2505 69.7149 21.8101 69.7149 22.5005V37.3808C69.7149 38.0711 69.1553 38.6308 68.4649 38.6308H8.4961C6.1795 38.6308 3.95591 37.7175 2.31499 36.0888C0.673755 34.4598 -0.25 32.2484 -0.25 29.9406C-0.25 27.6328 0.673755 25.4215 2.31499 23.7925Z" fill="#159570"/>
<path fill-rule="evenodd" clip-rule="evenodd" d="M1 28.6908C1.69036 28.6908 2.25 29.2504 2.25 29.9408V70.56C2.25 72.1987 2.90578 73.7722 4.07612 74.9338C5.24679 76.0957 6.83652 76.7501 8.4961 76.7501H71.8747V63.6225C71.8747 62.9322 72.4343 62.3725 73.1247 62.3725C73.815 62.3725 74.3747 62.9322 74.3747 63.6225V78.0001C74.3747 78.6905 73.815 79.2501 73.1247 79.2501H8.4961C6.1795 79.2501 3.95591 78.3368 2.31499 76.7081C0.673755 75.0792 -0.25 72.8678 -0.25 70.56V29.9408C-0.25 29.2504 0.309644 28.6908 1 28.6908Z" fill="#159570"/>
<path fill-rule="evenodd" clip-rule="evenodd" d="M67.2149 37.3809C67.2149 36.6905 67.7745 36.1309 68.4649 36.1309H73.1246C73.815 36.1309 74.3746 36.6905 74.3746 37.3809V49.3454C74.3746 50.0358 73.815 50.5954 73.1246 50.5954C72.4343 50.5954 71.8746 50.0358 71.8746 49.3454V38.6309H68.4649C67.7745 38.6309 67.2149 38.0712 67.2149 37.3809Z" fill="#159570"/>
<path fill-rule="evenodd" clip-rule="evenodd" d="M8.46167 60.8072C8.46167 60.1168 9.02131 59.5572 9.71167 59.5572H45.0649C45.7553 59.5572 46.3149 60.1168 46.3149 60.8072V70.2582C46.3149 70.9485 45.7553 71.5082 45.0649 71.5082H9.71167C9.02131 71.5082 8.46167 70.9485 8.46167 70.2582V60.8072ZM10.9617 62.0572V69.0082H43.8149V62.0572H10.9617Z" fill="#159570"/>
<path fill-rule="evenodd" clip-rule="evenodd" d="M68.1611 51.098C66.7164 51.098 65.3328 51.6677 64.3141 52.6788C63.2957 53.6896 62.7253 55.0585 62.7253 56.4838C62.7253 57.1898 62.8654 57.8891 63.1378 58.5418C63.4103 59.1946 63.8098 59.7883 64.3141 60.2889C64.8184 60.7894 65.4177 61.187 66.0778 61.4584C66.738 61.7298 67.4459 61.8696 68.1611 61.8696H77.75V51.098H68.1611ZM62.553 50.9044C64.0419 49.4266 66.0594 48.598 68.1611 48.598H79C79.6904 48.598 80.25 49.1577 80.25 49.848V63.1196C80.25 63.81 79.6904 64.3696 79 64.3696H68.1611C67.1202 64.3696 66.0894 64.1662 65.1272 63.7706C64.1651 63.3751 63.2903 62.7951 62.553 62.0632C61.8156 61.3314 61.2302 60.4621 60.8307 59.5047C60.4311 58.5472 60.2253 57.5207 60.2253 56.4838C60.2253 54.3893 61.0637 52.3826 62.553 50.9044Z" fill="#159570"/>
<path fill-rule="evenodd" clip-rule="evenodd" d="M50.8512 6.61647C47.6948 4.41132 43.9245 3.23445 40.0626 3.25016C36.2008 3.26586 32.4403 4.47337 29.3023 6.7041C26.1644 8.93473 23.8047 12.0777 22.5484 15.6963C21.2921 19.3149 21.2009 23.2313 22.2872 26.9035C23.3736 30.5758 25.5842 33.8234 28.6146 36.1954C29.1582 36.621 29.254 37.4066 28.8285 37.9502C28.4029 38.4939 27.6173 38.5896 27.0737 38.1641C23.6356 35.4729 21.1244 31.7858 19.8899 27.6127C18.6554 23.4395 18.7591 18.9883 20.1867 14.8764C21.6142 10.7646 24.2942 7.19687 27.8538 4.66648C31.4132 2.13617 35.6763 0.767977 40.0525 0.750176C44.4286 0.732375 48.7028 2.06584 52.283 4.56708C55.8633 7.0684 58.5727 10.6141 60.0341 14.7142C61.4955 18.8143 61.636 23.2645 60.436 27.4476C59.236 31.6306 56.7554 35.3381 53.3395 38.0572C52.7994 38.4871 52.013 38.3978 51.5831 37.8577C51.1531 37.3176 51.2424 36.5312 51.7825 36.1012C54.7932 33.7046 56.9769 30.4392 58.0329 26.7582C59.0889 23.0774 58.9653 19.1618 57.6792 15.5535C56.393 11.9452 54.0074 8.82153 50.8512 6.61647Z" fill="#159570"/>
<path fill-rule="evenodd" clip-rule="evenodd" d="M32.4695 13.6527C32.4695 12.9624 33.0291 12.4027 33.7195 12.4027H40.6078C41.9572 12.4027 43.2532 12.9347 44.2103 13.8846C45.1676 14.8347 45.7071 16.1255 45.7071 17.4733C45.7071 18.6534 45.2936 19.7897 44.5481 20.692C45.1243 20.9833 45.6548 21.3677 46.116 21.8354C47.2168 22.9518 47.8348 24.4537 47.8344 26.0197L47.8341 26.046C47.8014 27.5898 47.1689 29.0595 46.0716 30.1486C44.9746 31.2374 43.498 31.8618 41.9508 31.8941L41.9247 31.8944H33.7195C33.0291 31.8944 32.4695 31.3348 32.4695 30.6444C32.4695 29.954 33.0291 29.3944 33.7195 29.3944H41.9106C42.8145 29.3724 43.6736 29.0063 44.3104 28.3742C44.9467 27.7427 45.3122 26.8946 45.3344 26.006C45.3312 25.1046 44.9741 24.238 44.3359 23.5907C43.6971 22.9429 42.8271 22.5665 41.9105 22.5439H40.6078C39.9174 22.5439 39.3578 21.9843 39.3578 21.2939C39.3578 20.6036 39.9174 20.0439 40.6078 20.0439C41.3002 20.0439 41.9624 19.7709 42.4491 19.2877C42.9356 18.8049 43.2071 18.1521 43.2071 17.4733C43.2071 16.7946 42.9356 16.1417 42.4491 15.6589C41.9624 15.1758 41.3002 14.9027 40.6078 14.9027H33.7195C33.0291 14.9027 32.4695 14.3431 32.4695 13.6527Z" fill="#159570"/>
<path fill-rule="evenodd" clip-rule="evenodd" d="M35.5428 9.78857C36.2332 9.78857 36.7928 10.3482 36.7928 11.0386V32.4541C36.7928 33.1445 36.2332 33.7041 35.5428 33.7041C34.8525 33.7041 34.2928 33.1445 34.2928 32.4541V11.0386C34.2928 10.3482 34.8525 9.78857 35.5428 9.78857Z" fill="#159570"/>
<path fill-rule="evenodd" clip-rule="evenodd" d="M42.1273 9.78857C42.8176 9.78857 43.3773 10.3482 43.3773 11.0386V13.6527C43.3773 14.343 42.8176 14.9027 42.1273 14.9027C41.4369 14.9027 40.8773 14.343 40.8773 13.6527V11.0386C40.8773 10.3482 41.4369 9.78857 42.1273 9.78857Z" fill="#159570"/>
<path fill-rule="evenodd" clip-rule="evenodd" d="M42.1273 29.3944C42.8176 29.3944 43.3773 29.9541 43.3773 30.6444V32.4542C43.3773 33.1445 42.8176 33.7042 42.1273 33.7042C41.4369 33.7042 40.8773 33.1445 40.8773 32.4542V30.6444C40.8773 29.9541 41.4369 29.3944 42.1273 29.3944Z" fill="#159570"/>
</g>
<defs>
<clipPath id="clip0_8091_63998">
<rect width="80" height="80" fill="white"/>
</clipPath>
</defs>
</svg>
