<svg width="80" height="80" viewBox="0 0 80 80" fill="none" xmlns="http://www.w3.org/2000/svg">
<path d="M45.7 59.1362V59.8339C45.674 60.7153 45.3043 61.5518 44.6695 62.1659C44.0347 62.78 43.1847 63.1233 42.3 63.1229H31.2C30.3153 63.1233 29.4653 62.78 28.8305 62.1659C28.1957 61.5518 27.826 60.7153 27.8 59.8339V59.1362H2V66.6113C2 67.5101 2.35821 68.372 2.99584 69.0075C3.63346 69.643 4.49826 70 5.4 70H68.1C68.5465 70 68.9886 69.9124 69.4011 69.7421C69.8136 69.5718 70.1884 69.3222 70.5042 69.0075C70.8199 68.6928 71.0703 68.3193 71.2412 67.9081C71.4121 67.497 71.5 67.0563 71.5 66.6113V59.1362H45.7Z" stroke="#DF4C55" stroke-width="3" stroke-linecap="round" stroke-linejoin="round"/>
<path d="M72.7 10H44C42.5678 10 41.1943 10.567 40.1816 11.5764C39.1689 12.5857 38.6 13.9547 38.6 15.3821V48.4718L48.5 38.6047H72.7C73.396 38.6047 74.0852 38.468 74.7282 38.2026C75.3712 37.9371 75.9555 37.548 76.4476 37.0575C76.9398 36.567 77.3302 35.9846 77.5965 35.3437C77.8629 34.7029 78 34.016 78 33.3223V15.3821C78.0002 13.9718 77.445 12.6177 76.4539 11.6112C75.4627 10.6047 74.1147 10.0261 72.7 10V10Z" stroke="#DF4C55" stroke-width="3" stroke-linecap="round" stroke-linejoin="round"/>
<path d="M50 26.9435C51.2703 26.9435 52.3 25.9172 52.3 24.6511C52.3 23.3851 51.2703 22.3588 50 22.3588C48.7298 22.3588 47.7 23.3851 47.7 24.6511C47.7 25.9172 48.7298 26.9435 50 26.9435Z" fill="#DF4C55"/>
<path d="M58.3 26.9435C59.5703 26.9435 60.6 25.9172 60.6 24.6511C60.6 23.3851 59.5703 22.3588 58.3 22.3588C57.0297 22.3588 56 23.3851 56 24.6511C56 25.9172 57.0297 26.9435 58.3 26.9435Z" fill="#DF4C55"/>
<path d="M66.7 26.9435C67.9703 26.9435 69 25.9172 69 24.6511C69 23.3851 67.9703 22.3588 66.7 22.3588C65.4298 22.3588 64.4 23.3851 64.4 24.6511C64.4 25.9172 65.4298 26.9435 66.7 26.9435Z" fill="#DF4C55"/>
<path d="M5.70001 54.8505V20.0664C5.72607 19.1058 6.12737 18.1932 6.81845 17.523C7.50953 16.8529 8.43579 16.478 9.40001 16.4784H33.1" stroke="#DF4C55" stroke-width="3" stroke-linecap="round" stroke-linejoin="round"/>
<path d="M67.9 59.1362V43.0897" stroke="#DF4C55" stroke-width="3" stroke-linecap="round" stroke-linejoin="round"/>
<path d="M22.4 42.7906C26.3212 42.7906 29.5 39.6224 29.5 35.7142C29.5 31.806 26.3212 28.6378 22.4 28.6378C18.4788 28.6378 15.3 31.806 15.3 35.7142C15.3 39.6224 18.4788 42.7906 22.4 42.7906Z" stroke="#DF4C55" stroke-width="3" stroke-linecap="round" stroke-linejoin="round"/>
<path d="M32.4 54.8505V53.1561C32.4132 51.996 32.1954 50.8447 31.7591 49.7691C31.3228 48.6934 30.6767 47.7148 29.8582 46.8897C29.0397 46.0647 28.0651 45.4097 26.9909 44.9627C25.9167 44.5158 24.7641 44.2856 23.6 44.2857H21.1C18.7396 44.2857 16.4758 45.2203 14.8068 46.8838C13.1377 48.5473 12.2 50.8036 12.2 53.1561V54.8505" stroke="#DF4C55" stroke-width="3" stroke-linecap="round" stroke-linejoin="round"/>
</svg>
