<svg width="56" height="56" viewBox="0 0 56 56" fill="none" xmlns="http://www.w3.org/2000/svg">
<path d="M31.7643 38.0927C31.7114 38.0831 31.6572 38.0831 31.6043 38.0927C31.5477 38.0924 31.4916 38.1038 31.4397 38.1261C31.3878 38.1485 31.3413 38.1814 31.3031 38.2226L31.2278 38.334C30.775 39.3746 30.1898 40.3541 29.4863 41.2489C28.9975 41.7853 28.3742 42.1855 27.679 42.4093C27.5215 42.4653 27.3675 42.5304 27.2178 42.6042C26.9504 42.7347 26.7108 42.9143 26.5118 43.1334C26.314 43.3464 26.1548 43.5913 26.0411 43.8575L25.0245 46.1318L15.2724 41.9173L15.3854 41.6295C15.4828 41.3803 15.5369 41.1167 15.5454 40.8497C15.5775 40.4605 15.5457 40.0686 15.4513 39.6894V39.6244C15.2767 38.7793 15.0504 37.9454 14.7735 37.1272C14.5664 36.4681 14.3593 35.7905 14.1711 35.0664C13.2297 31.2696 12.9191 28.5683 13.3521 27.1294C13.6236 26.078 13.7158 24.9894 13.6251 23.9082C13.5122 23.2825 13.5841 22.638 13.8322 22.0515C13.9144 21.9294 14.0265 21.8297 14.1581 21.7615C14.2897 21.6934 14.4366 21.659 14.5852 21.6617C14.9995 21.7265 15.3947 21.8786 15.744 22.1077C16.0932 22.3368 16.3883 22.6374 16.6091 22.9891C17.0787 23.6348 17.3916 24.3782 17.5238 25.1621C17.656 25.9459 17.6039 26.7492 17.3716 27.51C17.3393 27.6001 17.3393 27.6984 17.3716 27.7885C17.7614 28.4946 18.0016 29.2716 18.0775 30.0721C18.0646 30.1365 18.0646 30.2027 18.0775 30.2671V30.3135C18.1051 30.4179 18.1726 30.5077 18.2658 30.5641C19.3121 31.2056 20.2282 32.0335 20.9674 33.0056C21.6952 33.8957 22.1375 34.9795 22.2381 36.1187C22.3387 37.2579 22.093 38.4007 21.5322 39.4016C21.5115 39.4484 21.5008 39.499 21.5008 39.5501C21.5008 39.6012 21.5115 39.6518 21.5322 39.6986C21.5467 39.7489 21.5719 39.7955 21.6059 39.8355C21.64 39.8755 21.6822 39.9079 21.7299 39.9307H21.8616H21.9087C21.9822 39.9296 22.054 39.9093 22.1169 39.8717C22.1797 39.8342 22.2314 39.7809 22.2664 39.7172C22.8895 38.5781 23.1592 37.2836 23.042 35.9945C22.9249 34.7054 22.426 33.4788 21.6075 32.4671C20.856 31.4992 19.9461 30.6615 18.9153 29.9886L18.84 29.9421V29.8493C18.7482 29.0715 18.5221 28.3148 18.1717 27.6121V27.5193V27.4079C18.3819 26.5722 18.4067 25.7016 18.2442 24.8557C18.0817 24.0097 17.7359 23.2084 17.2304 22.5064C16.9368 22.0519 16.5449 21.6672 16.0826 21.3799C15.6204 21.0926 15.0994 20.9098 14.557 20.8447C14.2808 20.8435 14.0083 20.9078 13.7626 21.0322C13.5168 21.1566 13.305 21.3375 13.145 21.5595C12.7728 22.2874 12.6474 23.114 12.7873 23.9174C12.8767 24.9136 12.7972 25.9176 12.552 26.888C11.8084 29.4316 13.0415 34.1567 13.4933 35.5491V35.6141C13.6628 36.2732 13.851 36.8487 14.0299 37.4057C14.2911 38.1712 14.5018 38.9527 14.6606 39.7451C14.721 40.2384 14.721 40.737 14.6606 41.2304L14.5382 41.5738L13.8228 41.2582C13.7699 41.2486 13.7157 41.2486 13.6628 41.2582C13.6061 41.2579 13.55 41.2693 13.4982 41.2917C13.4463 41.3141 13.3997 41.3469 13.3615 41.3882C13.3311 41.4161 13.3085 41.4513 13.2956 41.4903L10.5282 47.6728C10.4906 47.7716 10.4906 47.8804 10.5282 47.9791C10.5718 48.076 10.6484 48.1548 10.7447 48.2019L24.0267 53.9853C24.0943 54.0049 24.1662 54.0049 24.2338 53.9853C24.289 53.9855 24.3436 53.974 24.394 53.9515C24.4443 53.9291 24.4892 53.8963 24.5256 53.8553C24.558 53.8236 24.5837 53.7857 24.6009 53.7439L27.359 47.5428C27.3799 47.4944 27.3907 47.4423 27.3907 47.3897C27.3907 47.337 27.3799 47.2849 27.359 47.2365C27.3401 47.1868 27.3112 47.1414 27.274 47.1031C27.2368 47.0648 27.192 47.0344 27.1425 47.0137L25.7869 46.4289L26.813 44.1174C26.8812 43.9473 26.9837 43.7925 27.1142 43.6625C27.2497 43.5107 27.4124 43.3848 27.5943 43.2912L28.1497 43.0498C28.8976 42.776 29.5688 42.3305 30.1076 41.7502C30.8673 40.7972 31.5 39.7521 31.9902 38.6404C32.0147 38.5902 32.0282 38.5355 32.0299 38.4798C32.0317 38.4242 32.0216 38.3688 32.0003 38.3172C31.979 38.2656 31.947 38.219 31.9064 38.1803C31.8658 38.1416 31.8174 38.1118 31.7643 38.0927ZM26.4176 47.58L23.989 53.057L11.4318 47.6264L13.8793 42.1494L26.4176 47.58Z" fill="#DF4C55"/>
<path d="M25.8057 5.11923C25.8057 5.03293 25.7798 4.94858 25.7312 4.87683C25.6826 4.80508 25.6135 4.74916 25.5326 4.71613C25.4518 4.68311 25.3628 4.67447 25.277 4.69131C25.1912 4.70814 25.1124 4.74969 25.0505 4.81071C24.9886 4.87173 24.9465 4.94947 24.9294 5.03411C24.9123 5.11874 24.9211 5.20647 24.9546 5.28619C24.9881 5.36592 25.0448 5.43406 25.1175 5.482C25.1903 5.52994 25.2758 5.55553 25.3633 5.55553C25.4807 5.55553 25.5932 5.50956 25.6762 5.42774C25.7591 5.34592 25.8057 5.23494 25.8057 5.11923Z" fill="#DF4C55"/>
<path d="M31.7642 5.55553C31.8692 5.54029 31.9652 5.48831 32.0346 5.40906C32.104 5.32981 32.1422 5.22858 32.1422 5.12386C32.1422 5.01915 32.104 4.91792 32.0346 4.83867C31.9652 4.75942 31.8692 4.70744 31.7642 4.6922H27.4623C27.3995 4.68309 27.3354 4.68743 27.2744 4.70494C27.2134 4.72245 27.1569 4.75271 27.1088 4.79367C27.0607 4.83463 27.0221 4.88532 26.9957 4.9423C26.9693 4.99928 26.9556 5.0612 26.9556 5.12386C26.9556 5.18653 26.9693 5.24845 26.9957 5.30543C27.0221 5.36241 27.0607 5.4131 27.1088 5.45406C27.1569 5.49502 27.2134 5.52528 27.2744 5.54279C27.3354 5.5603 27.3995 5.56464 27.4623 5.55553H31.7642Z" fill="#DF4C55"/>
<path d="M27.2742 33.5626C27.2742 33.7755 27.3382 33.9837 27.4582 34.1608C27.5782 34.3379 27.7487 34.4759 27.9482 34.5574C28.1478 34.6389 28.3673 34.6602 28.5791 34.6187C28.7909 34.5771 28.9855 34.4746 29.1382 34.324C29.2909 34.1734 29.3949 33.9815 29.4371 33.7726C29.4792 33.5637 29.4576 33.3472 29.3749 33.1505C29.2923 32.9537 29.1523 32.7855 28.9727 32.6672C28.7932 32.5489 28.5821 32.4857 28.3661 32.4857C28.0765 32.4857 27.7988 32.5992 27.594 32.8011C27.3892 33.0031 27.2742 33.277 27.2742 33.5626Z" fill="#DF4C55"/>
<path d="M35.0871 6.94807H21.6451C21.5293 6.94297 21.4161 6.98292 21.3298 7.0593C21.2435 7.13569 21.1911 7.24242 21.1838 7.35652C21.1911 7.47062 21.2435 7.57735 21.3298 7.65373C21.4161 7.73012 21.5293 7.77007 21.6451 7.76497H35.0871C35.1997 7.7652 35.3082 7.72308 35.3904 7.64718C35.4726 7.57129 35.5224 7.46734 35.5295 7.35652C35.5224 7.2457 35.4726 7.14175 35.3904 7.06586C35.3082 6.98996 35.1997 6.94784 35.0871 6.94807Z" fill="#DF4C55"/>
<path d="M35.5297 30.9354C35.5298 30.8287 35.4874 30.7262 35.4118 30.6498C35.3361 30.5735 35.2332 30.5294 35.125 30.527H23.3867C23.2785 30.5294 23.1755 30.5735 23.0999 30.6498C23.0242 30.7262 22.9819 30.8287 22.9819 30.9354C22.9819 31.0413 23.0246 31.1428 23.1005 31.2177C23.1764 31.2925 23.2794 31.3346 23.3867 31.3346H35.1438C35.2478 31.3298 35.346 31.2857 35.4179 31.2113C35.4898 31.137 35.5298 31.0382 35.5297 30.9354Z" fill="#DF4C55"/>
<path d="M26.1164 17.2336C25.6997 16.9372 25.1873 16.8018 24.6762 16.853C24.2468 16.8478 23.8179 16.8851 23.396 16.9644V21.968H24.0643V19.8886C24.2408 19.9245 24.4208 19.9401 24.6009 19.935C24.8875 19.9521 25.1747 19.9115 25.4449 19.8158C25.7152 19.72 25.9628 19.5711 26.1729 19.378C26.3106 19.2329 26.4174 19.062 26.4869 18.8754C26.5565 18.6889 26.5873 18.4904 26.5777 18.2919C26.5837 18.093 26.5455 17.8952 26.4658 17.7124C26.3861 17.5296 26.2669 17.3662 26.1164 17.2336ZM24.6103 19.4059C24.4265 19.4137 24.2426 19.3949 24.0643 19.3502V17.3821C24.2688 17.3414 24.4771 17.3227 24.6856 17.3265C25.4198 17.3265 25.8999 17.6514 25.8999 18.329C25.8999 19.0067 25.4198 19.4059 24.6103 19.4059Z" fill="#DF4C55"/>
<path d="M28.1213 16.8531L26.3799 21.9309H27.0576L27.5942 20.3342H29.4109L29.9663 21.9309H30.6723L28.9403 16.8531H28.1213ZM27.7354 19.8237L28.2437 18.3569C28.3378 18.0413 28.4225 17.7257 28.4884 17.4286C28.5637 17.7164 28.6391 18.0228 28.7426 18.3569L29.2603 19.8144L27.7354 19.8237Z" fill="#DF4C55"/>
<path d="M32.5929 21.9216V19.7587L34.3155 16.8531H33.5624L32.8188 18.2548C32.6211 18.6447 32.4422 18.9696 32.301 19.3038C32.141 18.9511 31.9716 18.6447 31.7833 18.2548L31.0491 16.8531H30.2866L31.9245 19.7773V21.9309L32.5929 21.9216Z" fill="#DF4C55"/>
<path d="M36.1509 15.5999C36.0733 15.678 36.0298 15.783 36.0298 15.8923C36.0298 16.0016 36.0733 16.1066 36.1509 16.1847C36.5747 16.5982 36.9111 17.0905 37.1407 17.633C37.3703 18.1756 37.4885 18.7577 37.4885 19.3456C37.4885 19.9335 37.3703 20.5156 37.1407 21.0581C36.9111 21.6007 36.5747 22.093 36.1509 22.5065C36.1113 22.5445 36.0799 22.59 36.0584 22.6402C36.0369 22.6904 36.0259 22.7444 36.0259 22.7989C36.0259 22.8534 36.0369 22.9073 36.0584 22.9576C36.0799 23.0078 36.1113 23.0533 36.1509 23.0913C36.1885 23.1302 36.2338 23.1609 36.284 23.1817C36.3342 23.2025 36.3882 23.2128 36.4427 23.212C36.4986 23.213 36.554 23.2028 36.6058 23.182C36.6576 23.1613 36.7046 23.1304 36.7439 23.0913C37.2445 22.6004 37.6418 22.0168 37.9129 21.374C38.184 20.7311 38.3236 20.0418 38.3236 19.3456C38.3236 18.6494 38.184 17.96 37.9129 17.3172C37.6418 16.6744 37.2445 16.0908 36.7439 15.5999C36.6647 15.5233 36.5583 15.4805 36.4474 15.4805C36.3365 15.4805 36.2301 15.5233 36.1509 15.5999Z" fill="#DF4C55"/>
<path d="M39.2951 13.5483C39.2135 13.4879 39.1126 13.4586 39.0109 13.4658C38.9092 13.4729 38.8135 13.516 38.7414 13.5871C38.6693 13.6582 38.6256 13.7525 38.6184 13.8528C38.6112 13.9531 38.6409 14.0527 38.7021 14.1331C39.396 14.8194 39.9452 15.6343 40.3182 16.5309C40.6912 17.4275 40.8806 18.388 40.8753 19.3571C40.87 20.3263 40.6703 21.2848 40.2876 22.1774C39.905 23.07 39.3469 23.8791 38.6456 24.558C38.5862 24.6159 38.5455 24.6897 38.5286 24.7704C38.5116 24.851 38.5192 24.9347 38.5504 25.0111C38.5816 25.0875 38.635 25.153 38.7038 25.1996C38.7727 25.2462 38.8539 25.2716 38.9374 25.2728C39.0462 25.2686 39.1499 25.2257 39.2292 25.1521C40.0105 24.3969 40.6324 23.4966 41.0589 22.5031C41.4855 21.5096 41.7083 20.4426 41.7144 19.3637C41.7205 18.2849 41.5099 17.2155 41.0946 16.2173C40.6794 15.2192 40.0678 14.312 39.2951 13.5483Z" fill="#DF4C55"/>
<path d="M42.2034 11.4503C42.1218 11.39 42.0209 11.3607 41.9192 11.3678C41.8175 11.3749 41.7218 11.418 41.6497 11.4891C41.5776 11.5602 41.5339 11.6546 41.5267 11.7549C41.5195 11.8552 41.5492 11.9547 41.6104 12.0351C42.5847 12.9971 43.356 14.14 43.8797 15.3978C44.4033 16.6556 44.6689 18.0033 44.661 19.363C44.6531 20.7226 44.3719 22.0673 43.8338 23.3191C43.2956 24.5709 42.5111 25.705 41.5256 26.656C41.4861 26.694 41.4546 26.7395 41.4332 26.7897C41.4117 26.8399 41.4006 26.8939 41.4006 26.9484C41.4006 27.0029 41.4117 27.0568 41.4332 27.1071C41.4546 27.1573 41.4861 27.2027 41.5256 27.2408C41.5632 27.2796 41.6085 27.3104 41.6588 27.3312C41.709 27.352 41.763 27.3623 41.8174 27.3615C41.9285 27.3629 42.036 27.3232 42.1187 27.2501C43.1688 26.23 44.0093 25.0196 44.5943 23.6854C45.4775 21.6432 45.7217 19.3874 45.2957 17.2073C44.8697 15.0273 43.7929 13.0226 42.2034 11.4503Z" fill="#DF4C55"/>
<path d="M37.7792 27.1294C37.6694 27.1294 37.564 27.1724 37.4863 27.249C37.4087 27.3256 37.365 27.4295 37.365 27.5379V34.036C37.365 34.5284 37.1667 35.0006 36.8136 35.3488C36.4606 35.697 35.9817 35.8926 35.4824 35.8926H25.4009C25.2927 35.895 25.1897 35.9391 25.1141 36.0155C25.0384 36.0918 24.9961 36.1943 24.9961 36.3011C24.9961 36.4069 25.0387 36.5085 25.1146 36.5833C25.1906 36.6582 25.2935 36.7002 25.4009 36.7002H35.5295C36.236 36.7002 36.9136 36.4235 37.4131 35.9308C37.9127 35.4381 38.1934 34.7699 38.1934 34.0731V27.575C38.1986 27.5183 38.1918 27.4612 38.1734 27.4073C38.1549 27.3533 38.1252 27.3038 38.0862 27.2618C38.0472 27.2199 37.9998 27.1864 37.9469 27.1636C37.894 27.1408 37.8369 27.1292 37.7792 27.1294Z" fill="#DF4C55"/>
<path d="M18.9532 21.4296C19.0631 21.4296 19.1684 21.3866 19.2461 21.31C19.3237 21.2334 19.3674 21.1295 19.3674 21.0211V4.63654C19.3674 4.14413 19.5657 3.6719 19.9188 3.32371C20.2719 2.97553 20.7507 2.77992 21.25 2.77992H35.5298C36.0292 2.77992 36.508 2.97553 36.8611 3.32371C37.2141 3.6719 37.4125 4.14413 37.4125 4.63654V11.1997C37.4149 11.3064 37.4597 11.4079 37.5371 11.4825C37.6145 11.5571 37.7184 11.5989 37.8267 11.5988C37.934 11.5988 38.037 11.5568 38.1129 11.4819C38.1888 11.4071 38.2314 11.3055 38.2314 11.1997V4.63654C38.2315 4.28797 38.1614 3.94285 38.0253 3.62116C37.8892 3.29947 37.6897 3.00759 37.4385 2.76241C37.1872 2.51723 36.8892 2.32362 36.5616 2.19278C36.234 2.06194 35.8833 1.99647 35.5298 2.00015H21.2124C20.5115 2.01232 19.8436 2.29544 19.3524 2.78855C18.8612 3.28165 18.586 3.94529 18.5861 4.63654V21.0211C18.5833 21.1225 18.6196 21.2211 18.6878 21.2969C18.756 21.3728 18.8509 21.4202 18.9532 21.4296Z" fill="#DF4C55"/>
</svg>
