<svg width="80" height="80" viewBox="0 0 80 80" fill="none" xmlns="http://www.w3.org/2000/svg">
<path fill-rule="evenodd" clip-rule="evenodd" d="M55.5001 59.8C54.6001 60.9 53.6001 61.8 52.5001 62.7C48.7001 65.6 44.0001 67.4 38.8001 67.4C33.6001 67.4 28.9001 65.6 25.1001 62.7C24.0001 61.8 23.0001 60.9 22.1001 59.8C22.8001 48.2 54.8001 48.2 55.5001 59.8Z" stroke="#DF4C55" stroke-width="2.4909" stroke-miterlimit="10"/>
<path d="M38.8001 46.9C43.4393 46.9 47.2001 43.1392 47.2001 38.5C47.2001 33.8608 43.4393 30.1 38.8001 30.1C34.161 30.1 30.4001 33.8608 30.4001 38.5C30.4001 43.1392 34.161 46.9 38.8001 46.9Z" stroke="#DF4C55" stroke-width="2.4909" stroke-miterlimit="10"/>
<path d="M17.9 56.1C14.3 51.6 12.2 45.8 12.2 39.6C12.2 24.9 24.0999 13 38.7999 13C53.4999 13 65.4 24.9 65.4 39.6C65.4 45.6 63.4 51.2 60 55.6" stroke="#DF4C55" stroke-width="2.4909" stroke-miterlimit="10" stroke-linecap="round" stroke-linejoin="round"/>
</svg>
