<svg width="80" height="80" viewBox="0 0 80 80" fill="none" xmlns="http://www.w3.org/2000/svg">
<path fill-rule="evenodd" clip-rule="evenodd" d="M4.05005 2.30005C4.05005 1.60969 4.60969 1.05005 5.30005 1.05005H35.8C36.4904 1.05005 37.05 1.60969 37.05 2.30005C37.05 2.9904 36.4904 3.55005 35.8 3.55005H6.55005V76.3169L13.8673 72.022C14.2562 71.7938 14.7378 71.7926 15.1277 72.0191L23.7896 77.0486L32.1569 72.0282C32.5606 71.786 33.0661 71.7911 33.4648 72.0414L41.4352 77.0461L50.3872 72.0106C50.7786 71.7904 51.2581 71.7971 51.6432 72.0282L58.75 76.2923V48.7001C58.75 48.0097 59.3097 47.4501 60 47.4501C60.6904 47.4501 61.25 48.0097 61.25 48.7001V78.5C61.25 78.9504 61.0078 79.3659 60.6159 79.5878C60.224 79.8097 59.7431 79.8036 59.3569 79.5719L50.9798 74.5456L42.0129 79.5895C41.6136 79.8141 41.1234 79.8023 40.7353 79.5587L32.7852 74.5667L24.4432 79.5719C24.0528 79.8061 23.566 79.8096 23.1724 79.581L14.5035 74.5475L5.9328 79.5781C5.54628 79.8049 5.06788 79.8075 4.67894 79.5848C4.29 79.3621 4.05005 78.9482 4.05005 78.5V2.30005Z" fill="#DF4C55"/>
<path d="M53.7 43.5C65.2979 43.5 74.6999 34.098 74.6999 22.5C74.6999 10.902 65.2979 1.5 53.7 1.5C42.102 1.5 32.7 10.902 32.7 22.5C32.7 34.098 42.102 43.5 53.7 43.5Z" stroke="#DF4C55" stroke-width="2.5" stroke-linecap="round" stroke-linejoin="round"/>
<path fill-rule="evenodd" clip-rule="evenodd" d="M53.7 7.05005C54.3903 7.05005 54.95 7.60969 54.95 8.30005V21.8196L62.5785 26.7502C63.1583 27.125 63.3245 27.8988 62.9498 28.4786C62.575 29.0584 61.8012 29.2246 61.2214 28.8499L53.0214 23.5499C52.6651 23.3196 52.45 22.9243 52.45 22.5V8.30005C52.45 7.60969 53.0096 7.05005 53.7 7.05005Z" fill="#DF4C55"/>
<path d="M14.8 14.7H26" stroke="#DF4C55" stroke-width="2.5" stroke-linecap="round" stroke-linejoin="round"/>
<path d="M14.8 21.6H26" stroke="#DF4C55" stroke-width="2.5" stroke-linecap="round" stroke-linejoin="round"/>
<path d="M14.8 33.5H28" stroke="#DF4C55" stroke-width="2.5" stroke-linecap="round" stroke-linejoin="round"/>
<path d="M14.8 40.4H30.6" stroke="#DF4C55" stroke-width="2.5" stroke-linecap="round" stroke-linejoin="round"/>
<path d="M14.8 52.3H48.7001" stroke="#DF4C55" stroke-width="2.5" stroke-linecap="round" stroke-linejoin="round"/>
<path d="M14.8 59.2H39.8" stroke="#DF4C55" stroke-width="2.5" stroke-linecap="round" stroke-linejoin="round"/>
</svg>
