<svg width="80" height="80" viewBox="0 0 80 80" fill="none" xmlns="http://www.w3.org/2000/svg">
<path d="M34.5 50.4001C33.3 50.4001 32.3 49.6001 32 48.4001L31.1 44.8C29.9 44.8 28.6 44.6001 27.4 44.2001L25.5 47.3C25 48.1 24.2 48.6 23.3 48.6C22.8 48.6 22.4 48.5 22 48.2001L18.5 46.1C17.9 45.7 17.5 45.2001 17.3 44.5C17.1 43.8 17.2 43.1 17.6 42.5L19.5 39.4001C18.7 38.5 17.9 37.5001 17.3 36.4001L13.7 37.3C13.5 37.4 13.3 37.4001 13.1 37.4001C11.9 37.4001 10.9 36.6001 10.6 35.4001L9.60005 31.4C9.30005 30 10.1 28.6 11.5 28.3L15.1 27.4C15.1 26.2 15.3 24.9001 15.7 23.7001L12.6 21.8C12 21.4 11.6 20.9 11.4 20.2C11.2 19.5 11.3 18.8 11.7 18.2L13.8 14.7C14.3 13.9 15.1 13.4 16 13.4C16.5 13.4 16.9 13.5 17.3 13.8L20.4 15.7C21.3 14.9 22.3 14.1 23.4 13.5L22.6 10C22.3 8.60005 23.1 7.20005 24.5 6.90005L28.5 5.90005C28.7 5.80005 28.9 5.80005 29.1 5.80005C30.3 5.80005 31.3 6.60005 31.6 7.80005L32.5 11.4C33.7 11.4 35 11.6 36.2 12L38.1 8.90005C38.6 8.10005 39.4 7.60005 40.3 7.60005C40.8 7.60005 41.2 7.70005 41.6 8.00005L45.1 10.1C45.7 10.5 46.1 11 46.3 11.7C46.5 12.4 46.4 13.1 46 13.7L44.1 16.8C44.9 17.7 45.7 18.7 46.3 19.8L49.9 18.9C50.1 18.8 50.3 18.8 50.5 18.8C51.7 18.8 52.7 19.6 53 20.8L54 24.8C54.2 25.5 54.1 26.2 53.7 26.8C53.3 27.4 52.8 27.8 52.1 28L48.5 28.9C48.5 30.1 48.3 31.4 47.9 32.6L51 34.5C51.6 34.9 52 35.4 52.2 36.1C52.4 36.8 52.3 37.5 51.9 38.1L49.8 41.6C49.3 42.4 48.5 42.9001 47.6 42.9001C47.1 42.9001 46.7 42.8 46.3 42.5L43.2 40.6C42.3 41.4 41.3 42.2001 40.2 42.8L41.1 46.4001C41.4 47.8001 40.6 49.2001 39.2 49.5L35.2 50.5C35 50.4001 34.8 50.4001 34.5 50.4001ZM27.1 42.8C27.2 42.8 27.2 42.8 27.3 42.8C28.7 43.2001 30.2 43.5 31.7 43.5C32 43.5 32.3 43.7001 32.4 44L33.4 48.1C33.5 48.6 34 49 34.6 49C34.7 49 34.8 49 34.9 49L38.9 48C39.5 47.8 39.9 47.2001 39.8 46.5L38.8 42.4001C38.7 42.1001 38.9 41.8 39.2 41.6C40.5 40.9 41.7 40 42.7 39C42.9 38.8 43.3 38.7001 43.6 38.9001L47.2 41.1C47.4 41.2 47.6 41.3 47.8 41.3C48.2 41.3 48.6 41.1001 48.8 40.7001L50.9 37.2001C51.1 36.9001 51.1 36.6 51 36.3C50.9 36 50.7 35.7 50.5 35.6L46.9 33.4001C46.6 33.2001 46.5 32.9 46.6 32.6C47 31.2 47.3 29.7001 47.3 28.2001C47.3 27.9001 47.5 27.6 47.8 27.5L51.9 26.5C52.2 26.4 52.5 26.2001 52.6 26C52.8 25.7001 52.8 25.4 52.7 25.1L51.7 21.1C51.6 20.6 51.1 20.2 50.5 20.2C50.4 20.2 50.3 20.2 50.2 20.2L46.1 21.2C45.8 21.3 45.5 21.1 45.3 20.8C44.6 19.5 43.7 18.3 42.7 17.3C42.5 17.1 42.4 16.7 42.6 16.4L44.8 12.8C45 12.5 45 12.2 44.9 11.9C44.8 11.6 44.6 11.3 44.4 11.2L40.9 9.10005C40.7 9.00005 40.5 8.90005 40.3 8.90005C39.9 8.90005 39.5 9.10005 39.3 9.50005L37.1 13.1C36.9 13.4 36.6 13.5 36.3 13.4C34.9 13 33.4 12.7 31.9 12.7C31.6 12.7 31.3 12.5 31.2 12.2L30.2 8.10005C30.1 7.60005 29.6 7.20005 29 7.20005C28.9 7.20005 28.8 7.20005 28.7 7.20005L24.7 8.20005C24.1 8.40005 23.7 9.00005 23.8 9.70005L24.8 13.8C24.9 14.1 24.7 14.4 24.4 14.6C23.1 15.3 21.9 16.2 20.9 17.2C20.7 17.4 20.3 17.5 20 17.3L16.4 15.1C16.2 15 16 14.9 15.8 14.9C15.4 14.9 15 15.1 14.8 15.5L12.8 19C12.6 19.3 12.6 19.6 12.7 19.9C12.8 20.2 13 20.5 13.2 20.6L16.8 22.8C17.1 23 17.2 23.3 17.1 23.6C16.7 25 16.4 26.5 16.4 28C16.4 28.3 16.2 28.6 15.9 28.7001L11.8 29.7001C11.2 29.9001 10.8 30.5 10.9 31.2001L11.9 35.2001C12 35.7001 12.5 36.1 13.1 36.1C13.2 36.1 13.3 36.1 13.4 36.1L17.5 35.1C17.8 35 18.1 35.2001 18.3 35.5C19 36.8 19.9 38 20.9 39C21.1 39.2001 21.2 39.6001 21 39.9001L18.8 43.5C18.6 43.8 18.6 44.1001 18.7 44.4001C18.8 44.7001 19 45 19.2 45.1L22.7 47.2001C22.9 47.3 23.1 47.4001 23.3 47.4001C23.7 47.4001 24.1 47.2001 24.3 46.8L26.5 43.2001C26.7 42.9001 26.9 42.8 27.1 42.8ZM31.8 38.6C27 38.6 22.8 35.3 21.7 30.6C21 27.9 21.5 25.1 22.9 22.7001C24.3 20.3001 26.6 18.6 29.3 18C30.1 17.8 31 17.7 31.8 17.7C36.6 17.7 40.8 21.0001 41.9 25.7001C43.3 31.3001 39.8 37 34.2 38.3C33.5 38.5 32.7 38.6 31.8 38.6ZM31.8 19.1C31.1 19.1 30.3 19.2 29.6 19.4C27.3 20 25.3 21.4 24 23.5C22.7 25.6 22.4 28 23 30.3C24 34.4 27.6 37.2001 31.8 37.2001C32.5 37.2001 33.3 37.1001 34 36.9001C38.8 35.7001 41.8 30.8 40.6 26C39.6 21.9 36 19.1 31.8 19.1Z" fill="#DF4C55"/>
<path d="M55.1 73.4001H55L52 73.2001C50.9 73.1001 50 72.1001 50.1 71.0001L50.3 68.6001C49.6 68.3001 48.8 68.0001 48.2 67.5001L46.4 69.1001C46 69.4001 45.5 69.6001 45.1 69.6001C44.5 69.6001 43.9 69.3001 43.6 68.9001L41.7 66.7001C41 65.9001 41 64.6001 41.9 63.8001L43.7 62.2001C43.4 61.5001 43.1 60.7001 42.9 60.0001L40.5 59.8001C39.4 59.7001 38.5 58.7001 38.6 57.6001L38.8 54.7001C38.9 53.6001 39.8 52.7001 41 52.8001L43.4 53.0001C43.7 52.3001 44 51.5001 44.5 50.9001L42.9 49.1001C42.5 48.7001 42.4 48.2001 42.4 47.6001C42.4 47.1001 42.7 46.6001 43.1 46.2001L45.3 44.3001C45.7 44.0001 46.1 43.8001 46.6 43.8001C47.2 43.8001 47.8 44.1001 48.1 44.5001L49.7 46.3001C50.4 46.0001 51.2 45.7001 51.9 45.5001L52.1 43.1001C52.2 42.0001 53.2 41.1001 54.3 41.2001L57.2 41.4001C58.3 41.5001 59.2 42.5001 59.1 43.6001L58.8 46.0001C59.5 46.3001 60.3 46.6001 60.9 47.1001L62.7 45.5001C63.1 45.2001 63.5 45.0001 64 45.0001C64.6 45.0001 65.2 45.3001 65.5 45.7001L67.4 47.9001C67.8 48.3001 67.9 48.8001 67.9 49.4001C67.9 49.9001 67.6 50.4001 67.2 50.8001L65.4 52.4001C65.7 53.1001 66 53.9001 66.2 54.6001L68.6 54.8001C69.1 54.8001 69.6 55.1001 70 55.5001C70.4 55.9001 70.5 56.4001 70.5 57.0001L70.3 59.9001C70.2 61.0001 69.3 61.8001 68.3 61.8001H68.2L65.8 61.6001C65.5 62.3001 65.2 63.1001 64.7 63.7001L66.3 65.5001C67 66.3001 67 67.6001 66.1 68.4001L64 70.3001C63.6 70.6001 63.1 70.8001 62.7 70.8001C62.1 70.8001 61.5 70.5001 61.2 70.1001L59.6 68.3001C58.9 68.6001 58.1 68.9001 57.4 69.1001L57.2 71.5001C57 72.6001 56.1 73.4001 55.1 73.4001ZM48.1 65.9001C48.2 65.9001 48.4 65.9001 48.5 66.0001C49.3 66.6001 50.3 67.0001 51.2 67.4001C51.5 67.5001 51.7 67.8001 51.7 68.1001L51.5 71.1001C51.5 71.5001 51.7 71.8001 52.1 71.8001L55 72.0001C55.4 72.0001 55.7 71.8001 55.7 71.4001L55.9 68.4001C55.9 68.1001 56.2 67.8001 56.5 67.8001C57.5 67.6001 58.5 67.3001 59.4 66.8001C59.7 66.7001 60 66.7001 60.2 67.0001L62.2 69.2001C62.3 69.3001 62.5 69.4001 62.7 69.4001C62.8 69.4001 63 69.4001 63.1 69.2001L65.3 67.3001C65.6 67.1001 65.6 66.7001 65.4 66.4001L63.4 64.2001C63.2 64.0001 63.2 63.6001 63.4 63.3001C64 62.5001 64.4 61.5001 64.8 60.6001C64.9 60.3001 65.2 60.1001 65.5 60.1001L68.5 60.3001C68.8 60.3001 69.1 60.0001 69.1 59.7001L69.3 56.8001C69.3 56.6001 69.3 56.5001 69.1 56.3001C69 56.2001 68.8 56.1001 68.7 56.1001L65.7 55.9001C65.4 55.9001 65.1 55.6001 65.1 55.3001C64.9 54.3001 64.6 53.3001 64.1 52.4001C64 52.1001 64 51.8001 64.3 51.6001L66.5 49.6001C66.6 49.5001 66.7 49.3001 66.7 49.2001C66.7 49.0001 66.7 48.9001 66.5 48.7001L64.6 46.5001C64.5 46.4001 64.3 46.3001 64.1 46.3001C64 46.3001 63.8 46.3001 63.7 46.5001L61.5 48.5001C61.3 48.7001 60.9 48.7001 60.6 48.5001C59.8 47.9001 58.8 47.5001 57.9 47.1001C57.6 47.0001 57.4 46.7001 57.4 46.4001L57.6 43.4001C57.6 43.0001 57.4 42.7001 57 42.7001L54.1 42.5001C53.7 42.5001 53.4 42.7001 53.4 43.1001L53.2 46.1001C53.2 46.4001 52.9 46.7001 52.6 46.7001C51.6 46.9001 50.6 47.2001 49.7 47.7001C49.4 47.8001 49.1 47.8001 48.9 47.5001L46.9 45.3001C46.8 45.2001 46.6 45.1001 46.4 45.1001C46.3 45.1001 46.1 45.1001 46 45.3001L43.8 47.2001C43.7 47.3001 43.6 47.5001 43.6 47.6001C43.6 47.8001 43.6 47.9001 43.8 48.1001L45.8 50.3001C46 50.5001 46 50.9001 45.8 51.2001C45.2 52.0001 44.8 53.0001 44.4 53.9001C44.3 54.2001 44 54.4001 43.7 54.4001L40.7 54.2001C40.3 54.2001 40 54.4001 40 54.8001L39.8 57.7001C39.8 58.1001 40 58.4001 40.4 58.4001L43.4 58.6001C43.7 58.6001 44 58.9001 44 59.2001C44.2 60.2001 44.5 61.2001 45 62.1001C45.1 62.4001 45.1 62.7001 44.8 62.9001L42.6 64.9001C42.3 65.1001 42.3 65.5001 42.5 65.8001L44.4 68.0001C44.5 68.1001 44.7 68.2001 44.9 68.2001C45 68.2001 45.2 68.2001 45.3 68.0001L47.5 66.0001C47.8 66.0001 47.9 65.9001 48.1 65.9001ZM54.6 64.9001C54.4 64.9001 54.2 64.9001 54.1 64.9001C52.1 64.8001 50.2 63.8001 48.9 62.3001C47.6 60.8001 46.9 58.8001 47 56.8001C47.3 52.8001 50.6 49.7001 54.6 49.7001C54.8 49.7001 54.9 49.7001 55.1 49.7001C59.3 50.0001 62.4 53.6001 62.2 57.8001C61.9 61.8001 58.5 64.9001 54.6 64.9001ZM54.6 51.1001C51.4 51.1001 48.6 53.6001 48.4 56.9001C48.3 58.6001 48.8 60.1001 49.9 61.4001C51 62.6001 52.5 63.4001 54.1 63.5001C54.2 63.5001 54.4 63.5001 54.5 63.5001C57.7 63.5001 60.5 61.0001 60.7 57.7001C60.9 54.3001 58.4 51.3001 54.9 51.1001C54.8 51.1001 54.7 51.1001 54.6 51.1001Z" fill="#DF4C55"/>
</svg>
