<svg width="80" height="80" viewBox="0 0 80 80" fill="none" xmlns="http://www.w3.org/2000/svg">
<path d="M78 66.0277L65.1 55.9557V61.8393H51.5C55.4968 59.6587 58.811 56.4182 61.076 52.4762C63.3409 48.5342 64.4685 44.0443 64.334 39.503C64.1994 34.9617 62.808 30.546 60.3136 26.7442C57.8192 22.9425 54.3189 19.9027 50.2 17.9612V17.1634C50.2 15.2063 49.4204 13.3293 48.0326 11.9453C46.6448 10.5614 44.7626 9.78393 42.8 9.78393H14.9V4L2 13.9723L14.9 24.0443V18.1607H28.5C24.2849 20.2594 20.7596 23.5165 18.3399 27.5478C15.9203 31.579 14.7072 36.2163 14.8439 40.9126C14.9805 45.6089 16.4612 50.1682 19.1112 54.0528C21.7612 57.9374 25.4699 60.9851 29.8 62.8366V62.8366C29.8 64.7937 30.5796 66.6707 31.9674 68.0547C33.3552 69.4386 35.2374 70.2161 37.2 70.2161H65.1V76L78 66.0277Z" stroke="#DF4C55" stroke-width="3" stroke-linecap="round" stroke-linejoin="round"/>
<path d="M39.6 23.2465C40.815 23.2465 41.8 22.2643 41.8 21.0526C41.8 19.8409 40.815 18.8587 39.6 18.8587C38.385 18.8587 37.4 19.8409 37.4 21.0526C37.4 22.2643 38.385 23.2465 39.6 23.2465Z" fill="#DF4C55"/>
<path d="M39.6 61.939C40.815 61.939 41.8 60.9568 41.8 59.7451C41.8 58.5335 40.815 57.5512 39.6 57.5512C38.385 57.5512 37.4 58.5335 37.4 59.7451C37.4 60.9568 38.385 61.939 39.6 61.939Z" fill="#DF4C55"/>
<path d="M29.9 25.8393C31.115 25.8393 32.0999 24.8571 32.0999 23.6454C32.0999 22.4338 31.115 21.4515 29.9 21.4515C28.6849 21.4515 27.7 22.4338 27.7 23.6454C27.7 24.8571 28.6849 25.8393 29.9 25.8393Z" fill="#DF4C55"/>
<path d="M49.3 59.3462C50.515 59.3462 51.5 58.364 51.5 57.1523C51.5 55.9407 50.515 54.9584 49.3 54.9584C48.0849 54.9584 47.1 55.9407 47.1 57.1523C47.1 58.364 48.0849 59.3462 49.3 59.3462Z" fill="#DF4C55"/>
<path d="M22.8 32.9197C24.015 32.9197 25 31.9374 25 30.7258C25 29.5141 24.015 28.5319 22.8 28.5319C21.5849 28.5319 20.6 29.5141 20.6 30.7258C20.6 31.9374 21.5849 32.9197 22.8 32.9197Z" fill="#DF4C55"/>
<path d="M56.4 52.2659C57.615 52.2659 58.5999 51.2837 58.5999 50.072C58.5999 48.8604 57.615 47.8781 56.4 47.8781C55.1849 47.8781 54.2 48.8604 54.2 50.072C54.2 51.2837 55.1849 52.2659 56.4 52.2659Z" fill="#DF4C55"/>
<path d="M20.2 42.5928C21.415 42.5928 22.4 41.6105 22.4 40.3989C22.4 39.1872 21.415 38.205 20.2 38.205C18.985 38.205 18 39.1872 18 40.3989C18 41.6105 18.985 42.5928 20.2 42.5928Z" fill="#DF4C55"/>
<path d="M59 42.5928C60.2151 42.5928 61.2001 41.6105 61.2001 40.3989C61.2001 39.1872 60.2151 38.205 59 38.205C57.785 38.205 56.8 39.1872 56.8 40.3989C56.8 41.6105 57.785 42.5928 59 42.5928Z" fill="#DF4C55"/>
<path d="M22.8 52.2659C24.015 52.2659 25 51.2837 25 50.072C25 48.8604 24.015 47.8781 22.8 47.8781C21.5849 47.8781 20.6 48.8604 20.6 50.072C20.6 51.2837 21.5849 52.2659 22.8 52.2659Z" fill="#DF4C55"/>
<path d="M56.4 32.9197C57.615 32.9197 58.5999 31.9374 58.5999 30.7258C58.5999 29.5141 57.615 28.5319 56.4 28.5319C55.1849 28.5319 54.2 29.5141 54.2 30.7258C54.2 31.9374 55.1849 32.9197 56.4 32.9197Z" fill="#DF4C55"/>
<path d="M29.9 59.3462C31.115 59.3462 32.0999 58.364 32.0999 57.1523C32.0999 55.9407 31.115 54.9584 29.9 54.9584C28.6849 54.9584 27.7 55.9407 27.7 57.1523C27.7 58.364 28.6849 59.3462 29.9 59.3462Z" fill="#DF4C55"/>
<path d="M49.3 25.8393C50.515 25.8393 51.5 24.8571 51.5 23.6454C51.5 22.4338 50.515 21.4515 49.3 21.4515C48.0849 21.4515 47.1 22.4338 47.1 23.6454C47.1 24.8571 48.0849 25.8393 49.3 25.8393Z" fill="#DF4C55"/>
<path d="M33.8 48.277H41.2001C42.3405 48.277 43.4342 47.8252 44.2406 47.021C45.047 46.2168 45.5 45.1261 45.5 43.9889V43.9889C45.5002 43.4303 45.3884 42.8774 45.1711 42.3627C44.9538 41.8479 44.6354 41.3817 44.2348 40.9914C43.8341 40.6012 43.3592 40.2948 42.838 40.0902C42.3169 39.8857 41.76 39.7872 41.2001 39.8005H40C40.9283 39.8005 41.8185 39.4328 42.4749 38.7782C43.1313 38.1237 43.5 37.2359 43.5 36.3102C43.5 35.3845 43.1313 34.4967 42.4749 33.8422C41.8185 33.1876 40.9283 32.8199 40 32.8199H33.8" stroke="#DF4C55" stroke-width="3" stroke-linecap="round" stroke-linejoin="round"/>
<path d="M35.4 49.9723V30.4266" stroke="#DF4C55" stroke-width="3" stroke-linecap="round" stroke-linejoin="round"/>
<path d="M41.4 32.8199V30.4266" stroke="#DF4C55" stroke-width="3" stroke-linecap="round" stroke-linejoin="round"/>
<path d="M41.4 49.9723V48.277" stroke="#DF4C55" stroke-width="3" stroke-linecap="round" stroke-linejoin="round"/>
</svg>
