<svg width="56" height="56" viewBox="0 0 56 56" fill="none" xmlns="http://www.w3.org/2000/svg">
<path d="M14.4838 30.7208C14.1984 30.7171 13.9184 30.7981 13.6794 30.9534C13.4404 31.1087 13.2533 31.3313 13.142 31.5927C13.0306 31.8542 13 32.1428 13.0541 32.4217C13.1082 32.7005 13.2445 32.9571 13.4457 33.1585C13.6468 33.36 13.9037 33.4973 14.1836 33.553C14.4634 33.6086 14.7536 33.5801 15.0171 33.471C15.2806 33.3619 15.5055 33.1772 15.6632 32.9404C15.8208 32.7036 15.904 32.4255 15.9021 32.1415C15.9034 31.9554 15.8676 31.7709 15.7969 31.5986C15.7261 31.4262 15.6219 31.2695 15.49 31.1375C15.3582 31.0054 15.2014 30.9007 15.0287 30.8291C14.856 30.7576 14.6708 30.7208 14.4838 30.7208Z" fill="#DF4C55"/>
<path d="M48.6837 35.0201C48.561 34.9493 48.4173 34.9236 48.2775 34.9473C48.1377 34.9711 48.0107 35.0428 47.9185 35.1501C47.3823 35.6755 46.7158 36.0503 45.9869 36.2365C45.6746 34.3947 44.9933 32.6341 43.9833 31.0596C42.9734 29.4852 41.6555 28.1289 40.1081 27.0716C36.3502 24.4655 31.8667 23.0953 27.2866 23.153C24.4564 23.139 21.6476 23.6426 19.0003 24.6387L17.246 22.7816C16.5088 22.0016 15.8089 21.2495 15.3797 20.8316C15.2822 20.728 15.1511 20.6618 15.0094 20.6448C14.8677 20.6279 14.7246 20.6611 14.6052 20.7388C14.4839 20.815 14.3927 20.9305 14.3468 21.0657C14.3009 21.201 14.3032 21.3478 14.3532 21.4816C14.8822 23.4022 14.804 25.4382 14.1292 27.313L13.7373 27.6101C11.6744 29.214 10.0877 31.345 9.14624 33.7758C9.14624 33.7758 9.14624 33.7758 9.14624 33.8222L7 34.7508V43.8879L11.7124 46.2186C13.0383 47.7177 14.6173 48.9747 16.3781 49.9329L15.333 54H23.3114L23.7313 52.3193C26.0428 52.6532 28.3905 52.6532 30.7019 52.3193L31.1405 54H39.1749L38.1578 49.8772C42.4503 47.5 45.287 43.7858 45.9496 39.7186C46.7153 39.3146 47.3827 38.7486 47.9051 38.0604C48.4274 37.3722 48.7919 36.5785 48.973 35.7351C49.0143 35.601 49.0081 35.4568 48.9554 35.3267C48.9028 35.1966 48.8069 35.0883 48.6837 35.0201ZM45.4084 38.9851C45.3304 39.0103 45.2612 39.0567 45.2084 39.119C45.1556 39.1814 45.1214 39.2572 45.1097 39.3379C44.5592 43.3493 41.7411 46.9615 37.4019 49.255C37.3141 49.3046 37.2448 49.3811 37.2044 49.4732C37.164 49.5653 37.1548 49.6679 37.178 49.7657L38.0085 53.1086H31.8311L31.4858 51.7064C31.4591 51.5986 31.3921 51.505 31.2985 51.4447C31.2049 51.3843 31.0917 51.3617 30.9819 51.3814C28.5094 51.7778 25.9892 51.7778 23.5167 51.3814C23.4069 51.3617 23.2937 51.3843 23.2001 51.4447C23.1065 51.505 23.0395 51.5986 23.0128 51.7064L22.6396 53.0714H16.4621L17.2926 49.7286C17.3192 49.6308 17.3114 49.5269 17.2707 49.4341C17.23 49.3413 17.1588 49.265 17.0687 49.2179C15.3081 48.2906 13.728 47.0579 12.4029 45.5779C12.363 45.4918 12.2935 45.4227 12.207 45.3829L7.88649 43.2472V35.2615L9.65014 34.5001C9.72646 34.4666 9.79158 34.412 9.83786 34.343C9.88414 34.2739 9.90966 34.1931 9.91142 34.1101V34.0544C10.8014 31.7688 12.2978 29.7662 14.2412 28.2601L14.7171 27.8887C14.788 27.8365 14.8429 27.7658 14.8758 27.6844C15.5074 25.9145 15.6932 24.0174 15.417 22.1595L16.5554 23.3573C17.2366 24.0909 17.9458 24.843 18.5244 25.4466C18.5824 25.5119 18.6598 25.557 18.7455 25.5754C18.8311 25.5938 18.9204 25.5844 19.0003 25.5487C21.6243 24.5226 24.4206 24.0027 27.24 24.0166C36.5714 24.0166 44.4845 29.6437 45.1657 36.8215C45.175 36.9316 45.2249 37.0343 45.306 37.1098C45.387 37.1853 45.4933 37.2282 45.6043 37.2301H45.707C46.4508 37.0766 47.1615 36.7937 47.8065 36.3944C47.6091 36.968 47.294 37.4946 46.8811 37.9406C46.4683 38.3866 45.9667 38.7423 45.4084 38.9851Z" fill="#DF4C55"/>
<path d="M33.0347 26.143C29.7534 25.005 26.2003 24.8948 22.8541 25.8273C22.7498 25.8672 22.6642 25.9444 22.6141 26.0438C22.564 26.1432 22.5531 26.2577 22.5835 26.3647C22.6139 26.4717 22.6834 26.5635 22.7784 26.6222C22.8733 26.6808 22.9869 26.702 23.0967 26.6816C26.2691 25.802 29.6359 25.909 32.7455 26.988H32.8854C32.9783 26.9904 33.0695 26.9627 33.1452 26.9091C33.2209 26.8555 33.2771 26.779 33.3054 26.6909C33.3412 26.5825 33.3329 26.4644 33.2823 26.362C33.2317 26.2596 33.1429 26.181 33.0347 26.143Z" fill="#DF4C55"/>
<path d="M28.6583 10.4038C27.3053 9.86527 26.9134 9.54956 26.9134 8.98313C26.9134 8.4167 27.268 7.99885 28.2664 7.99885C28.9008 7.98923 29.5261 8.1496 30.0767 8.46313L30.366 8.62099L30.9632 7.10743L30.7766 6.98671C30.2044 6.66526 29.5662 6.47789 28.9103 6.43886V4.9903H27.3426V6.53172C26.7033 6.62216 26.1172 6.93637 25.6897 7.41798C25.2621 7.89958 25.0211 8.51705 25.0097 9.15956C25.0097 10.7474 26.3255 11.4624 27.7439 11.9917C28.8543 12.4188 29.3115 12.8552 29.3115 13.4867C29.3115 14.1181 28.6863 14.6474 27.7625 14.6474C27.029 14.6488 26.3091 14.4497 25.6816 14.0717L25.383 13.8767L24.8044 15.4181L24.9911 15.5481C25.6708 15.9615 26.4442 16.1979 27.24 16.2352V17.7488H28.789V16.1331C29.462 16.032 30.0771 15.6965 30.5248 15.1864C30.9725 14.6763 31.2238 14.0246 31.2338 13.3474C31.2338 12.001 30.4593 11.1095 28.6583 10.4038ZM28.4531 15.6131H28.2104V17.1081H27.8185V15.6224H27.5292C26.8295 15.6139 26.1406 15.4489 25.5136 15.1395L25.6816 14.6938C26.3268 15.0192 27.0392 15.1909 27.7625 15.1952C29.0129 15.1952 29.8901 14.4802 29.8901 13.4588C29.8901 12.4374 28.9103 11.8245 27.9771 11.4531C26.2788 10.8124 25.6163 10.1717 25.6163 9.15956C25.6346 8.61196 25.8602 8.09146 26.2478 7.70232C26.6354 7.31317 27.1564 7.08411 27.7065 7.061H27.9491V5.56601H28.3317V6.996H28.6117C29.1828 6.99945 29.7463 7.12618 30.2634 7.36742L30.0954 7.80385C29.5326 7.53941 28.9167 7.40603 28.2944 7.41385C26.96 7.41385 26.3628 8.19385 26.3628 8.97384C26.3628 10.0138 27.2959 10.4595 28.4717 10.9331C30.0394 11.546 30.6833 12.2517 30.6833 13.366C30.665 13.9514 30.425 14.5083 30.0114 14.9251C29.5978 15.3418 29.0411 15.5876 28.4531 15.6131Z" fill="#DF4C55"/>
<path d="M28.0518 2.00029C26.1884 1.98558 24.3625 2.52199 22.8059 3.54149C21.2493 4.56099 20.032 6.01761 19.3087 7.72657C18.5853 9.43553 18.3883 11.3198 18.7428 13.1403C19.0972 14.9608 19.9871 16.6356 21.2996 17.952C22.612 19.2685 24.2879 20.1673 26.1145 20.5345C27.9411 20.9018 29.8362 20.7208 31.5593 20.0146C33.2824 19.3084 34.7559 18.1088 35.7928 16.568C36.8297 15.0272 37.3832 13.2146 37.3833 11.3602C37.3858 8.8899 36.4059 6.51895 34.6575 4.76521C32.9091 3.01147 30.5343 2.01747 28.0518 2.00029ZM28.0518 19.9402C26.3423 19.9494 24.6685 19.4532 23.2427 18.5146C21.817 17.576 20.7034 16.2373 20.0432 14.6681C19.383 13.0989 19.2059 11.37 19.5344 9.7005C19.863 8.03105 20.6823 6.49627 21.8885 5.29076C23.0947 4.08526 24.6335 3.26332 26.3097 2.92917C27.986 2.59502 29.7242 2.76371 31.304 3.41385C32.8837 4.06399 34.2339 5.16629 35.1833 6.581C36.1327 7.9957 36.6386 9.65908 36.6368 11.3602C36.6393 13.6301 35.7368 15.8083 34.1273 17.4168C32.5179 19.0253 30.3329 19.9328 28.0518 19.9402Z" fill="#DF4C55"/>
<path d="M28.0518 3.43959C26.4756 3.4304 24.9321 3.88711 23.617 4.75183C22.3019 5.61656 21.2744 6.85036 20.6648 8.29684C20.0552 9.74332 19.8909 11.3373 20.1927 12.8768C20.4946 14.4164 21.2489 15.832 22.3602 16.9444C23.4716 18.0568 24.8898 18.8158 26.4351 19.1252C27.9804 19.4346 29.5832 19.2804 31.0404 18.6823C32.4975 18.0842 33.7434 17.0691 34.6201 15.7655C35.4969 14.462 35.9649 12.9288 35.9649 11.3603C35.9699 9.26609 35.1393 7.25561 33.6555 5.77046C32.1718 4.28531 30.1563 3.44697 28.0518 3.43959ZM28.0518 18.5009C26.631 18.5083 25.24 18.0958 24.055 17.3156C22.87 16.5355 21.9445 15.4228 21.3956 14.1187C20.8467 12.8146 20.6993 11.3777 20.972 9.99009C21.2446 8.6025 21.9251 7.32668 22.9271 6.32432C23.9292 5.32196 25.2078 4.63818 26.6008 4.35963C27.9938 4.08108 29.4385 4.22031 30.7519 4.75966C32.0653 5.29901 33.1882 6.21421 33.9784 7.38928C34.7686 8.56435 35.1904 9.94639 35.1904 11.3603C35.1929 13.2484 34.4428 15.0605 33.1046 16.3991C31.7664 17.7377 29.9493 18.4936 28.0518 18.5009Z" fill="#DF4C55"/>
</svg>
