<svg width="80" height="80" viewBox="0 0 80 80" fill="none" xmlns="http://www.w3.org/2000/svg">
<path d="M72.3 2H7.7C4.55198 2 2 4.55164 2 7.69925V62.1821C2 65.3297 4.55198 67.8813 7.7 67.8813H72.3C75.448 67.8813 78 65.3297 78 62.1821V7.69925C78 4.55164 75.448 2 72.3 2Z" stroke="#DF4C55" stroke-width="3" stroke-linecap="round" stroke-linejoin="round"/>
<path d="M12.1 18.0978V16.1981C12.1254 15.1188 12.5655 14.0908 13.329 13.3275C14.0924 12.5641 15.1206 12.124 16.2 12.0986H63.8C64.8794 12.124 65.9075 12.5641 66.671 13.3275C67.4345 14.0908 67.8746 15.1188 67.9 16.1981V53.6931C67.8746 54.7724 67.4345 55.8004 66.671 56.5638C65.9075 57.3271 64.8794 57.7672 63.8 57.7926H16.2C15.1206 57.7672 14.0924 57.3271 13.329 56.5638C12.5655 55.8004 12.1254 54.7724 12.1 53.6931V52.4933" stroke="#DF4C55" stroke-width="3" stroke-linecap="round" stroke-linejoin="round"/>
<path d="M12.1 41.3948V29.2964" stroke="#DF4C55" stroke-width="3" stroke-linecap="round" stroke-linejoin="round"/>
<path d="M44.7 20.9975H21.4V48.8238H44.7V20.9975Z" stroke="#DF4C55" stroke-width="3" stroke-linecap="round" stroke-linejoin="round"/>
<path d="M12.2 18.0978H12.1C9.9461 18.0978 8.20001 19.8437 8.20001 21.9973V25.3569C8.20001 27.5105 9.9461 29.2564 12.1 29.2564H12.2C14.3539 29.2564 16.1 27.5105 16.1 25.3569V21.9973C16.1 19.8437 14.3539 18.0978 12.2 18.0978Z" stroke="#DF4C55" stroke-width="3" stroke-linecap="round" stroke-linejoin="round"/>
<path d="M12.2 41.3948H12.1C9.9461 41.3948 8.20001 43.1407 8.20001 45.2943V48.6539C8.20001 50.8075 9.9461 52.5534 12.1 52.5534H12.2C14.3539 52.5534 16.1 50.8075 16.1 48.6539V45.2943C16.1 43.1407 14.3539 41.3948 12.2 41.3948Z" stroke="#DF4C55" stroke-width="3" stroke-linecap="round" stroke-linejoin="round"/>
<path d="M56.7 40.095C59.7928 40.095 62.3 37.5881 62.3 34.4957C62.3 31.4034 59.7928 28.8965 56.7 28.8965C53.6072 28.8965 51.1 31.4034 51.1 34.4957C51.1 37.5881 53.6072 40.095 56.7 40.095Z" stroke="#DF4C55" stroke-width="3" stroke-linecap="round" stroke-linejoin="round"/>
<path d="M48.9 42.2952L52.8 38.4952" stroke="#DF4C55" stroke-width="3" stroke-linecap="round" stroke-linejoin="round"/>
<path d="M26.3 67.8914H15.3V78H26.3V67.8914Z" stroke="#DF4C55" stroke-width="3" stroke-linecap="round" stroke-linejoin="round"/>
<path d="M65.6 67.8914H54.6V78H65.6V67.8914Z" stroke="#DF4C55" stroke-width="3" stroke-linecap="round" stroke-linejoin="round"/>
<path d="M28.1 42.2947H34.6C35.0813 42.2949 35.5577 42.1986 36.0011 42.0115C36.4446 41.8244 36.8459 41.5502 37.1816 41.2053C37.5172 40.8604 37.7803 40.4517 37.9552 40.0034C38.1301 39.5551 38.2133 39.0762 38.2 38.5952V38.5952C38.2003 37.6311 37.8243 36.705 37.1519 36.014C36.4795 35.323 35.5638 34.9218 34.6 34.8957H33.5C33.8977 34.9097 34.2941 34.8416 34.6643 34.6958C35.0346 34.55 35.371 34.3296 35.6524 34.0482C35.9338 33.7668 36.1543 33.4306 36.3001 33.0603C36.4459 32.6901 36.5139 32.2938 36.5 31.8961V31.8961C36.5 31.1005 36.1839 30.3376 35.6213 29.775C35.0587 29.2125 34.2956 28.8965 33.5 28.8965H28.1" stroke="#DF4C55" stroke-width="3" stroke-linecap="round" stroke-linejoin="round"/>
<path d="M29.6 43.6945V26.8967" stroke="#DF4C55" stroke-width="3" stroke-linecap="round" stroke-linejoin="round"/>
<path d="M34.7 28.8967V26.8967" stroke="#DF4C55" stroke-width="3" stroke-linecap="round" stroke-linejoin="round"/>
<path d="M34.7 43.6947V42.2947" stroke="#DF4C55" stroke-width="3" stroke-linecap="round" stroke-linejoin="round"/>
</svg>
