<svg width="40" height="40" viewBox="0 0 40 40" fill="none" xmlns="http://www.w3.org/2000/svg">
<path d="M0 13.3333C0 8.66622 0 6.33267 0.908278 4.55008C1.70722 2.98206 2.98206 1.70722 4.55008 0.908278C6.33267 0 8.66622 0 13.3333 0H26.6666C31.3337 0 33.6673 0 35.4499 0.908278C37.0179 1.70722 38.2928 2.98206 39.0917 4.55008C40 6.33267 40 8.66622 40 13.3333V26.6666C40 31.3337 40 33.6673 39.0917 35.4499C38.2928 37.0179 37.0179 38.2928 35.4499 39.0917C33.6673 40 31.3337 40 26.6666 40H13.3333C8.66622 40 6.33267 40 4.55008 39.0917C2.98206 38.2928 1.70722 37.0179 0.908278 35.4499C0 33.6673 0 31.3337 0 26.6666V13.3333Z" fill="#41A0D7"/>
<path d="M20.0016 8.27246C13.5324 8.27246 8.28795 13.0838 8.28795 19.0187C8.28795 22.1483 9.74674 24.965 12.074 26.9291L12.3807 31.2579C12.3897 31.3842 12.4633 31.4973 12.5757 31.5568C12.6881 31.6163 12.8232 31.6142 12.9334 31.5512L16.7769 29.3524C17.8014 29.621 18.8832 29.765 20.0016 29.765C26.4708 29.765 31.7153 24.9537 31.7153 19.0187C31.7152 13.0837 26.4708 8.27234 20.0016 8.27246Z" fill="white"/>
<path d="M11.3456 34.9997L10.7774 33.1005L11.5697 32.8652L11.8448 33.7848L12.6882 33.3211L13.0877 34.0423L11.3456 34.9997Z" fill="#C8E6EB"/>
<path d="M14.1386 33.4652L13.7391 32.744L16.3204 31.3253L16.4756 31.3617C16.5421 31.3774 16.6092 31.3926 16.6763 31.4073L16.5357 32.0421L16.5805 32.1231L16.5088 32.1625L16.4979 32.2116C16.4792 32.2076 16.4607 32.2034 16.442 32.1993L14.1386 33.4652ZM20.0016 32.5901C19.2341 32.5901 18.4629 32.5362 17.7098 32.4301L17.8257 31.6145C18.7819 31.7494 19.7724 31.7947 20.7406 31.7492L20.7797 32.5718C20.5224 32.5839 20.2605 32.5901 20.0016 32.5901ZM22.006 32.468L21.9049 31.6506C22.8745 31.5315 23.832 31.3195 24.7509 31.0204L25.0077 31.8033C24.0383 32.1188 23.0283 32.3424 22.006 32.468ZM10.4275 31.9314L9.57074 29.0672L10.3631 28.8319L11.2199 31.6961L10.4275 31.9314ZM26.1629 31.3767L25.8451 30.6162C26.7469 30.2423 27.6094 29.7789 28.409 29.239L28.8731 29.9209C28.0275 30.4918 27.1158 30.9815 26.1629 31.3767ZM29.8653 29.1893L29.3463 28.5482C30.1086 27.9361 30.8006 27.2478 31.403 26.5025L32.047 27.0191C31.4075 27.8103 30.6734 28.5404 29.8653 29.1893ZM9.08187 28.2534C8.33952 27.529 7.68138 26.7297 7.12581 25.8776L7.81934 25.429C8.34192 26.2306 8.96131 26.9829 9.66047 27.6652L9.08187 28.2534ZM32.7792 26.0267L32.0916 25.5691C32.6338 24.7607 33.0786 23.897 33.4139 23.0023L34.1887 23.2901C33.831 24.2445 33.3568 25.1652 32.7792 26.0267ZM6.49995 24.8142C6.016 23.8982 5.64326 22.9311 5.39181 21.9401L6.19355 21.7382C6.42893 22.6664 6.77827 23.5722 7.23175 24.4306L6.49995 24.8142ZM34.5656 22.1152L33.7669 21.9022C34.0164 20.9737 34.1532 20.0142 34.1734 19.0502L35 19.0674C34.9783 20.0976 34.8322 21.1229 34.5656 22.1152ZM5.14648 20.7297C5.04931 20.0935 5 19.4427 5 18.7952C5 18.414 5.01716 18.029 5.05075 17.6513L5.87444 17.724C5.84289 18.0779 5.82681 18.4382 5.82681 18.7952C5.82681 19.4013 5.87288 20.0105 5.96382 20.6059L5.14648 20.7297ZM34.1426 17.8954C34.0707 16.936 33.8823 15.9847 33.5824 15.0682L34.3685 14.8128C34.6889 15.7924 34.8905 16.8089 34.9671 17.8343L34.1426 17.8954ZM6.03268 16.5803L5.22002 16.4287C5.40921 15.4223 5.7216 14.4344 6.14844 13.4924L6.90208 13.8312C6.50235 14.7133 6.20987 15.6383 6.03268 16.5803ZM33.1705 13.9876C32.7884 13.1119 32.2991 12.2717 31.7161 11.4905L32.3798 10.9992C33.0003 11.8308 33.5214 12.7257 33.9287 13.659L33.1705 13.9876ZM7.42849 12.8004L6.70977 12.3933C7.21399 11.5098 7.82522 10.6739 8.52631 9.90886L9.13694 10.4642C8.47736 11.1839 7.90236 11.97 7.42849 12.8004ZM30.982 10.5923C30.3431 9.8772 29.6192 9.22259 28.8301 8.64685L29.3186 7.98255C30.1548 8.59247 30.9222 9.2864 31.5997 10.0449L30.982 10.5923ZM9.95847 9.64203L9.39787 9.03665C10.1478 8.34762 10.9787 7.73017 11.8676 7.20175L12.2913 7.90918C11.4513 8.40833 10.6664 8.99136 9.95847 9.64203ZM27.8622 7.99976C27.0388 7.49667 26.1564 7.0721 25.2394 6.73822L25.5232 5.96471C26.4919 6.31735 27.4243 6.76594 28.2946 7.29771L27.8622 7.99976ZM13.3161 7.35435L12.9509 6.61562C13.867 6.1663 14.8362 5.80434 15.8317 5.54013L16.0446 6.33599C15.1017 6.58622 14.1836 6.92894 13.3161 7.35435ZM24.1282 6.38211C23.1969 6.12328 22.231 5.95228 21.2572 5.87389L21.3237 5.05294C22.35 5.13539 23.3685 5.31571 24.3505 5.58877L24.1282 6.38211ZM17.1838 6.08002L17.0332 5.27019C18.0039 5.09094 19.0025 5 20.0016 5L20.0935 5.00024L20.0904 5.82382L20.0017 5.82358C19.0528 5.8237 18.1048 5.9101 17.1838 6.08002Z" fill="#C8E6EB"/>
</svg>
