<svg width="40" height="40" viewBox="0 0 40 40" fill="none" xmlns="http://www.w3.org/2000/svg">
<path d="M0 13.3333C0 8.66623 0 6.33268 0.908279 4.55008C1.70722 2.98206 2.98206 1.70722 4.55008 0.908279C6.33268 0 8.66623 0 13.3333 0H26.6667C31.3338 0 33.6673 0 35.4499 0.908279C37.0179 1.70722 38.2928 2.98206 39.0917 4.55008C40 6.33268 40 8.66623 40 13.3333V26.6667C40 31.3338 40 33.6673 39.0917 35.4499C38.2928 37.0179 37.0179 38.2928 35.4499 39.0917C33.6673 40 31.3338 40 26.6667 40H13.3333C8.66623 40 6.33268 40 4.55008 39.0917C2.98206 38.2928 1.70722 37.0179 0.908279 35.4499C0 33.6673 0 31.3338 0 26.6667V13.3333Z" fill="#0366C3"/>
<path d="M10.153 8C8.24651 8 7 9.20898 7 10.798C7 12.352 8.20938 13.5954 10.0799 13.5954H10.116C12.0598 13.5954 13.2695 12.352 13.2695 10.798C13.2332 9.20898 12.0598 8 10.153 8Z" fill="white"/>
<path d="M7.32973 15.8068H12.9032V32H7.32973V15.8068Z" fill="white"/>
<path d="M26.5834 15.4268C23.5767 15.4268 21.5605 18.1552 21.5605 18.1552V15.8068H15.9869V32.0001H21.5602V22.9571C21.5602 22.473 21.5966 21.9897 21.7438 21.6435C22.1467 20.6768 23.0637 19.6753 24.6034 19.6753C26.6202 19.6753 27.4268 21.1603 27.4268 23.3372V32.0001H32.9999V22.7151C32.9999 17.7413 30.2501 15.4268 26.5834 15.4268Z" fill="white"/>
</svg>
