<svg width="40" height="40" viewBox="0 0 40 40" fill="none" xmlns="http://www.w3.org/2000/svg">
<path d="M0 13.3333C0 8.66623 0 6.33268 0.908279 4.55008C1.70722 2.98206 2.98206 1.70722 4.55008 0.908279C6.33268 0 8.66623 0 13.3333 0H26.6667C31.3338 0 33.6673 0 35.4499 0.908279C37.0179 1.70722 38.2928 2.98206 39.0917 4.55008C40 6.33268 40 8.66623 40 13.3333V26.6667C40 31.3338 40 33.6673 39.0917 35.4499C38.2928 37.0179 37.0179 38.2928 35.4499 39.0917C33.6673 40 31.3338 40 26.6667 40H13.3333C8.66623 40 6.33268 40 4.55008 39.0917C2.98206 38.2928 1.70722 37.0179 0.908279 35.4499C0 33.6673 0 31.3338 0 26.6667V13.3333Z" fill="url(#paint0_linear_9792_73213)"/>
<path d="M22.5443 40V25.4236H27.5765L28.3304 19.7182H22.5443V16.0845C22.5443 14.4364 23.0129 13.3134 25.4329 13.3134H28.5V8.22431C27.9664 8.155 26.1356 8 24.0053 8C19.5574 8 16.5133 10.6503 16.5133 15.5194V19.7182H11.5V25.4236H16.5133V40H22.5443Z" fill="white"/>
<defs>
<linearGradient id="paint0_linear_9792_73213" x1="20" y1="0" x2="20" y2="40" gradientUnits="userSpaceOnUse">
<stop stop-color="#18ACFE"/>
<stop offset="1" stop-color="#0062E0"/>
</linearGradient>
</defs>
</svg>
