<svg width="40" height="40" viewBox="0 0 40 40" fill="none" xmlns="http://www.w3.org/2000/svg">
<path d="M20 40C31.0457 40 40 31.0457 40 20C40 8.9543 31.0457 0 20 0C8.9543 0 0 8.9543 0 20C0 31.0457 8.9543 40 20 40Z" fill="url(#paint0_linear_9792_73161)"/>
<path d="M30.0655 9.53666C29.3856 8.94364 26.6333 7.04495 20.4979 7.01894C20.4979 7.01894 13.2661 6.60279 9.74059 9.67191C7.77773 11.5342 7.08689 14.2548 7.01561 17.636C6.94434 21.0121 6.85113 27.3428 13.2825 29.0594H13.288L13.2825 31.676C13.2825 31.676 13.2441 32.7371 13.9788 32.9504C14.8671 33.2105 15.3934 32.4042 16.2433 31.5355C16.7093 31.0569 17.3508 30.3599 17.8388 29.8241C22.236 30.1726 25.6189 29.3715 26.0027 29.2519C26.891 28.9762 31.9187 28.3675 32.7357 22.0368C33.58 15.5241 32.3245 11.3989 30.0655 9.53666ZM30.8112 21.5791C30.1204 26.8642 26.0466 27.1971 25.2954 27.426C24.9774 27.5248 22.0057 28.2271 18.2664 27.993C18.2664 27.993 15.4811 31.1818 14.6148 32.0089C14.4778 32.1389 14.3188 32.1909 14.2146 32.1649C14.0666 32.1285 14.0227 31.9621 14.0282 31.7176C14.0282 31.3638 14.0501 27.3636 14.0501 27.3636C14.0446 27.3636 14.0446 27.3636 14.0501 27.3636C8.60564 25.9331 8.92365 20.5439 8.98396 17.7245C9.04427 14.905 9.60352 12.5902 11.2648 11.0348C14.242 8.47547 20.3883 8.85521 20.3883 8.85521C25.5751 8.87602 28.0588 10.3586 28.6345 10.8527C30.548 12.4133 31.524 16.1327 30.8112 21.5791Z" fill="white"/>
<path d="M23.0255 17.8233C22.8446 17.8233 22.6911 17.6881 22.6801 17.5112C22.6198 16.3928 22.066 15.8466 20.9366 15.7894C20.7447 15.779 20.5966 15.6229 20.6076 15.4408C20.6186 15.2588 20.783 15.1183 20.9749 15.1287C22.4663 15.2067 23.2997 16.0182 23.3764 17.4748C23.3874 17.6568 23.2394 17.8129 23.0475 17.8181C23.0365 17.8233 23.031 17.8233 23.0255 17.8233Z" fill="white"/>
<path d="M24.802 18.3851H24.7965C24.6046 18.3799 24.4511 18.229 24.4566 18.047C24.484 16.9233 24.144 16.013 23.4203 15.2639C22.7021 14.5149 21.7097 14.1091 20.3993 14.0207C20.2074 14.0051 20.0648 13.849 20.0813 13.6669C20.0977 13.4849 20.2622 13.3496 20.4541 13.3652C21.9345 13.4693 23.1023 13.9583 23.9357 14.8218C24.7746 15.6905 25.1803 16.7777 25.1529 18.0626C25.1474 18.2446 24.9884 18.3851 24.802 18.3851Z" fill="white"/>
<path d="M26.6223 19.0613C26.4304 19.0613 26.2769 18.9156 26.2769 18.7336C26.2604 16.7204 25.6518 15.1859 24.4127 14.0362C23.19 12.9022 21.6384 12.3248 19.8126 12.3092C19.6207 12.3092 19.4672 12.1583 19.4672 11.9763C19.4672 11.7942 19.6262 11.6486 19.8126 11.6486C21.8248 11.6642 23.5355 12.304 24.8897 13.5629C26.2495 14.8217 26.9458 16.5592 26.9677 18.7231C26.9732 18.9104 26.8197 19.0613 26.6223 19.0613C26.6278 19.0613 26.6278 19.0613 26.6223 19.0613Z" fill="white"/>
<path d="M21.0188 21.8964C21.0188 21.8964 21.5068 21.938 21.77 21.6311L22.2799 21.0225C22.5266 20.7208 23.1242 20.5283 23.7054 20.8352C24.0289 21.0069 24.6156 21.3502 24.9774 21.6051C25.3667 21.8756 26.1563 22.4998 26.1617 22.505C26.5401 22.8067 26.6278 23.2489 26.3701 23.7223C26.3701 23.7223 26.3701 23.7275 26.3701 23.7327C26.1069 24.1748 25.7505 24.591 25.3064 24.9759C25.3009 24.9759 25.3009 24.9811 25.2955 24.9811C24.9281 25.2724 24.5662 25.4389 24.2153 25.4753C24.1715 25.4857 24.1221 25.4857 24.0563 25.4857C23.9028 25.4857 23.7493 25.4649 23.5958 25.4181L23.5848 25.4025C23.0365 25.2568 22.1264 24.8927 20.6131 24.0968C19.6262 23.5818 18.8092 23.0564 18.1129 22.531C17.7456 22.2553 17.3727 21.9484 16.9889 21.5843C16.978 21.5739 16.9615 21.5583 16.9506 21.5479C16.9396 21.5375 16.9231 21.5219 16.9122 21.5115C16.9012 21.5011 16.8848 21.4855 16.8738 21.4751C16.8628 21.4646 16.8464 21.449 16.8354 21.4386C16.4571 21.0745 16.1281 20.7208 15.8375 20.3722C15.2838 19.7168 14.73 18.9365 14.1872 18.0002C13.3483 16.5593 12.9645 15.6957 12.811 15.1808L12.7946 15.1703C12.7452 15.0247 12.7233 14.879 12.7233 14.7334C12.7233 14.671 12.7233 14.6241 12.7342 14.5825C12.7781 14.2444 12.9536 13.9063 13.2551 13.5578C13.2551 13.5526 13.2606 13.5526 13.2606 13.5474C13.6663 13.1208 14.105 12.7879 14.571 12.5382C14.571 12.5382 14.5765 12.5382 14.582 12.5382C15.0754 12.2937 15.5415 12.3769 15.8649 12.7359C15.8649 12.7359 16.5284 13.4901 16.8135 13.8595C17.0821 14.208 17.444 14.7594 17.6249 15.0663C17.9484 15.6177 17.7456 16.1847 17.4276 16.4188L16.7861 16.9026C16.4626 17.1523 16.5064 17.6152 16.5064 17.6152C16.5064 17.6152 17.455 21.0381 21.0188 21.8964Z" fill="white"/>
<defs>
<linearGradient id="paint0_linear_9792_73161" x1="0" y1="0" x2="40" y2="40" gradientUnits="userSpaceOnUse">
<stop stop-color="#725FF3"/>
<stop offset="1" stop-color="#7552FF"/>
</linearGradient>
</defs>
</svg>
