<svg width="40" height="40" viewBox="0 0 40 40" fill="none" xmlns="http://www.w3.org/2000/svg">
<path d="M0 13.3333C0 8.66622 0 6.33267 0.908278 4.55008C1.70722 2.98206 2.98206 1.70722 4.55008 0.908278C6.33267 0 8.66622 0 13.3333 0H26.6666C31.3337 0 33.6673 0 35.4499 0.908278C37.0179 1.70722 38.2928 2.98206 39.0917 4.55008C40 6.33267 40 8.66622 40 13.3333V26.6666C40 31.3337 40 33.6673 39.0917 35.4499C38.2928 37.0179 37.0179 38.2928 35.4499 39.0917C33.6673 40 31.3337 40 26.6666 40H13.3333C8.66622 40 6.33267 40 4.55008 39.0917C2.98206 38.2928 1.70722 37.0179 0.908278 35.4499C0 33.6673 0 31.3337 0 26.6666V13.3333Z" fill="#1DA1F2"/>
<path d="M33 11.6045C32.0437 12.046 31.0149 12.3446 29.9361 12.478C31.0376 11.7908 31.8829 10.7036 32.282 9.40591C31.2512 10.0425 30.1091 10.5044 28.8946 10.7533C27.9216 9.67431 26.5352 9 25.0001 9C22.0547 9 19.6658 11.4872 19.6658 14.5539C19.6658 14.9893 19.7132 15.413 19.8047 15.8197C15.3715 15.5882 11.4407 13.3772 8.80963 10.016C8.35056 10.8361 8.08721 11.7908 8.08721 12.8085C8.08721 14.735 9.02962 16.4356 10.4601 17.4314C9.58616 17.4028 8.76309 17.153 8.04425 16.7359C8.04385 16.7595 8.04385 16.7832 8.04385 16.8063C8.04385 19.4974 9.88332 21.7419 12.3231 22.2518C11.8759 22.3793 11.4037 22.4469 10.918 22.4469C10.5735 22.4469 10.2398 22.4125 9.91435 22.3479C10.593 24.5539 12.5626 26.1597 14.8973 26.2049C13.0714 27.6947 10.7716 28.5823 8.27179 28.5823C7.84216 28.5823 7.41651 28.5562 7 28.5045C9.35941 30.0809 12.164 31 15.1762 31C24.9877 31 30.3534 22.5372 30.3534 15.1972C30.3534 14.9565 30.3482 14.7167 30.3379 14.479C31.3809 13.6962 32.2851 12.7182 33 11.6045Z" fill="#F1F2F2"/>
</svg>
