<svg width="40" height="40" viewBox="0 0 40 40" fill="none" xmlns="http://www.w3.org/2000/svg">
<rect width="40" height="40" rx="10" fill="url(#paint0_linear_6750_52180)"/>
<path d="M26.4207 6H13.5793C9.40002 6 6 9.40002 6 13.5793V26.4209C6 30.6 9.40002 34 13.5793 34H26.4209C30.6 34 34 30.6 34 26.4209V13.5793C34 9.40002 30.6 6 26.4207 6V6ZM32.3585 26.4209C32.3585 29.6949 29.6949 32.3585 26.4207 32.3585H13.5793C10.3051 32.3585 7.64148 29.6949 7.64148 26.4209V13.5793C7.64148 10.3051 10.3051 7.64148 13.5793 7.64148H26.4209C29.6949 7.64148 32.3585 10.3051 32.3585 13.5793V26.4209Z" fill="white"/>
<path d="M20 12.344C15.7784 12.344 12.344 15.7784 12.344 20C12.344 24.2216 15.7784 27.6561 20 27.6561C24.2216 27.6561 27.6561 24.2216 27.6561 20C27.6561 15.7784 24.2216 12.344 20 12.344ZM20 26.0146C16.6837 26.0146 13.9855 23.3165 13.9855 20C13.9855 16.6837 16.6837 13.9855 20 13.9855C23.3165 13.9855 26.0146 16.6837 26.0146 20C26.0146 23.3165 23.3165 26.0146 20 26.0146Z" fill="white"/>
<path d="M27.8392 9.625C26.5916 9.625 25.5769 10.6399 25.5769 11.8873C25.5769 13.1348 26.5916 14.1497 27.8392 14.1497C29.0867 14.1497 30.1017 13.1348 30.1017 11.8873C30.1017 10.6397 29.0867 9.625 27.8392 9.625ZM27.8392 12.5081C27.4969 12.5081 27.2184 12.2295 27.2184 11.8873C27.2184 11.5448 27.4969 11.2665 27.8392 11.2665C28.1816 11.2665 28.4602 11.5448 28.4602 11.8873C28.4602 12.2295 28.1816 12.5081 27.8392 12.5081Z" fill="white"/>
<defs>
<linearGradient id="paint0_linear_6750_52180" x1="3.35673" y1="36.6432" x2="36.6435" y2="3.35669" gradientUnits="userSpaceOnUse">
<stop stop-color="#FFD600"/>
<stop offset="0.5" stop-color="#FF0100"/>
<stop offset="1" stop-color="#D800B9"/>
</linearGradient>
</defs>
</svg>
