<svg width="40" height="40" viewBox="0 0 40 40" fill="none" xmlns="http://www.w3.org/2000/svg">
<path d="M0 13.3333C0 8.66623 0 6.33268 0.908279 4.55008C1.70722 2.98206 2.98206 1.70722 4.55008 0.908279C6.33268 0 8.66623 0 13.3333 0H26.6667C31.3338 0 33.6673 0 35.4499 0.908279C37.0179 1.70722 38.2928 2.98206 39.0917 4.55008C40 6.33268 40 8.66623 40 13.3333V26.6667C40 31.3338 40 33.6673 39.0917 35.4499C38.2928 37.0179 37.0179 38.2928 35.4499 39.0917C33.6673 40 31.3338 40 26.6667 40H13.3333C8.66623 40 6.33268 40 4.55008 39.0917C2.98206 38.2928 1.70722 37.0179 0.908279 35.4499C0 33.6673 0 31.3338 0 26.6667V13.3333Z" fill="#FF0000"/>
<path d="M33.389 13.0732C33.0655 11.8691 32.113 10.9166 30.9089 10.5931C28.7343 10 19.982 10 19.982 10C19.982 10 11.2298 10.018 9.0552 10.611C7.85109 10.9345 6.89859 11.887 6.5751 13.0911C6 15.2657 6 19.8126 6 19.8126C6 19.8126 6 24.3594 6.59307 26.552C6.91656 27.7561 7.86906 28.7086 9.07317 29.0321C11.2478 29.6252 20 29.6252 20 29.6252C20 29.6252 28.7522 29.6252 30.9268 29.0321C32.1309 28.7086 33.0834 27.7561 33.4069 26.552C34 24.3774 34 19.8126 34 19.8126C34 19.8126 33.982 15.2657 33.389 13.0732Z" fill="white"/>
<path d="M17.1964 24.018L24.457 19.8126L17.1964 15.6072V24.018Z" fill="#FF0000"/>
</svg>
