<svg width="40" height="40" viewBox="0 0 40 40" fill="none" xmlns="http://www.w3.org/2000/svg">
<path d="M0 13.3333C0 8.66622 0 6.33267 0.908278 4.55008C1.70722 2.98206 2.98206 1.70722 4.55008 0.908278C6.33267 0 8.66622 0 13.3333 0H26.6666C31.3337 0 33.6673 0 35.4499 0.908278C37.0179 1.70722 38.2928 2.98206 39.0917 4.55008C40 6.33267 40 8.66622 40 13.3333V26.6666C40 31.3337 40 33.6673 39.0917 35.4499C38.2928 37.0179 37.0179 38.2928 35.4499 39.0917C33.6673 40 31.3337 40 26.6666 40H13.3333C8.66622 40 6.33267 40 4.55008 39.0917C2.98206 38.2928 1.70722 37.0179 0.908278 35.4499C0 33.6673 0 31.3337 0 26.6666V13.3333Z" fill="url(#paint0_linear_9792_73169)"/>
<path fill-rule="evenodd" clip-rule="evenodd" d="M7.78733 27.0834L5.83333 34.1667L13.0632 32.2127C15.1638 33.3851 17.5086 34.1667 19.9511 34.1667C27.7184 34.1667 34.1666 27.6206 34.1666 19.9023C34.1666 12.184 27.7183 5.83337 19.9511 5.83337C12.1839 5.83337 5.83333 12.184 5.83333 19.9023C5.83333 22.4426 6.51726 24.8851 7.78733 27.0834ZM13.8937 29.9167L13.454 29.6725L9.25296 30.7472L10.3765 26.6437L10.0834 26.2041C8.91097 24.3477 8.27591 22.1495 8.27591 19.9024C8.27591 13.4541 13.5029 8.27595 19.9512 8.27595C26.3994 8.27595 31.7242 13.4052 31.7242 19.9024C31.7242 26.3995 26.3994 31.7242 20 31.7242C17.8018 31.7242 15.7012 31.0403 13.8937 29.9167Z" fill="#FAFAFE"/>
<path d="M16.1896 13.3564L15.2614 13.3075C14.9683 13.3075 14.6752 13.4052 14.4798 13.6006C14.0402 13.9914 13.3074 14.7242 13.112 15.7012C12.7701 17.1667 13.3074 18.9253 14.5776 20.684C15.8477 22.4426 18.2902 25.2759 22.589 26.4972C23.9568 26.888 25.0316 26.6437 25.9109 26.1063C26.5948 25.6667 27.0344 24.9828 27.181 24.25L27.3275 23.5661C27.3764 23.3707 27.2787 23.1264 27.0833 23.0288L24.0057 21.6121C23.8103 21.5144 23.566 21.5632 23.4195 21.7586L22.1982 23.3218C22.1005 23.4196 21.954 23.4684 21.8074 23.4196C20.977 23.1264 18.1925 21.954 16.6781 19.023C16.6292 18.8765 16.6292 18.7299 16.727 18.6322L17.8994 17.3133C17.9971 17.1667 18.0459 16.9713 17.9971 16.8248L16.5804 13.6495C16.5315 13.5029 16.385 13.3564 16.1896 13.3564Z" fill="#FEFEFE"/>
<defs>
<linearGradient id="paint0_linear_9792_73169" x1="20" y1="5.96046e-07" x2="20" y2="40" gradientUnits="userSpaceOnUse">
<stop stop-color="#61FC7C"/>
<stop offset="1" stop-color="#04B822"/>
</linearGradient>
</defs>
</svg>
