<svg width="40" height="40" viewBox="0 0 40 40" fill="none" xmlns="http://www.w3.org/2000/svg">
<path d="M0 13.3333C0 8.66622 0 6.33267 0.908278 4.55008C1.70722 2.98206 2.98206 1.70722 4.55008 0.908278C6.33267 0 8.66622 0 13.3333 0H26.6666C31.3337 0 33.6673 0 35.4499 0.908278C37.0179 1.70722 38.2928 2.98206 39.0917 4.55008C40 6.33267 40 8.66622 40 13.3333V26.6666C40 31.3337 40 33.6673 39.0917 35.4499C38.2928 37.0179 37.0179 38.2928 35.4499 39.0917C33.6673 40 31.3337 40 26.6666 40H13.3333C8.66622 40 6.33267 40 4.55008 39.0917C2.98206 38.2928 1.70722 37.0179 0.908278 35.4499C0 33.6673 0 31.3337 0 26.6666V13.3333Z" fill="url(#paint0_radial_9795_95325)"/>
<path d="M15.9574 20.5187C13.7028 20.5187 11.8814 22.3199 11.9147 24.5274C11.9369 25.9441 12.7255 27.1741 13.8861 27.8606C13.4918 27.262 13.2586 26.5536 13.2475 25.7903C13.2142 23.5829 15.0356 21.7817 17.2901 21.7817C17.7344 21.7817 18.162 21.8531 18.5618 21.9794V17.5589C18.1453 17.4985 17.7177 17.4656 17.2901 17.4656C17.2679 17.4656 17.2512 17.4656 17.229 17.4656V20.7164C16.8292 20.5901 16.4016 20.5187 15.9574 20.5187Z" fill="#FE2C55"/>
<path d="M25.703 7.26294H25.6697H24.5147C24.8479 8.91581 25.7863 10.3545 27.0969 11.332C26.2361 10.2063 25.7141 8.8005 25.703 7.26294Z" fill="#FE2C55"/>
<path d="M32.5 13.9897C32.0613 13.9897 31.6393 13.9458 31.2228 13.8689L24.3925 14.7365L17.229 32.6436C16.8126 32.704 16.385 32.7369 15.9574 32.7369C14.0582 32.7369 12.2479 32.1274 10.7764 31.0017C10.943 31.1994 11.1207 31.3916 11.315 31.5783C12.9143 33.1378 15.0356 33.9999 17.2957 33.9999C17.7233 33.9999 18.1509 33.967 18.5673 33.9066C20.3443 33.6485 21.9825 32.8412 23.2763 31.5783C24.8645 30.0242 25.7419 27.965 25.753 25.7685L25.6697 15.9995C26.4249 16.5761 27.2523 17.0593 28.1464 17.4272C29.5291 18.0038 30.9951 18.3004 32.5 18.3004" fill="#FE2C55"/>
<path d="M11.2983 19.8984C12.881 18.3444 14.9856 17.4822 17.229 17.4658V16.2961C16.8125 16.2357 16.385 16.2028 15.9574 16.2028C13.6917 16.2028 11.5649 17.0649 9.96559 18.6354C8.39407 20.1784 7.49447 22.2871 7.50003 24.4781C7.50003 26.6856 8.38297 28.7558 9.9767 30.3208C10.2321 30.5679 10.4931 30.7986 10.7708 31.0072C9.51579 29.5301 8.83277 27.685 8.82721 25.7411C8.83277 23.5501 9.72681 21.4414 11.2983 19.8984Z" fill="#25F4EE"/>
<path d="M31.2228 13.869V12.6939H31.2117C29.6679 12.6939 28.2464 12.1887 27.1024 11.332C28.0964 12.628 29.5513 13.5505 31.2228 13.869Z" fill="#25F4EE"/>
<path d="M17.0624 29.6784C17.59 29.7058 18.0953 29.6344 18.5618 29.4862C20.1722 28.9645 21.3328 27.4819 21.3328 25.7356L21.3383 19.201V7.26299H24.5147C24.4314 6.85115 24.387 6.43381 24.3814 6H20.0056V17.9325L20 24.4672C20 26.2134 18.8394 27.696 17.229 28.2177C16.7626 28.3714 16.2573 28.4428 15.7297 28.4099C15.0578 28.3714 14.4303 28.1738 13.8861 27.8553C14.5691 28.8986 15.7353 29.607 17.0624 29.6784Z" fill="#25F4EE"/>
<path d="M17.229 32.6436C19.006 32.3855 20.6442 31.5783 21.938 30.3153C23.5262 28.7613 24.4036 26.702 24.4147 24.5055L24.3925 14.7366C25.1477 15.3131 25.9751 15.7964 26.8692 16.1643C28.2519 16.7409 29.7179 17.0374 31.2228 17.0374V13.8689C29.5513 13.5504 28.0964 12.6279 27.1024 11.332C25.7919 10.3545 24.8479 8.91581 24.5202 7.26294H21.3383V19.1955L21.3328 25.7301C21.3328 27.4763 20.1722 28.959 18.5618 29.4806C18.0953 29.6344 17.59 29.7058 17.0624 29.6728C15.7297 29.6014 14.5691 28.8931 13.8861 27.8552C12.7255 27.1743 11.9369 25.9388 11.9147 24.522C11.8814 22.3145 13.7028 20.5134 15.9574 20.5134C16.4016 20.5134 16.8292 20.5848 17.229 20.7111V17.4602C14.9856 17.4767 12.881 18.3388 11.2983 19.8929C9.72682 21.4359 8.82722 23.5446 8.83277 25.7301C8.83277 27.674 9.5158 29.5191 10.7764 30.9962C12.2535 32.1219 14.0582 32.7315 15.9574 32.7315C16.385 32.737 16.8126 32.704 17.229 32.6436Z" fill="white"/>
<defs>
<radialGradient id="paint0_radial_9795_95325" cx="0" cy="0" r="1" gradientUnits="userSpaceOnUse" gradientTransform="translate(20 20) rotate(90) scale(34.5)">
<stop stop-color="#360C21"/>
<stop offset="1" stop-color="#120C18"/>
</radialGradient>
</defs>
</svg>
