<svg width="40" height="40" viewBox="0 0 40 40" fill="none" xmlns="http://www.w3.org/2000/svg">
<rect width="40" height="40" rx="10" fill="#FFCC7B"/>
<path d="M32.3179 17.0755V30.3943C32.3179 31.2813 31.5855 32 30.6801 32H9.31921C8.41446 32 7.68143 31.2813 7.68143 30.3943V17.0755C8.1915 17.3714 8.78666 17.541 9.42191 17.541C10.2872 17.541 11.0836 17.2244 11.6907 16.6975C12.2979 16.1713 12.7144 15.4333 12.8192 14.5918L12.9359 13.651C12.919 13.7924 12.9099 13.9338 12.9099 14.0724C12.9099 15.9602 14.4752 17.541 16.4549 17.541C18.4128 17.541 19.9999 15.985 19.9999 14.0662C19.9999 15.9851 21.5863 17.541 23.5442 17.541C25.5253 17.541 27.0899 15.9602 27.0899 14.0711C27.0899 13.9338 27.0815 13.7952 27.0639 13.6545L27.1806 14.5918C27.2855 15.4333 27.7019 16.1713 28.3084 16.6975C28.9155 17.2245 29.7126 17.5411 30.5772 17.5411C31.2127 17.5411 31.8079 17.3714 32.3179 17.0755Z" fill="#518EF8"/>
<path d="M32.3179 19.6991V21.3081C31.8078 21.604 31.2126 21.7737 30.5774 21.7737C29.7128 21.7737 28.9157 21.4571 28.3086 20.9302C27.7021 20.4039 27.2856 19.6659 27.1808 18.8244L27.064 17.8871C27.0816 18.0278 27.0901 18.1664 27.0901 18.3037C27.0901 20.1928 25.5255 21.7736 23.5444 21.7736C21.5865 21.7736 20.0001 20.2176 20.0001 18.2989C20.0001 20.2177 18.4129 21.7736 16.455 21.7736C14.4754 21.7736 12.91 20.1928 12.91 18.305C12.91 18.1664 12.9192 18.025 12.9361 17.8836L12.8193 18.8244C12.7145 19.6658 12.298 20.4038 11.6909 20.9301C11.0837 21.457 10.2874 21.7736 9.42206 21.7736C8.78681 21.7736 8.1916 21.6039 7.68158 21.3081V19.699C8.19165 19.9949 8.78681 20.1645 9.42206 20.1645C10.2874 20.1645 11.0838 19.8479 11.6909 19.321C12.298 18.7948 12.7145 18.0568 12.8193 17.2153L12.9361 16.2745C12.9192 16.4159 12.91 16.5573 12.91 16.6959C12.91 18.5837 14.4754 20.1645 16.455 20.1645C18.4129 20.1645 20.0001 18.6085 20.0001 16.6898C20.0001 18.6086 21.5865 20.1645 23.5444 20.1645C25.5255 20.1645 27.0901 18.5837 27.0901 16.6946C27.0901 16.5574 27.0816 16.4187 27.064 16.278L27.1808 17.2154C27.2856 18.0568 27.7021 18.7948 28.3086 19.3211C28.9157 19.848 29.7128 20.1646 30.5774 20.1646C31.2127 20.1646 31.8079 19.995 32.3179 19.6991Z" fill="#4786E2"/>
<path d="M27.064 16.3815C27.0816 16.5222 27.0901 16.6608 27.0901 16.7981C27.0901 18.6872 25.5255 20.268 23.5444 20.268C21.5865 20.268 20.0001 18.712 20.0001 16.7933L18.3116 12.7534L20 8H26.0221L27.8325 12.7588L27.0633 16.3725C27.064 16.3753 27.064 16.3788 27.064 16.3815Z" fill="#ACD1FC"/>
<path d="M13.9772 8.00012L15.5444 13.223L12.9367 16.3726V16.3726L12.8193 17.3189C12.7144 18.1603 12.298 18.8983 11.6908 19.4246C11.0837 19.9515 10.2873 20.2681 9.42202 20.2681C8.78677 20.2681 8.19155 20.0984 7.68153 19.8026V19.8019C6.67468 19.2183 6 18.143 6 16.9133V16.6643L8.33084 8.83839C8.47877 8.34159 8.94339 8.00012 9.47129 8.00012H13.9772Z" fill="#ACD1FC"/>
<path d="M32.3179 19.8024C31.8078 20.0983 31.2127 20.268 30.5774 20.268C29.7128 20.268 28.9157 19.9514 28.3086 19.4245C27.7022 18.8982 27.2857 18.1602 27.1808 17.3187L27.0641 16.3814C27.0641 16.3787 27.0641 16.3752 27.0634 16.3724L26.0222 8H30.5281C31.056 8 31.5206 8.34147 31.6686 8.83821L34 16.6642V16.9132C34 18.143 33.3246 19.2183 32.3179 19.8024Z" fill="#3A5BBC"/>
<path d="M20 8.00005V16.7932C20 18.712 18.4129 20.268 16.455 20.268C14.4753 20.268 12.91 18.6871 12.91 16.7994C12.91 16.6607 12.9191 16.5193 12.936 16.378C12.936 16.3759 12.9367 16.3745 12.9367 16.3724L13.9772 8H20V8.00005Z" fill="#3A5BBC"/>
<path d="M27.0387 30.1593C25.0984 30.1593 23.5197 28.6116 23.5197 26.7093C23.5197 24.807 25.0984 23.2594 27.0387 23.2594C27.979 23.2594 28.8629 23.6182 29.5273 24.2696L28.7812 25.0011C28.316 24.545 27.6972 24.2939 27.0388 24.2939C25.6803 24.2939 24.575 25.3774 24.575 26.7093C24.575 28.0412 25.6803 29.1247 27.0388 29.1247C28.2162 29.1247 29.2034 28.3107 29.4456 27.2266H27.0387V26.192H30.5577V26.7093C30.5577 28.6116 28.9791 30.1593 27.0387 30.1593Z" fill="white"/>
</svg>
