<svg width="40" height="40" viewBox="0 0 40 40" fill="none" xmlns="http://www.w3.org/2000/svg">
<path fill-rule="evenodd" clip-rule="evenodd" d="M20 40C8.97195 40 0 31.028 0 20C0 8.97195 8.97195 0 20 0C31.028 0 40 8.97195 40 20C40 31.028 31.028 40 20 40Z" fill="url(#paint0_linear_9792_73195)"/>
<path d="M31.6156 26.4123C31.5496 26.2134 31.1297 25.9205 30.3562 25.5341C30.1467 25.4124 29.8481 25.2469 29.4618 25.0369C29.0751 24.827 28.7241 24.6335 28.4095 24.4567C28.0942 24.28 27.7988 24.1088 27.5228 23.9433C27.4787 23.9101 27.3406 23.8136 27.1086 23.6531C26.8764 23.493 26.6805 23.3742 26.52 23.2967C26.3599 23.2197 26.2024 23.1809 26.0477 23.1809C25.8268 23.1809 25.5508 23.3384 25.2195 23.6531C24.8882 23.9681 24.5843 24.3104 24.3083 24.6808C24.0321 25.051 23.7393 25.3933 23.4303 25.7082C23.1208 26.0232 22.8665 26.1805 22.6679 26.1805C22.5682 26.1805 22.4438 26.1527 22.2948 26.0979C22.1459 26.0427 22.0326 25.9954 21.9548 25.9572C21.8777 25.9183 21.7455 25.8412 21.5575 25.7248C21.3692 25.6088 21.2645 25.5452 21.2425 25.5341C19.729 24.6943 18.431 23.7331 17.3482 22.6508C16.2657 21.5678 15.3044 20.2699 14.4648 18.7563C14.4538 18.7341 14.3901 18.6291 14.2742 18.4414C14.1581 18.2535 14.0807 18.1211 14.0421 18.0436C14.0034 17.9663 13.9565 17.853 13.9013 17.7039C13.8462 17.5548 13.8185 17.4306 13.8185 17.3311C13.8185 17.1323 13.976 16.8781 14.2909 16.5687C14.6057 16.2595 14.9483 15.9666 15.3182 15.6906C15.6885 15.4146 16.0307 15.1107 16.3456 14.7794C16.6605 14.4479 16.8179 14.1719 16.8179 13.951C16.8179 13.7964 16.7792 13.6388 16.702 13.4787C16.6247 13.3182 16.5059 13.1223 16.3456 12.8902C16.1853 12.6582 16.0887 12.5203 16.0555 12.4759C15.8899 12.1999 15.7189 11.9044 15.5419 11.5895C15.3649 11.2747 15.1718 10.9237 14.9618 10.5371C14.7519 10.1506 14.5864 9.85224 14.4647 9.64236C14.0782 8.86917 13.7855 8.44916 13.5866 8.38311C13.5092 8.34997 13.3932 8.33325 13.2386 8.33325C12.9402 8.33325 12.5508 8.38839 12.0703 8.49902C11.5896 8.60948 11.2113 8.72533 10.9351 8.84705C10.3827 9.07893 9.7972 9.75282 9.17846 10.8685C8.61504 11.9067 8.33335 12.9344 8.33335 13.9507C8.33335 14.2487 8.35268 14.5387 8.39134 14.8207C8.42999 15.1024 8.49906 15.42 8.59861 15.7736C8.69798 16.1271 8.77814 16.3897 8.83873 16.5607C8.89939 16.7318 9.01263 17.0383 9.1784 17.4804C9.34394 17.9223 9.44349 18.1929 9.47663 18.2923C9.86326 19.3751 10.3217 20.3416 10.852 21.1924C11.7244 22.6064 12.9149 24.0678 14.4228 25.5759C15.9309 27.0838 17.3919 28.2743 18.8061 29.147C19.6567 29.6772 20.6237 30.1356 21.7062 30.5226C21.8057 30.5555 22.0763 30.6548 22.518 30.821C22.96 30.9866 23.2666 31.0999 23.4377 31.1606C23.6089 31.2215 23.8715 31.3017 24.2247 31.4012C24.5787 31.5008 24.8961 31.5698 25.1777 31.6088C25.4596 31.6469 25.7496 31.6666 26.0478 31.6666C27.064 31.6666 28.0917 31.3847 29.1301 30.8214C30.2457 30.2029 30.9194 29.6173 31.1514 29.0644C31.2734 28.7885 31.389 28.4101 31.4994 27.9294C31.6102 27.4489 31.6652 27.0596 31.6652 26.7612C31.6656 26.6061 31.6489 26.4903 31.6156 26.4123Z" fill="white"/>
<defs>
<linearGradient id="paint0_linear_9792_73195" x1="20" y1="0" x2="20" y2="40" gradientUnits="userSpaceOnUse">
<stop stop-color="#FFA18D"/>
<stop offset="1" stop-color="#FD4385"/>
</linearGradient>
</defs>
</svg>
