<svg width="40" height="40" viewBox="0 0 40 40" fill="none" xmlns="http://www.w3.org/2000/svg">
<g clip-path="url(#clip0_9792_73179)">
<path d="M23.5734 11.64C23.5734 14.7271 22.3316 17.6878 20.1212 19.8707C17.9107 22.0536 14.9127 23.28 11.7867 23.28C8.66068 23.28 5.66268 22.0536 3.45225 19.8707C1.24181 17.6878 1.43232e-09 14.7271 0 11.64C0 8.55288 1.24181 5.5922 3.45225 3.40928C5.66268 1.22635 8.66068 0 11.7867 0C14.9127 0 17.9107 1.22635 20.1212 3.40928C22.3316 5.5922 23.5734 8.55288 23.5734 11.64Z" fill="url(#paint0_linear_9792_73179)"/>
<path d="M40.0001 28.356C40.0001 29.8851 39.6951 31.3993 39.1026 32.812C38.51 34.2247 37.6415 35.5083 36.5467 36.5896C35.4518 37.6708 34.152 38.5285 32.7215 39.1137C31.2909 39.6989 29.7577 40 28.2093 40C25.0822 40 22.0832 38.7733 19.872 36.5896C17.6608 34.4059 16.4186 31.4442 16.4186 28.356C16.4186 25.2679 17.6608 22.3062 19.872 20.1225C22.0832 17.9388 25.0822 16.712 28.2093 16.712C29.7577 16.712 31.2909 17.0132 32.7215 17.5984C34.152 18.1835 35.4518 19.0412 36.5467 20.1225C37.6415 21.2037 38.51 22.4874 39.1026 23.9001C39.6951 25.3128 40.0001 26.8269 40.0001 28.356Z" fill="url(#paint1_linear_9792_73179)"/>
<path opacity="0.05" fill-rule="evenodd" clip-rule="evenodd" d="M0.0431747 12.636C0.226253 14.8353 1.03454 16.9382 2.37436 18.701C3.71419 20.4638 5.53071 21.8143 7.61344 22.5961C9.69617 23.3779 11.9598 23.5589 14.1422 23.1182C16.3245 22.6776 18.3361 21.6332 19.9439 20.1061C21.5518 18.5791 22.69 16.6319 23.2267 14.4902C23.7634 12.3484 23.6766 10.0999 22.9765 8.005C22.2763 5.91012 20.9913 4.05471 19.2705 2.65376C17.5497 1.25281 15.4635 0.363661 13.2536 0.0893555C10.253 1.0839 7.51202 2.72488 5.22784 4.89429C2.94366 7.0637 1.173 9.70765 0.0431747 12.636Z" fill="black"/>
<path opacity="0.05" fill-rule="evenodd" clip-rule="evenodd" d="M39.9688 27.52C39.8148 25.2939 39.0206 23.158 37.6801 21.3651C36.3396 19.5722 34.5089 18.1972 32.4045 17.4027C30.3001 16.6083 28.0101 16.4276 25.8054 16.8821C23.6007 17.3367 21.5734 18.4074 19.9635 19.9676C18.3536 21.5278 17.2283 23.5122 16.7208 25.6861C16.2133 27.86 16.3448 30.1325 17.0998 32.2347C17.8548 34.3369 19.2016 36.1808 20.981 37.5485C22.7603 38.9161 24.8978 39.7501 27.1405 39.952C30.0592 38.9223 32.7176 37.2774 34.9323 35.1308C37.1471 32.9843 38.8654 30.3871 39.9688 27.5187V27.52Z" fill="black"/>
<path opacity="0.1" fill-rule="evenodd" clip-rule="evenodd" d="M0.594673 15.2973C1.21377 17.1738 2.30307 18.8641 3.76072 20.2101C5.21837 21.5561 6.99673 22.5138 8.92948 22.9936C10.8622 23.4734 12.8862 23.4597 14.8122 22.9538C16.7381 22.4478 18.5031 21.4661 19.9421 20.1005C21.381 18.735 22.4469 17.0301 23.0401 15.1454C23.6332 13.2606 23.7342 11.2576 23.3337 9.3237C22.9332 7.38976 22.0442 5.58808 20.7498 4.08714C19.4554 2.58619 17.798 1.43504 15.9326 0.741333C12.2565 1.50018 8.86946 3.2671 6.15762 5.84068C3.44579 8.41427 1.51823 11.691 0.594673 15.2973Z" fill="black"/>
<path opacity="0.1" fill-rule="evenodd" clip-rule="evenodd" d="M39.4336 24.784C38.8236 22.8853 37.7334 21.1728 36.2667 19.8095C34.8 18.4462 33.0056 17.4775 31.0543 16.9955C29.103 16.5135 27.0597 16.5342 25.1188 17.0558C23.1779 17.5773 21.4039 18.5823 19.9657 19.975C18.5276 21.3678 17.473 23.1021 16.9024 25.0128C16.3318 26.9235 16.2642 28.9471 16.7059 30.891C17.1476 32.8349 18.0841 34.6345 19.4261 36.1186C20.7681 37.6026 22.471 38.7217 24.3728 39.3693C28.0019 38.5623 31.3327 36.7706 33.9926 34.1948C36.6524 31.6189 38.5364 28.3604 39.4336 24.784Z" fill="black"/>
<path opacity="0.1" fill-rule="evenodd" clip-rule="evenodd" d="M1.02847 16.4014C1.79537 18.1136 2.96696 19.6177 4.44424 20.7867C5.92152 21.9556 7.66108 22.755 9.51593 23.1174C11.3708 23.4798 13.2864 23.3945 15.1009 22.8686C16.9155 22.3428 18.5756 21.3919 19.9411 20.0963C21.3065 18.8007 22.3371 17.1984 22.9459 15.425C23.5546 13.6515 23.7235 11.7589 23.4384 9.90711C23.1533 8.05531 22.4225 6.29871 21.3077 4.78577C20.193 3.27282 18.7271 2.04797 17.0339 1.21472C13.118 1.81865 9.48353 3.59875 6.62127 6.31459C3.75901 9.03044 1.80687 12.5512 1.02847 16.4014Z" fill="black"/>
<path opacity="0.1" fill-rule="evenodd" clip-rule="evenodd" d="M38.9986 23.6573C38.2356 21.9253 37.0597 20.4027 35.5718 19.2203C34.084 18.0378 32.3286 17.231 30.4566 16.869C28.5846 16.507 26.6519 16.6007 24.8245 17.1421C22.9971 17.6834 21.3297 18.6562 19.9655 19.9769C18.6012 21.2976 17.5809 22.9267 16.9923 24.7243C16.4036 26.5219 16.2642 28.4342 16.5859 30.2969C16.9077 32.1597 17.681 33.9172 18.8395 35.4185C19.9979 36.9198 21.5069 38.12 23.2368 38.916C27.1183 38.2625 30.7065 36.4519 33.5226 33.7256C36.3388 30.9993 38.2491 27.4871 38.9986 23.6573Z" fill="black"/>
<path d="M38.6702 20.0866C38.6702 22.5077 38.1873 24.905 37.2491 27.1418C36.311 29.3785 34.9359 31.4109 33.2023 33.1229C31.4688 34.8348 29.4108 36.1928 27.1458 37.1193C24.8809 38.0458 22.4533 38.5226 20.0017 38.5226C17.5502 38.5226 15.1226 38.0458 12.8576 37.1193C10.5927 36.1928 8.53466 34.8348 6.80113 33.1229C5.06761 31.4109 3.6925 29.3785 2.75432 27.1418C1.81614 24.905 1.33327 22.5077 1.33327 20.0866C1.33327 17.6656 1.81614 15.2682 2.75432 13.0315C3.6925 10.7947 5.06761 8.76235 6.80113 7.05041C8.53466 5.33847 10.5927 3.98049 12.8576 3.05399C15.1226 2.1275 17.5502 1.65063 20.0017 1.65063C22.4533 1.65063 24.8809 2.1275 27.1458 3.05399C29.4108 3.98049 31.4688 5.33847 33.2023 7.05041C34.9359 8.76235 36.311 10.7947 37.2491 13.0315C38.1873 15.2682 38.6702 17.6656 38.6702 20.0866Z" fill="url(#paint2_linear_9792_73179)"/>
<path fill-rule="evenodd" clip-rule="evenodd" d="M14.7526 19.4467C13.9982 18.9547 13.3687 18.2967 12.9131 17.524C12.4733 16.7077 12.2562 15.7917 12.2833 14.8667C12.25 13.6928 12.6543 12.5479 13.4191 11.6507C14.2138 10.7497 15.2353 10.0734 16.3795 9.69067C17.624 9.25505 18.9352 9.03626 20.2551 9.044C21.1186 9.03592 21.9812 9.10149 22.8334 9.24C23.4433 9.33333 24.0424 9.48653 24.6217 9.69733C25.1537 9.87575 25.634 10.1796 26.0212 10.5827C26.3066 10.9143 26.4601 11.3376 26.4532 11.7733C26.4634 11.9997 26.4284 12.2258 26.3504 12.4388C26.2724 12.6518 26.1527 12.8475 25.9984 13.0147C25.8523 13.1687 25.675 13.2904 25.4781 13.3718C25.2812 13.4531 25.0691 13.4923 24.8559 13.4867C24.5625 13.4843 24.273 13.4197 24.0068 13.2973C23.3507 13.0064 22.6749 12.7613 21.9842 12.564C21.3485 12.3979 20.6931 12.3172 20.0357 12.324C19.1788 12.2928 18.3311 12.5076 17.5947 12.9427C17.2839 13.1298 17.0295 13.3961 16.8581 13.714C16.6867 14.0318 16.6046 14.3893 16.6204 14.7493C16.6159 15.222 16.7974 15.6778 17.1264 16.02C17.5173 16.4221 17.9793 16.7497 18.4895 16.9867C19.061 17.2676 19.9133 17.64 21.0463 18.104C21.1718 18.1434 21.2941 18.192 21.4123 18.2493C22.518 18.6827 23.5781 19.2226 24.5773 19.8613C25.3665 20.3712 26.0319 21.0478 26.5259 21.8427C27.0122 22.6781 27.2558 23.6306 27.2297 24.5947C27.2705 25.7751 26.9291 26.9376 26.2554 27.912C25.5694 28.8346 24.6203 29.5326 23.5304 29.916C22.2168 30.381 20.8288 30.6051 19.4342 30.5773C17.5178 30.6438 15.6105 30.2862 13.851 29.5307C13.4012 29.3322 13.0068 29.0283 12.7018 28.6453C12.4486 28.2943 12.3173 27.8713 12.3277 27.44C12.3151 27.2125 12.3526 26.985 12.4374 26.7732C12.5222 26.5614 12.6523 26.3704 12.8189 26.2133C13.1681 25.9104 13.6214 25.7519 14.0852 25.7707C14.6019 25.7776 15.1094 25.907 15.5654 26.148C16.1324 26.4289 16.5796 26.6396 16.907 26.78C17.281 26.9351 17.6683 27.0565 18.0643 27.1427C18.5526 27.2488 19.0514 27.2998 19.5513 27.2947C20.4352 27.3572 21.3149 27.1249 22.0502 26.6347C22.3254 26.4213 22.5454 26.146 22.6919 25.8315C22.8384 25.5171 22.9072 25.1727 22.8926 24.8267C22.8934 24.3361 22.7046 23.8637 22.3651 23.5067C21.9163 23.0476 21.391 22.6687 20.8122 22.3867C20.1277 22.0293 19.1651 21.5938 17.9244 21.08C16.8147 20.6419 15.7522 20.0947 14.7526 19.4467Z" fill="white"/>
</g>
<defs>
<linearGradient id="paint0_linear_9792_73179" x1="9.94853" y1="0.141333" x2="13.5594" y2="23.1489" gradientUnits="userSpaceOnUse">
<stop offset="0.012" stop-color="#00B7F0"/>
<stop offset="0.339" stop-color="#009DE5"/>
<stop offset="0.755" stop-color="#0082D9"/>
<stop offset="1" stop-color="#0078D4"/>
</linearGradient>
<linearGradient id="paint1_linear_9792_73179" x1="18.0038" y1="34.1934" x2="38.3191" y2="22.3567" gradientUnits="userSpaceOnUse">
<stop stop-color="#0078D4"/>
<stop offset="0.37" stop-color="#007AD5"/>
<stop offset="0.573" stop-color="#0082D9"/>
<stop offset="0.735" stop-color="#0090DF"/>
<stop offset="0.875" stop-color="#00A3E7"/>
<stop offset="1" stop-color="#00BCF2"/>
</linearGradient>
<linearGradient id="paint2_linear_9792_73179" x1="12.7163" y1="7.5853" x2="31.0856" y2="39.6958" gradientUnits="userSpaceOnUse">
<stop stop-color="#00B7F0"/>
<stop offset="1" stop-color="#007CC1"/>
</linearGradient>
<clipPath id="clip0_9792_73179">
<rect width="40" height="40" fill="white"/>
</clipPath>
</defs>
</svg>
