<svg width="104" height="30" viewBox="0 0 104 30" fill="none" xmlns="http://www.w3.org/2000/svg">
<path d="M37.807 30L41.2175 22.7911L35.1238 8.14992H40.0537L43.8361 17.1451L48.0063 8.14992H52.9686L42.8178 30H37.807Z" fill="#B40A0A"/>
<path d="M29.6124 24.6412V23.7161C28.4971 24.2584 27.2687 24.5295 26.0079 24.5295C21.4497 24.5295 17.7482 20.8772 17.7482 16.3796C17.7482 11.882 21.4497 8.22967 26.0079 8.22967C27.2525 8.22967 28.4971 8.51675 29.6124 9.04307V8.11803H34.2676V24.6252H29.6124V24.6412ZM26.024 12.5359C23.8743 12.5359 22.1124 14.2584 22.1124 16.3955C22.1124 18.5327 23.8581 20.2552 26.024 20.2552C28.19 20.2552 29.9357 18.5327 29.9357 16.3955C29.9357 14.2584 28.1738 12.5359 26.024 12.5359Z" fill="#B40A0A"/>
<path d="M17.8287 4.00319C16.277 1.4992 13.5938 0 10.6196 0H0V24.6411H6.54634V16.6348H10.6196C14.4666 16.6348 17.8287 14.067 18.7823 10.3987C18.9601 9.72887 19.041 9.02711 19.041 8.32536C19.041 6.79426 18.6207 5.31101 17.8287 4.00319ZM9.77911 15.3589C9.77911 15.311 9.77911 15.2791 9.77911 15.2313C9.77911 15.1037 9.79527 14.9761 9.79527 14.8325C9.79527 10.7337 6.23923 7.41627 1.84267 7.41627H1.32543L14.7414 2.26475L9.77911 15.3589Z" fill="#B40A0A"/>
<path d="M67.7423 8.86762H71.2983V7.30463C71.2983 3.26954 67.9847 0 63.8953 0H62.974C58.8845 0 55.5709 3.26954 55.5709 7.30463V12.3126V17.3206C55.5709 21.3557 58.8845 24.6252 62.974 24.6252H63.8953C67.9847 24.6252 71.2983 21.3557 71.2983 17.3206V15.7735H67.7423V17.3365C67.7423 19.4258 66.0127 21.1324 63.8953 21.1324H62.974C60.8403 21.1324 59.127 19.4258 59.127 17.3365V12.3126V7.30463C59.127 5.19936 60.8565 3.50877 62.974 3.50877H63.8953C66.0127 3.50877 67.7423 5.21531 67.7423 7.30463V8.86762Z" fill="#808285"/>
<path d="M99.5692 8.86762H103.125V7.30463C103.125 3.26954 99.8116 0 95.7222 0H94.8009C90.7114 0 87.3978 3.26954 87.3978 7.30463V12.3126V17.3206C87.3978 21.3557 90.7114 24.6252 94.8009 24.6252H95.7222C99.8116 24.6252 103.125 21.3557 103.125 17.3206V15.7735H99.5692V17.3365C99.5692 19.4258 97.8396 21.1324 95.7222 21.1324H94.8009C92.6672 21.1324 90.9539 19.4258 90.9539 17.3365V12.3126V7.30463C90.9539 5.19936 92.6834 3.50877 94.8009 3.50877H95.7222C97.8396 3.50877 99.5692 5.21531 99.5692 7.30463V8.86762Z" fill="#808285"/>
<path d="M75.5816 0C74.1915 0 73.4965 0.653907 73.4965 1.97767V12.3126V22.6475C73.4965 23.9713 74.1915 24.6252 75.5816 24.6252H86.0881V23.0781V21.1005H84.2454H77.0525V13.8597H83.421V12.3126V10.7656H77.0525V3.52472H84.2454H86.0881V1.54705V0H75.5816Z" fill="#808285"/>
</svg>
